<svg width="254" height="94" fill="none" xmlns="http://www.w3.org/2000/svg"><path fill-rule="evenodd" clip-rule="evenodd" d="M147.714 32.907c0-1.68.296-3.162.79-4.348a7.382 7.382 0 011.978-2.767c.791-.692 1.78-1.186 2.768-1.483.989-.296 2.077-.395 3.065-.395.989 0 2.077.099 3.065.395a6.82 6.82 0 012.769 1.483 7.37 7.37 0 011.977 2.767c.494 1.185.791 2.668.791 4.348v.099c0 .494-.099.988-.099 1.482v25.1h5.834v-25.1c0-.494 0-.988-.099-1.482v-.1c0-1.68.296-3.162.791-4.347a7.37 7.37 0 011.977-2.767c.791-.692 1.78-1.186 2.769-1.483a11.349 11.349 0 013.065-.395c.988 0 2.076.099 3.065.395.988.297 1.977.791 2.768 1.483a7.37 7.37 0 011.977 2.767c.495 1.185.791 2.569.791 4.348v26.68h5.735v-25.1c0-4.248-1.285-7.51-3.757-9.98-2.472-2.47-6.13-3.656-10.777-3.656-2.175 0-4.153.296-5.932.988-1.78.593-3.263 1.581-4.45 2.668-.296.297-.593.593-.791.89-.296-.297-.494-.593-.791-.89-1.186-1.186-2.669-2.075-4.449-2.668-1.78-.593-3.757-.988-5.932-.988-4.746 0-8.305 1.186-10.777 3.656-2.472 2.47-3.757 5.732-3.757 9.98v25.1h5.734v-26.68h-.098zM254 57.117h-10.678c-1.088 0-2.076-.098-3.164-.395-1.088-.296-1.977-.79-2.867-1.482-.791-.692-1.483-1.581-2.077-2.668-.494-1.087-.79-2.57-.79-4.25v-26.78h-5.834v24.903c0 4.052 1.285 7.313 3.757 9.684 2.472 2.372 6.13 3.558 10.876 3.558h10.678v-2.57H254zm-28.969-.296h-10.678c-1.088 0-2.077-.099-3.164-.395-1.088-.297-1.978-.79-2.867-1.483-.791-.691-1.484-1.58-2.077-2.668-.494-1.087-.791-2.569-.791-4.249v-7.708h13.842v-2.371h-13.842v-5.633c0-1.384 0-2.57.099-3.558 0-.988.198-1.778.396-2.371.197-.593.593-1.087.988-1.483.495-.296 1.088-.593 1.879-.691h16.215v-2.767h-25.41v25.001c0 4.052 1.285 7.313 3.757 9.684 2.472 2.372 6.13 3.558 10.876 3.558h10.678V56.82h.099zm-94.323-8.993c0 1.68-.297 3.064-.791 4.25-.495 1.087-1.187 2.075-2.077 2.668-.889.691-1.779 1.186-2.867 1.482-1.087.297-2.076.395-3.164.395-1.087 0-2.076-.098-3.164-.395-1.087-.296-1.977-.79-2.867-1.383-.89-.692-1.483-1.581-2.076-2.767-.495-1.186-.791-2.57-.791-4.25V21.641h-5.834v24.705c0 2.075.297 3.953.989 5.534.692 1.68 1.582 3.063 2.867 4.15a12.316 12.316 0 004.549 2.669c1.779.593 3.855.988 6.13.988 4.844 0 8.502-1.186 11.073-3.558 2.571-2.371 3.856-5.632 3.856-9.783V21.641h-5.833v26.187zm-87.897 0V33.302c0-1.68.297-3.063.791-4.25.495-1.086 1.187-2.074 2.077-2.667.89-.692 1.78-1.186 2.867-1.483 1.087-.296 2.076-.395 3.164-.395 1.087 0 2.076.099 3.163.395 1.088.297 1.978.791 2.868 1.384.89.692 1.483 1.581 2.076 2.767.494 1.186.791 2.57.791 4.249v14.526c0 1.68-.297 3.163-.79 4.25-.495 1.185-1.187 2.075-2.077 2.767-.89.691-1.78 1.185-2.867 1.383-1.088.297-2.077.395-3.164.395-1.088 0-2.077-.098-3.164-.395-1.088-.296-1.978-.79-2.867-1.482-.89-.692-1.484-1.581-2.077-2.668-.494-1.087-.79-2.57-.79-4.25zm23.532-12.945c0-2.075-.297-3.953-.99-5.534-.691-1.68-1.581-3.063-2.866-4.15-1.286-1.186-2.769-2.075-4.549-2.668a19.432 19.432 0 00-6.13-.988c-4.844 0-8.502 1.185-11.073 3.557-2.57 2.372-3.856 5.633-3.856 9.783v11.463c0 4.15 1.285 7.412 3.856 9.783 2.57 2.372 6.229 3.558 11.074 3.558 2.274 0 4.25-.297 6.13-.988 1.78-.593 3.361-1.483 4.548-2.669 1.285-1.185 2.175-2.569 2.867-4.15.692-1.68.989-3.459.989-5.534V34.883zm-33.32 17.788c-1.582 1.087-3.263 1.877-5.043 2.47a16.8 16.8 0 01-5.338.89c-2.472 0-4.746-.396-6.724-1.186-1.977-.791-3.757-1.977-5.141-3.46-1.384-1.481-2.472-3.26-3.263-5.236-.79-2.076-1.186-4.25-1.186-6.72 0-2.174.296-4.15.988-5.93.594-1.877 1.484-3.458 2.67-4.743 1.186-1.383 2.57-2.371 4.251-3.162 1.681-.79 3.56-1.186 5.735-1.186 1.878.1 3.46.297 4.746.593 1.285.297 2.472.593 3.46.988.989.396 1.78.692 2.57 1.186.792.395 1.484.79 2.275 1.087.099-.692.198-1.383.297-2.273.099-.889.197-1.482.296-2.075a61.52 61.52 0 00-7.02-1.877c-2.373-.396-4.647-.593-6.723-.593-2.67 0-5.24.395-7.712 1.284-2.373.79-4.449 1.977-6.229 3.657-1.78 1.68-3.262 3.656-4.35 6.028C.494 34.784 0 37.453 0 40.516c0 3.063.593 5.83 1.68 8.202a18.062 18.062 0 004.45 6.028 19.678 19.678 0 006.624 3.656c2.571.79 5.24 1.285 8.108 1.285.79 0 1.78-.1 2.768-.198.989-.197 2.076-.395 3.164-.593a38.85 38.85 0 003.164-.988c.989-.395 1.977-.79 2.768-1.285l.297-3.952z" fill="#264597"/><path fill-rule="evenodd" clip-rule="evenodd" d="M147.714 32.907c0-1.68.296-3.162.79-4.348a7.382 7.382 0 011.978-2.767c.791-.692 1.78-1.186 2.768-1.483.989-.296 2.077-.395 3.065-.395.989 0 2.077.099 3.065.395a6.82 6.82 0 012.769 1.483 7.37 7.37 0 011.977 2.767c.494 1.185.791 2.668.791 4.348v.099c0 .494-.099.988-.099 1.482v7.411c1.879.297 3.856.593 5.735.89v-8.301c0-.494 0-.988-.099-1.482v-.1c0-1.68.296-3.162.791-4.347a7.37 7.37 0 011.977-2.767c.791-.692 1.78-1.186 2.769-1.483a11.349 11.349 0 013.065-.395c.988 0 2.076.099 3.065.395.988.297 1.977.791 2.768 1.483a7.37 7.37 0 011.977 2.767c.495 1.185.791 2.569.791 4.348v12.945c1.879.395 3.758.692 5.735 1.087V34.488c0-4.25-1.285-7.51-3.757-9.98-2.472-2.471-6.13-3.657-10.777-3.657-2.175 0-4.153.296-5.932.988-1.78.593-3.263 1.581-4.45 2.668-.296.297-.593.593-.791.89-.296-.297-.494-.593-.79-.89-1.187-1.186-2.67-2.075-4.45-2.668-1.779-.593-3.757-.988-5.932-.988-4.746 0-8.305 1.186-10.777 3.656-2.472 2.47-3.757 5.732-3.757 9.98v4.349c1.879.197 3.757.494 5.735.692v-6.621zM.692 34.883c2.076-.099 4.153-.296 6.229-.395.099-.395.198-.79.297-1.087.593-1.878 1.483-3.459 2.67-4.744 1.186-1.383 2.57-2.371 4.25-3.162 1.681-.79 3.56-1.186 5.735-1.186 1.879.1 3.46.297 4.746.593 1.285.297 2.472.593 3.46.989.99.395 1.78.691 2.571 1.185.791.396 1.483.791 2.274 1.087.099-.691.198-1.383.297-2.272.099-.89.197-1.483.296-2.076a61.5 61.5 0 00-7.02-1.877c-2.372-.395-4.646-.593-6.723-.593-2.67 0-5.24.395-7.712 1.285-2.274.889-4.35 2.075-6.13 3.755-1.78 1.68-3.262 3.656-4.35 6.028-.297.79-.593 1.58-.89 2.47zM36.978 33.5c1.878 0 3.856 0 5.833-.1v-.197c0-1.68.297-3.063.791-4.249.495-1.087 1.187-2.075 2.077-2.668.89-.692 1.78-1.186 2.867-1.482 1.087-.297 2.076-.396 3.164-.396 1.087 0 2.076.1 3.163.396 1.088.296 1.978.79 2.868 1.383.89.692 1.483 1.581 2.076 2.767.494 1.186.791 2.57.791 4.25v.296c1.879 0 3.856.099 5.833.099-.099-1.582-.395-3.064-.89-4.348-.692-1.68-1.581-3.064-2.867-4.151-1.285-1.186-2.768-2.075-4.548-2.668a19.434 19.434 0 00-6.13-.988c-4.845 0-8.503 1.186-11.073 3.557-2.373 2.174-3.659 5.04-3.955 8.499zm70.198 2.075c1.978.099 3.856.296 5.834.395V21.641h-5.834v13.934zm23.532 2.075c1.977.198 3.856.395 5.833.593V21.641h-5.833v16.01zm69.012 10.574c1.977.395 3.856.89 5.833 1.284-.099-.494-.099-.988-.099-1.482v-7.708h13.842v-2.371h-13.842v-5.633c0-1.384 0-2.57.099-3.558 0-.988.198-1.778.396-2.371.197-.593.593-1.087.988-1.483.495-.296 1.088-.593 1.879-.691h16.215v-2.767h-25.41v25.001c0 .593.099 1.186.099 1.779zm33.517 8.597c2.966.89 5.932 1.878 8.898 2.866H254v-2.668h-10.678c-1.088 0-2.076-.1-3.164-.396-1.088-.296-1.977-.79-2.867-1.482-.791-.692-1.483-1.581-2.077-2.668-.494-1.087-.79-2.57-.79-4.25v-26.68h-5.834v24.902c0 4.052 1.285 7.313 3.757 9.684.297.198.593.494.89.692z" fill="#009FE3"/><path fill-rule="evenodd" clip-rule="evenodd" d="M66.145 71.743c4.251 1.087 9.393 1.186 13.15.988a72.37 72.37 0 009.195-.89c2.472-.395 5.042-.889 7.514-1.58 1.483-.396 2.966-.89 4.449-1.384 1.681-.494 3.461-1.087 5.141-1.581 2.373-.692 5.241-1.581 7.811-1.581 2.571 0 5.142.494 7.613 1.284l1.78.593c2.768 1.087 5.339 2.47 7.811 4.052 4.746 2.866 10.085 6.62 15.621 7.807 4.153.889 7.811.098 11.469-1.78 8.306-4.347 14.139-9.683 18.786-14.427-4.746 7.016-9.788 13.044-17.401 16.997-4.252 2.273-8.701 3.064-13.447 2.075-11.37-2.371-20.071-13.637-32.133-13.637-2.175 0-4.845.79-6.921 1.384-3.263.988-6.427 2.075-9.69 2.964-10.974 3.064-27.98 4.348-37.966-1.383l.495-.79 5.339-7.116c.197-.296.494-.593.79-.988 1.286-1.58 12.656-16.107 14.14-17.985 1.482-1.779 2.866-3.755 4.448-5.633 1.483-1.976 2.967-3.755 4.35-5.632a329.36 329.36 0 014.054-5.139 138.642 138.642 0 003.263-4.15l-25.212.099v-2.965h33.221v2.372c-.396.395-1.088 1.186-1.978 2.371a175.266 175.266 0 00-3.56 4.447c-1.383 1.779-2.965 3.755-4.646 5.93-1.68 2.173-3.46 4.446-5.141 6.719-1.78 2.273-13.644 17.392-15.325 19.665l-.692.988-6.328 7.906z" fill="url(#paint0_linear)"/><path fill-rule="evenodd" clip-rule="evenodd" d="M56.455 76.684c.791.395 1.681.691 2.472 1.087 12.557 5.731 25.509 1.58 37.67-2.076 1.78-.494 3.559-1.087 5.339-1.58 2.472-.692 5.438-1.582 8.009-1.582 2.669 0 5.24.494 7.811 1.285l1.779.593c2.769 1.087 5.438 2.47 8.108 4.051 4.943 2.866 10.48 6.424 16.215 7.807 13.841 3.36 25.409-8.3 31.342-16.206-4.845 7.016-11.964 17.49-19.873 21.444-4.45 2.272-8.998 3.063-13.941 2.075-11.766-2.372-20.763-13.637-33.221-13.637-2.274 0-5.042.79-7.218 1.383-3.361.988-6.624 2.075-10.084 2.965-2.67.691-5.438 1.185-8.108 1.58-12.062 1.68-19.774.989-30.946-5.237l3.46-4.644 1.186.692z" fill="url(#paint1_linear)"/><path fill-rule="evenodd" clip-rule="evenodd" d="M40.34 9.091c.098 0 .098-.098.098-.098v-2.57c0-.099 0-.099-.099-.099h-.395s-.099 0-.099.1l-.099 1.284c-.099.692-.296.89-1.186.89h-2.175c-.594 0-.692-.1-.692-.89V4.743s0-.099.098-.099h1.582c.495 0 .594.1.594.396l.098.79c0 .1 0 .1.1.1h.395V2.964h-.396s-.099 0-.099.098l-.098.692c0 .297-.198.395-.594.395h-1.582s-.098 0-.098-.098V1.383c0-.691.098-.889.692-.889h1.977c.89 0 1.088.198 1.186.89l.1 1.284c0 .099 0 .099.098.099h.396s.099 0 .099-.099V.098c0-.098-.1-.098-.1-.098H33.42v.296s0 .1.098.1h.198c.692 0 .89 0 .89 1.284v6.522c0 .296-.099.395-.297.494l-.79.099v.396h6.821v-.1zm3.756.1l.1-.297c0-.1.098-.1.197-.1.297.199.89.495 1.879.495 1.186-.099 2.175-.79 2.175-1.976 0-1.087-1.088-1.581-2.076-1.878-.99-.296-1.582-.593-1.582-1.087s.395-.89 1.087-.89c.593 0 1.187.198 1.483.791.1.099.198.494.297.692 0 .099 0 .099.099.099h.197s.1 0 .1-.1V2.966h-.298l-.098.197c0 .099-.099.099-.198.099-.395-.198-.89-.395-1.582-.395-.988 0-1.977.494-1.977 1.68 0 1.087.89 1.482 1.878 1.778.89.297 1.78.495 1.78 1.186 0 .593-.494 1.087-1.384 1.087-.791 0-1.384-.197-1.78-.89-.099-.197-.198-.493-.297-.79 0-.098 0-.098-.098-.098H43.8s-.099 0-.099.098v2.174h.395v.1zm10.975-2.076c0-.198 0-.198-.197-.198h-.198c-.1 0-.1 0-.1.1v.394c0 .89-.296 1.186-.79 1.186-.593 0-.791-.593-.791-1.383V3.557h1.68s.1 0 .1-.098v-.396s0-.098-.1-.098h-1.68v-1.78c0-.098 0-.098-.099-.098h-.395c-.1 0-.1 0-.198.099l-.099.79c-.099.89-.297 1.087-1.088 1.087h-.296s-.1 0-.1.1v.394s0 .1.1.1h.989v3.458c0 .494 0 .79.098.988.198.692.693 1.186 1.582 1.186 1.088 0 1.483-.79 1.483-1.779v-.395h.1zm7.712.494h-.099c-.494.593-.988.89-1.78.89-1.087 0-1.878-.692-1.878-2.273 0-.1 0-.198.099-.198h3.757a.213.213 0 00.198-.198c0-1.68-.89-2.964-2.472-2.964-1.582 0-2.768 1.284-2.768 3.162s1.186 3.162 2.867 3.162c.989 0 1.68-.395 2.274-1.284v-.1l-.198-.197zm-3.56-2.075c-.197 0-.197 0-.197-.297.099-1.087.692-1.778 1.483-1.778.89 0 1.384.691 1.483 1.976 0 .099 0 .099-.099.099h-2.67zm2.473-4.348c.395-.198.494-.395.296-.692-.197-.296-.494-.395-.79-.099l-2.077 1.483c-.099 0-.099.098 0 .197.198.099.198.099.297.099l2.274-.988zm8.107 5.929c0-.198 0-.198-.198-.198h-.197c-.1 0-.1 0-.1.1v.394c0 .89-.296 1.186-.79 1.186-.594 0-.791-.593-.791-1.383V3.557h1.68s.1 0 .1-.098v-.396s0-.098-.1-.098h-1.68v-1.78c0-.098 0-.098-.1-.098h-.395c-.099 0-.099 0-.197.099l-.1.79c-.098.89-.296 1.087-1.087 1.087h-.296s-.1 0-.1.1v.394s0 .1.1.1h.988v3.458c0 .494 0 .79.1.988.197.692.691 1.186 1.581 1.186 1.088 0 1.483-.79 1.483-1.779v-.395h.099zm5.537 1.976c.099 0 .099 0 0 0v-.296s0-.099-.099-.099h-.297c-.494 0-.692-.198-.692-.988V2.965h-2.076v.295s0 .099.099.099h.198c.593 0 .79.099.79.988v3.755c0 .297-.098.395-.296.494l-.692.1v.394h3.065zm-.89-8.004a.78.78 0 00-.791-.79c-.396 0-.692.296-.692.79 0 .395.296.692.692.692.494 0 .791-.297.791-.692zm8.503 6.423h-.099c-.395.692-.989.988-1.78.988-1.087 0-1.878-.889-1.878-2.668 0-1.482.692-2.47 1.68-2.47.198 0 .495 0 .693.197.099 0 .099.1.099.1 0 .098-.198.296-.198.592 0 .396.296.692.692.692.395 0 .692-.296.692-.79 0-.791-.989-1.384-1.977-1.384-1.681 0-2.868 1.285-2.868 3.162 0 1.878 1.187 3.162 2.868 3.162.988 0 1.78-.494 2.274-1.482V7.51h-.198zm6.822-.79c0 .395-.099.593-.099.691-.198.495-.79 1.186-1.483 1.186-.593 0-.989-.395-.989-.988 0-1.186 1.088-1.482 2.373-1.581.198 0 .198 0 .198.198v.494zm2.274.988c0-.099 0-.099-.099-.099h-.198c-.098 0-.098 0-.098.099v.296c0 .396-.1.692-.396.692-.296 0-.395-.296-.395-.988V5.435c0-1.779-.791-2.47-2.274-2.47-1.088 0-2.077.592-2.077 1.383 0 .395.297.79.692.79a.676.676 0 00.693-.691c0-.297-.198-.494-.198-.692 0 0 0-.099.099-.099.197-.099.494-.197.692-.197.89 0 1.285.494 1.285 1.482v.296c0 .198 0 .198-.198.297-1.977.099-3.56.593-3.56 2.075 0 1.087.89 1.68 1.88 1.68.89 0 1.482-.395 1.977-1.186.099.79.593 1.186 1.186 1.186.692 0 .99-.593.99-1.285v-.296zm16.017-.099h-.099c-.494.593-.988.89-1.779.89-1.088 0-1.879-.692-1.879-2.273 0-.1 0-.198.099-.198h3.757a.213.213 0 00.198-.198c0-1.68-.89-2.964-2.472-2.964-1.582 0-2.768 1.284-2.768 3.162s1.186 3.162 2.867 3.162c.989 0 1.681-.395 2.274-1.284v-.1l-.198-.197zm-3.559-2.075c-.198 0-.198 0-.198-.297.099-1.087.692-1.778 1.483-1.778.89 0 1.384.691 1.483 1.976 0 .099 0 .099-.099.099h-2.669zm18.884 3.557c1.978 0 3.164-.889 3.164-2.569 0-1.186-.791-2.075-2.175-2.372 1.088-.395 1.582-1.185 1.582-2.075 0-1.383-1.285-2.075-2.966-2.075h-3.461v.296s0 .1.099.1h.198c.692.098.89.098.89 1.284v6.522c0 .296-.099.395-.297.494l-.791.099v.396h3.757v-.1zm-.89-.593c-.593 0-.692-.197-.692-.889V4.546s0-.1.099-.1h1.088c1.582 0 2.373.594 2.373 2.076 0 1.384-.791 1.878-1.978 1.878h-.89v.098zm-.593-4.644c-.099 0-.099 0 0 0l-.099-2.47c0-.692.099-.89.692-.89h.396c1.087 0 1.878.198 1.878 1.482 0 1.285-.593 1.878-1.878 1.878h-.989zm12.755 3.755h-.099c-.495.593-.989.89-1.78.89-1.088 0-1.879-.692-1.879-2.273 0-.1 0-.198.099-.198h3.757a.213.213 0 00.198-.198c0-1.68-.89-2.964-2.472-2.964-1.582 0-2.768 1.284-2.768 3.162s1.186 3.162 2.867 3.162c.989 0 1.681-.395 2.274-1.284v-.1l-.197-.197zm-3.56-2.075c-.198 0-.198 0-.198-.297.099-1.087.693-1.778 1.483-1.778.89 0 1.385.691 1.484 1.976 0 .099 0 .099-.099.099h-2.67zm17.204 3.557s.099 0 0 0v-.296s0-.099-.099-.099h-.198c-.593 0-.791-.198-.791-.988V5.435a3.87 3.87 0 00-.198-1.285c-.296-.889-.889-1.284-1.779-1.284-.791 0-1.483.395-2.077 1.284-.296-.889-.889-1.284-1.779-1.284-.791 0-1.483.395-1.978 1.186v-.989h-1.878v.297s0 .099.099.099h.197c.594 0 .791.098.791.988v3.755c0 .296-.099.395-.296.494l-.593.099v.396h2.966v-.396s0-.099-.099-.099h-.198c-.593 0-.692-.198-.692-.988V5.435c0-.395.099-.692.198-.988.296-.593.89-.988 1.384-.988.791 0 1.087.593 1.087 1.778v2.866c0 .297-.098.395-.296.494l-.495.1v.394h2.868v-.296s0-.099-.099-.099h-.198c-.593 0-.791-.198-.791-.988V5.336c0-.296.099-.593.198-.89.297-.592.89-.987 1.384-.987.791 0 1.088.593 1.088 1.778v2.866c0 .297-.099.395-.297.494l-.494.1v.394h3.065zm5.932-3.755l.099-.593s0-.099-.099-.099h-3.164s-.099 0-.099.1v.493s0 .1.099.1h3.164zm8.107 2.273h-.098c-.495.593-.989.89-1.78.89-1.088 0-1.879-.692-1.879-2.273 0-.1 0-.198.099-.198h3.757a.213.213 0 00.198-.198c0-1.68-.89-2.964-2.472-2.964-1.582 0-2.768 1.284-2.768 3.162s1.186 3.162 2.867 3.162c.989 0 1.681-.395 2.274-1.284v-.1l-.198-.197zm-3.559-2.075c-.198 0-.198 0-.198-.297.099-1.087.692-1.778 1.483-1.778.89 0 1.385.691 1.483 1.976 0 .099 0 .099-.098.099h-2.67zm7.317 3.656l.098-.296c0-.1.099-.1.198-.1.297.199.89.495 1.879.495 1.186 0 2.175-.692 2.175-1.878 0-1.087-1.088-1.58-2.076-1.877-.989-.297-1.582-.593-1.582-1.087s.395-.89 1.087-.89c.593 0 1.187.198 1.483.791.099.198.198.494.198.692 0 .099 0 .099.099.099h.198s.099 0 .099-.1V2.966h-.297l-.099.197c0 .099-.099.099-.198.099-.395-.198-.89-.395-1.582-.395-.988 0-1.977.494-1.977 1.68 0 1.087.89 1.482 1.878 1.778.89.297 1.78.495 1.78 1.186 0 .593-.494 1.087-1.384 1.087-.791 0-1.384-.197-1.78-.89-.099-.197-.197-.493-.296-.79 0-.098 0-.098-.099-.098h-.198s-.099 0-.099.098v2.174h.495v.1zm10.974-2.075c0-.198 0-.198-.197-.198h-.198c-.099 0-.099 0-.099.1v.394c0 .89-.297 1.186-.791 1.186-.593 0-.791-.593-.791-1.383V3.557h1.681s.099 0 .099-.098v-.396s0-.098-.099-.098h-1.681v-1.78c0-.098 0-.098-.099-.098h-.395c-.099 0-.099 0-.198.099l-.099.79c-.099.89-.297 1.087-1.088 1.087h-.296s-.099 0-.099.1v.394s0 .1.099.1h.989v3.458c0 .494-.001.79.098.988.198.692.692 1.186 1.582 1.186 1.088 0 1.483-.79 1.483-1.779v-.395h.099zm6.526-.395c0 .395-.099.593-.099.691-.198.495-.791 1.186-1.483 1.186-.593 0-.989-.395-.989-.988 0-1.186 1.088-1.482 2.373-1.581.198 0 .198 0 .198.198v.494zm2.274.988c0-.099 0-.099-.099-.099h-.198c-.099 0-.099 0-.099.099v.296c0 .396-.099.692-.395.692-.297 0-.396-.296-.396-.988V5.435c0-1.779-.791-2.47-2.274-2.47-1.087 0-2.076.592-2.076 1.383 0 .395.297.79.692.79a.675.675 0 00.692-.691c0-.297-.198-.494-.198-.692 0 0 0-.099.099-.099.198-.099.495-.197.692-.197.89 0 1.286.494 1.286 1.482v.296c0 .198 0 .198-.198.297-1.977.099-3.559.593-3.559 2.075 0 1.087.889 1.68 1.878 1.68.89 0 1.483-.395 1.978-1.186.098.79.593 1.186 1.186 1.186.692 0 .989-.593.989-1.285v-.296zm5.438 1.383v-.296s0-.099-.099-.099h-.198c-.692-.099-.791-.099-.791-1.186V5.732c0-1.483.89-2.273 1.582-2.273.099 0 .297 0 .297.098 0 .1-.099.198-.099.396 0 .296.296.593.692.593.395 0 .692-.297.692-.79 0-.693-.692-.99-1.186-.99-.693 0-1.385.396-1.879 1.187V2.865h-1.879v.298s0 .099.099.099h.198c.593 0 .791.099.791.988v3.755c0 .297-.099.396-.297.494l-.593.1v.395h2.67v.098z" fill="#264597"/><defs><linearGradient id="paint0_linear" x1="105.259" y1="55.226" x2="133.52" y2="83.502" gradientUnits="userSpaceOnUse"><stop stop-color="#264597"/><stop offset="1" stop-color="#009FE3"/></linearGradient><linearGradient id="paint1_linear" x1="103.255" y1="64.66" x2="156.673" y2="120.005" gradientUnits="userSpaceOnUse"><stop stop-color="#009FE3"/><stop offset="1" stop-color="#fff"/></linearGradient></defs></svg>