<svg width="160" height="60" fill="none" xmlns="http://www.w3.org/2000/svg"><path fill-rule="evenodd" clip-rule="evenodd" d="M93.048 20.74c0-1.06.187-1.993.498-2.74a4.648 4.648 0 011.246-1.745c.498-.436 1.12-.747 1.744-.934.622-.187 1.308-.249 1.93-.249.623 0 1.308.062 1.931.25a4.295 4.295 0 011.744.933c.498.436.934.997 1.246 1.744.311.748.498 1.682.498 2.74v.063c0 .311-.063.623-.063.934v15.82h3.675v-15.82c0-.311 0-.623-.062-.934v-.062c0-1.06.187-1.993.498-2.74a4.636 4.636 0 011.246-1.745c.498-.436 1.121-.747 1.744-.934a7.144 7.144 0 011.93-.249c.623 0 1.308.062 1.931.25.623.186 1.246.497 1.744.933.498.436.934.997 1.245 1.744.312.748.499 1.62.499 2.74v16.817h3.612v-15.82c0-2.678-.81-4.733-2.367-6.29-1.557-1.557-3.861-2.305-6.788-2.305-1.37 0-2.616.187-3.737.623-1.121.374-2.055.997-2.803 1.682-.187.187-.374.373-.498.56-.187-.187-.311-.373-.498-.56-.748-.748-1.682-1.308-2.803-1.682a11.743 11.743 0 00-3.737-.623c-2.99 0-5.231.748-6.788 2.305-1.557 1.557-2.367 3.612-2.367 6.29v15.82h3.612V20.74h-.062zM160 35.998h-6.726a7.285 7.285 0 01-1.993-.249c-.685-.187-1.246-.498-1.806-.934-.499-.436-.935-.996-1.308-1.681-.312-.686-.499-1.62-.499-2.679V13.577h-3.674v15.695c0 2.554.809 4.609 2.366 6.104 1.557 1.494 3.862 2.242 6.851 2.242h6.727v-1.62H160zm-18.248-.186h-6.727a7.289 7.289 0 01-1.993-.25c-.685-.186-1.245-.498-1.806-.934-.498-.436-.934-.996-1.308-1.681-.311-.685-.498-1.62-.498-2.678V25.41h8.719v-1.495h-8.719v-3.55c0-.872 0-1.62.062-2.242 0-.623.125-1.121.249-1.495.125-.374.374-.685.623-.934.312-.187.685-.374 1.184-.436h10.214v-1.744h-16.007v15.757c0 2.554.81 4.609 2.367 6.104 1.557 1.494 3.862 2.242 6.851 2.242h6.726v-1.806h.063zm-59.417-5.668c0 1.059-.186 1.93-.498 2.678-.311.685-.747 1.308-1.308 1.682-.56.436-1.12.747-1.806.934a7.285 7.285 0 01-1.993.249 7.284 7.284 0 01-1.993-.25c-.685-.186-1.245-.497-1.806-.871-.56-.436-.934-.997-1.308-1.744-.311-.747-.498-1.62-.498-2.678V13.639H67.45v15.57c0 1.309.187 2.492.623 3.488.436 1.06.997 1.931 1.806 2.616a7.753 7.753 0 002.865 1.682c1.121.374 2.43.623 3.862.623 3.052 0 5.356-.748 6.975-2.242 1.62-1.495 2.43-3.55 2.43-6.166V13.64h-3.675v16.504zm-55.367 0v-9.155c0-1.06.186-1.931.498-2.678.311-.686.747-1.308 1.308-1.682.56-.436 1.12-.747 1.806-.934a7.289 7.289 0 011.993-.25c.685 0 1.308.063 1.993.25s1.246.498 1.806.872c.56.436.934.996 1.308 1.744.311.747.498 1.619.498 2.678v9.155c0 1.059-.187 1.993-.498 2.678-.311.747-.747 1.308-1.308 1.744-.56.436-1.12.747-1.806.872a7.285 7.285 0 01-1.993.249 7.285 7.285 0 01-1.993-.25c-.685-.186-1.246-.497-1.806-.933-.56-.436-.934-.997-1.308-1.682-.312-.685-.498-1.62-.498-2.678zm14.823-8.159c0-1.308-.187-2.491-.623-3.488-.436-1.058-.997-1.93-1.806-2.615a7.752 7.752 0 00-2.865-1.682 12.236 12.236 0 00-3.862-.623c-3.051 0-5.356.748-6.975 2.242-1.62 1.495-2.43 3.55-2.43 6.166v7.225c0 2.616.81 4.67 2.43 6.166 1.62 1.494 3.924 2.242 6.975 2.242 1.433 0 2.678-.187 3.862-.623 1.12-.374 2.117-.934 2.865-1.682.81-.747 1.37-1.619 1.806-2.616.436-1.058.623-2.18.623-3.487v-7.225zM20.8 33.195a12.534 12.534 0 01-3.175 1.558 10.58 10.58 0 01-3.364.56c-1.557 0-2.99-.249-4.235-.747s-2.366-1.246-3.238-2.18c-.872-.934-1.557-2.055-2.056-3.3-.498-1.309-.747-2.679-.747-4.236 0-1.37.187-2.616.623-3.737.373-1.183.934-2.18 1.681-2.99.748-.871 1.62-1.494 2.678-1.992 1.06-.498 2.243-.748 3.613-.748 1.183.063 2.18.187 2.99.374.809.187 1.556.374 2.18.623.622.249 1.12.436 1.618.747.499.25.935.498 1.433.685.062-.436.124-.872.187-1.432.062-.56.124-.934.187-1.308a38.744 38.744 0 00-4.422-1.183 26 26 0 00-4.236-.374c-1.681 0-3.3.25-4.857.81-1.495.498-2.803 1.245-3.924 2.304a12.129 12.129 0 00-2.74 3.8C.31 21.922 0 23.604 0 25.534c0 1.93.374 3.675 1.059 5.17a11.384 11.384 0 002.802 3.799 12.394 12.394 0 004.173 2.304c1.62.498 3.301.81 5.107.81.498 0 1.121-.063 1.744-.125.623-.124 1.308-.249 1.993-.373a24.45 24.45 0 001.993-.623c.623-.25 1.246-.499 1.744-.81l.187-2.491z" fill="#fff"/><path fill-rule="evenodd" clip-rule="evenodd" d="M93.048 20.74c0-1.06.187-1.993.498-2.74a4.647 4.647 0 011.246-1.745c.498-.436 1.12-.747 1.744-.934.622-.187 1.308-.249 1.93-.249.623 0 1.308.062 1.931.25a4.295 4.295 0 011.744.933c.498.436.934.997 1.246 1.744.311.748.498 1.682.498 2.74v.063c0 .311-.062.623-.062.934v4.671c1.183.187 2.428.374 3.612.56v-5.23c0-.312 0-.624-.062-.935v-.062c0-1.06.186-1.993.498-2.74a4.645 4.645 0 011.245-1.745c.499-.436 1.121-.747 1.744-.934a7.151 7.151 0 011.931-.249c.623 0 1.308.062 1.931.25.622.186 1.245.497 1.744.933.498.436.934.997 1.245 1.744.312.748.498 1.62.498 2.74v8.16c1.184.248 2.367.435 3.613.684v-7.847c0-2.678-.81-4.733-2.367-6.29-1.557-1.557-3.861-2.305-6.789-2.305-1.37 0-2.615.187-3.736.623-1.122.374-2.056.997-2.803 1.682-.187.187-.374.373-.498.56-.187-.187-.312-.373-.499-.56-.747-.748-1.681-1.308-2.802-1.682a11.743 11.743 0 00-3.737-.623c-2.99 0-5.232.748-6.789 2.305-1.557 1.557-2.366 3.612-2.366 6.29v2.74c1.183.125 2.366.312 3.612.436V20.74zM.436 21.985c1.308-.062 2.616-.187 3.924-.249.062-.249.124-.498.187-.685.373-1.183.934-2.18 1.681-2.99.747-.871 1.62-1.494 2.678-1.992 1.059-.499 2.242-.748 3.612-.748 1.184.062 2.18.187 2.99.374s1.557.373 2.18.623c.623.249 1.12.436 1.62.747.497.25.933.498 1.432.685.062-.436.124-.872.186-1.432.063-.56.125-.935.187-1.308a38.739 38.739 0 00-4.422-1.184 26.011 26.011 0 00-4.235-.373c-1.681 0-3.3.249-4.858.81-1.432.56-2.74 1.307-3.861 2.366a12.129 12.129 0 00-2.74 3.8c-.187.497-.374.996-.561 1.556zm22.857-.872c1.184 0 2.43 0 3.675-.062v-.125c0-1.058.186-1.93.498-2.678.311-.685.747-1.308 1.308-1.681.56-.436 1.12-.748 1.806-.934a7.289 7.289 0 011.993-.25c.685 0 1.308.063 1.993.25.685.186 1.246.498 1.806.872.56.435.934.996 1.308 1.743.311.748.498 1.62.498 2.678v.187c1.184 0 2.43.063 3.675.063-.062-.997-.25-1.931-.56-2.74-.437-1.06-.997-1.931-1.807-2.617a7.753 7.753 0 00-2.865-1.681 12.236 12.236 0 00-3.861-.623c-3.052 0-5.356.747-6.976 2.242-1.494 1.37-2.304 3.176-2.49 5.356zm44.22 1.308c1.245.063 2.429.187 3.674.25V13.64h-3.674v8.781zm14.822 1.308c1.246.125 2.43.25 3.675.374V13.639h-3.675v10.09zm43.473 6.664c1.245.25 2.429.56 3.674.81-.062-.312-.062-.623-.062-.934V25.41h8.719v-1.495h-8.719v-3.55c0-.872 0-1.62.062-2.242 0-.623.125-1.121.249-1.495.125-.374.374-.685.623-.934.312-.187.685-.374 1.184-.436h10.214v-1.744h-16.007v15.757c0 .374.063.748.063 1.121zm21.113 5.419c1.868.56 3.737 1.183 5.605 1.806H160v-1.682h-6.726a7.285 7.285 0 01-1.993-.249c-.685-.187-1.246-.498-1.806-.934-.499-.436-.935-.997-1.308-1.682-.312-.685-.499-1.62-.499-2.678V13.577h-3.674v15.695c0 2.554.809 4.609 2.366 6.104.187.124.374.311.561.436z" fill="#fff"/><path fill-rule="evenodd" clip-rule="evenodd" d="M41.666 45.216c2.678.685 5.917.747 8.283.623a45.786 45.786 0 005.793-.56c1.557-.25 3.176-.561 4.733-.997.934-.25 1.868-.56 2.803-.872 1.058-.311 2.18-.685 3.238-.997 1.495-.436 3.301-.996 4.92-.996 1.62 0 3.239.311 4.796.81l1.121.373c1.744.685 3.363 1.557 4.92 2.554 2.99 1.806 6.353 4.173 9.84 4.92 2.617.56 4.92.062 7.225-1.121 5.232-2.74 8.906-6.104 11.834-9.093-2.99 4.422-6.166 8.221-10.962 10.712-2.678 1.433-5.48 1.93-8.47 1.308-7.162-1.495-12.643-8.595-20.241-8.595-1.37 0-3.052.499-4.36.872-2.055.623-4.048 1.308-6.104 1.869-6.913 1.93-17.625 2.74-23.915-.872l.31-.498 3.364-4.485c.125-.187.312-.373.498-.623.81-.996 7.972-10.151 8.907-11.335.934-1.12 1.806-2.366 2.802-3.55.934-1.245 1.869-2.366 2.74-3.55.873-1.12 1.744-2.242 2.554-3.238a87.334 87.334 0 002.055-2.616l-15.881.062v-1.868h20.926v1.495c-.249.249-.685.747-1.245 1.494a109.35 109.35 0 00-2.243 2.803c-.872 1.12-1.868 2.366-2.927 3.737-1.059 1.37-2.18 2.802-3.238 4.235-1.121 1.432-8.595 10.961-9.654 12.394l-.436.623-3.986 4.982z" fill="#fff"/><path fill-rule="evenodd" clip-rule="evenodd" d="M35.563 48.33c.498.25 1.058.436 1.556.685 7.91 3.612 16.069.997 23.73-1.308 1.12-.311 2.242-.685 3.363-.996 1.557-.436 3.425-.997 5.044-.997 1.682 0 3.301.312 4.92.81l1.122.374c1.744.685 3.425 1.557 5.107 2.553 3.114 1.806 6.602 4.048 10.214 4.92 8.72 2.118 16.006-5.231 19.743-10.214-3.052 4.422-7.536 11.024-12.518 13.515-2.803 1.433-5.668 1.931-8.782 1.308-7.412-1.495-13.08-8.595-20.927-8.595-1.432 0-3.176.499-4.546.872-2.118.623-4.173 1.308-6.353 1.869-1.681.436-3.425.747-5.107.996-7.598 1.059-12.456.623-19.494-3.3l2.18-2.928.748.436zM25.41 5.73c.063 0 .063-.062.063-.062v-1.62c0-.062 0-.062-.062-.062h-.25s-.062 0-.062.062l-.062.81c-.062.436-.187.56-.747.56h-1.37c-.374 0-.437-.062-.437-.56V2.989s0-.062.063-.062h.996c.312 0 .374.062.374.25l.062.498c0 .062 0 .062.063.062h.249V1.868h-.249s-.063 0-.063.063l-.062.436c0 .187-.125.249-.374.249h-.996s-.063 0-.063-.062V.872c0-.436.063-.56.436-.56h1.246c.56 0 .685.124.748.56l.062.81c0 .062 0 .062.062.062h.25s.061 0 .061-.062V.062c0-.062-.062-.062-.062-.062h-4.235v.187s0 .062.062.062h.125c.436 0 .56 0 .56.81v4.11c0 .187-.062.25-.186.312l-.499.062v.249h4.298V5.73zm2.367.062l.063-.187c0-.062.062-.062.124-.062.187.125.56.311 1.184.311.747-.062 1.37-.498 1.37-1.245 0-.685-.685-.997-1.308-1.184-.623-.186-.997-.373-.997-.685 0-.311.25-.56.685-.56.374 0 .748.124.935.498.062.062.124.311.187.436 0 .062 0 .062.062.062h.124s.063 0 .063-.062V1.868h-.187l-.063.125c0 .062-.062.062-.124.062a2.131 2.131 0 00-.997-.249c-.622 0-1.245.312-1.245 1.059 0 .685.56.934 1.183 1.121.56.187 1.121.311 1.121.747 0 .374-.311.685-.872.685-.498 0-.872-.124-1.12-.56-.063-.125-.125-.311-.188-.498 0-.063 0-.063-.062-.063h-.125s-.062 0-.062.063v1.37h.25v.062zm6.914-1.308c0-.124 0-.124-.125-.124h-.125c-.062 0-.062 0-.062.062v.25c0 .56-.187.746-.498.746-.374 0-.498-.373-.498-.871V2.242h1.058s.063 0 .063-.062v-.25s0-.062-.063-.062h-1.058V.748c0-.063 0-.063-.063-.063h-.249c-.062 0-.062 0-.124.062l-.063.499c-.062.56-.186.685-.685.685h-.186s-.063 0-.063.062v.25s0 .061.063.061h.622v2.18c0 .312 0 .498.063.623.124.436.435.747.996.747.685 0 .934-.498.934-1.12v-.25h.063zm4.857.312h-.062c-.311.373-.623.56-1.12.56-.686 0-1.184-.436-1.184-1.432 0-.063 0-.125.062-.125h2.367a.134.134 0 00.124-.124c0-1.06-.56-1.869-1.557-1.869-.996 0-1.744.81-1.744 1.993s.748 1.993 1.807 1.993c.622 0 1.058-.249 1.432-.81V4.92l-.125-.124zm-2.242-1.308c-.124 0-.124 0-.124-.187.062-.685.436-1.121.934-1.121.56 0 .872.436.934 1.245 0 .063 0 .063-.062.063h-1.682zm1.557-2.74c.25-.125.312-.25.187-.437-.124-.186-.311-.249-.498-.062l-1.308.934c-.062 0-.062.063 0 .125.125.062.125.062.187.062l1.432-.623zm5.108 3.736c0-.124 0-.124-.125-.124h-.125c-.062 0-.062 0-.062.062v.25c0 .56-.187.746-.498.746-.374 0-.498-.373-.498-.871V2.242h1.058s.063 0 .063-.062v-.25s0-.062-.063-.062h-1.058V.748c0-.063 0-.063-.063-.063h-.249c-.062 0-.062 0-.124.062l-.063.499c-.062.56-.187.685-.685.685h-.187s-.062 0-.062.062v.25s0 .061.062.061h.623v2.18c0 .312 0 .498.063.623.124.436.435.747.996.747.685 0 .934-.498.934-1.12v-.25h.063zm3.487 1.246c.063 0 .063 0 0 0v-.187s0-.062-.062-.062h-.187c-.311 0-.436-.125-.436-.623v-2.99h-1.308v.187s0 .063.063.063h.124c.374 0 .498.062.498.622v2.367c0 .187-.062.25-.187.311l-.435.063v.249h1.93zm-.56-5.045a.491.491 0 00-.499-.498c-.249 0-.436.187-.436.498 0 .25.187.436.436.436.312 0 .499-.187.499-.436zm5.356 4.048h-.062c-.25.436-.623.623-1.121.623-.686 0-1.184-.56-1.184-1.681 0-.935.436-1.557 1.059-1.557.125 0 .311 0 .436.124.062 0 .062.062.062.062 0 .063-.124.187-.124.374 0 .25.187.436.436.436s.436-.187.436-.498c0-.498-.623-.872-1.246-.872-1.059 0-1.806.81-1.806 1.993s.747 1.993 1.806 1.993c.623 0 1.121-.312 1.432-.934v-.063h-.124zm4.297-.498c0 .25-.062.374-.062.436-.125.311-.498.747-.934.747-.374 0-.623-.249-.623-.622 0-.748.685-.935 1.495-.997.124 0 .124 0 .124.125v.311zm1.433.623c0-.062 0-.062-.063-.062h-.124c-.062 0-.062 0-.062.062v.187c0 .249-.063.436-.25.436-.186 0-.249-.187-.249-.623V3.425c0-1.12-.498-1.557-1.432-1.557-.685 0-1.308.374-1.308.872 0 .25.187.499.436.499s.436-.187.436-.436c0-.187-.125-.312-.125-.436 0 0 0-.063.063-.063.124-.062.311-.124.436-.124.56 0 .81.311.81.934v.187c0 .124 0 .124-.125.187-1.246.062-2.242.373-2.242 1.308 0 .685.56 1.058 1.183 1.058.56 0 .934-.249 1.245-.747.063.498.374.747.748.747.436 0 .623-.373.623-.81v-.186zm10.09-.062h-.063c-.311.373-.623.56-1.121.56-.685 0-1.183-.436-1.183-1.432 0-.063 0-.125.062-.125h2.366a.134.134 0 00.125-.124c0-1.06-.56-1.869-1.557-1.869-.996 0-1.744.81-1.744 1.993s.748 1.993 1.806 1.993c.623 0 1.06-.249 1.433-.81V4.92l-.125-.124zM65.83 3.488c-.124 0-.124 0-.124-.187.062-.685.436-1.121.934-1.121.56 0 .872.436.934 1.245 0 .063 0 .063-.062.063H65.83zM77.727 5.73c1.245 0 1.993-.56 1.993-1.62 0-.747-.498-1.307-1.37-1.494.685-.25.996-.748.996-1.308 0-.872-.81-1.308-1.868-1.308h-2.18v.187s0 .062.062.062h.125c.436.062.56.062.56.81v4.11c0 .187-.062.25-.187.312l-.498.062v.249h2.367V5.73zm-.56-.374c-.374 0-.437-.124-.437-.56V2.865s0-.062.063-.062h.685c.996 0 1.494.373 1.494 1.308 0 .871-.498 1.183-1.245 1.183h-.56v.062zm-.374-2.927c-.063 0-.063 0 0 0L76.73.872c0-.436.063-.56.436-.56h.25c.684 0 1.183.124 1.183.934s-.374 1.183-1.184 1.183h-.622zm8.034 2.367h-.063c-.31.373-.622.56-1.12.56-.686 0-1.184-.436-1.184-1.432 0-.063 0-.125.062-.125h2.367a.134.134 0 00.125-.124c0-1.06-.56-1.869-1.557-1.869-.997 0-1.744.81-1.744 1.993s.747 1.993 1.806 1.993c.623 0 1.059-.249 1.432-.81V4.92l-.124-.124zm-2.242-1.308c-.125 0-.125 0-.125-.187.062-.685.436-1.121.934-1.121.56 0 .872.436.935 1.245 0 .063 0 .063-.063.063h-1.681zM93.422 5.73s.062 0 0 0v-.187s0-.062-.063-.062h-.124c-.374 0-.498-.125-.498-.623V3.425a2.44 2.44 0 00-.125-.81c-.187-.56-.56-.809-1.121-.809-.498 0-.934.25-1.308.81-.187-.56-.56-.81-1.121-.81-.498 0-.934.25-1.246.748V1.93h-1.183v.187s0 .062.062.062h.125c.374 0 .498.062.498.623v2.366c0 .187-.062.25-.187.312l-.374.062v.249h1.869v-.249s0-.062-.062-.062h-.125c-.374 0-.436-.125-.436-.623V3.425c0-.249.062-.436.125-.622.187-.374.56-.623.872-.623.498 0 .685.374.685 1.12v1.807c0 .187-.063.25-.187.311l-.312.063v.249h1.807v-.187s0-.062-.063-.062h-.124c-.374 0-.498-.125-.498-.623V3.363c0-.187.062-.374.124-.56.187-.374.56-.623.872-.623.498 0 .685.374.685 1.12v1.807c0 .187-.062.25-.187.311l-.311.063v.249h1.93zm3.737-2.367l.062-.374s0-.062-.063-.062h-1.993s-.062 0-.062.062v.312s0 .062.063.062h1.993zm5.107 1.433h-.063c-.311.373-.623.56-1.121.56-.685 0-1.183-.436-1.183-1.432 0-.063 0-.125.062-.125h2.367a.133.133 0 00.124-.124c0-1.06-.56-1.869-1.557-1.869-.996 0-1.743.81-1.743 1.993s.747 1.993 1.806 1.993c.622 0 1.058-.249 1.432-.81V4.92l-.124-.124zm-2.243-1.308c-.124 0-.124 0-.124-.187.062-.685.436-1.121.934-1.121.561 0 .872.436.934 1.245 0 .063 0 .063-.062.063h-1.682zm4.609 2.304l.062-.187c0-.062.063-.062.125-.062.187.125.561.311 1.183.311.748 0 1.371-.436 1.371-1.183 0-.685-.686-.996-1.308-1.183-.623-.187-.997-.374-.997-.685 0-.312.249-.56.685-.56.374 0 .748.124.934.497.063.125.125.312.125.436 0 .063 0 .063.062.063h.125s.062 0 .062-.063V1.868h-.187l-.062.125c0 .062-.062.062-.125.062a2.12 2.12 0 00-.996-.249c-.623 0-1.246.312-1.246 1.059 0 .685.561.934 1.184 1.121.56.187 1.121.311 1.121.747 0 .374-.312.685-.872.685-.498 0-.872-.124-1.121-.56a4.113 4.113 0 01-.187-.498c0-.063 0-.063-.062-.063h-.125s-.062 0-.062.063v1.37h.311v.062zm6.913-1.308c0-.124 0-.124-.124-.124h-.125c-.062 0-.062 0-.062.062v.25c0 .56-.187.746-.498.746-.374 0-.499-.373-.499-.871V2.242h1.059s.063 0 .063-.062v-.25s0-.062-.063-.062h-1.059V.748c0-.063 0-.063-.062-.063h-.249c-.062 0-.062 0-.124.062l-.063.499c-.062.56-.187.685-.685.685h-.187s-.062 0-.062.062v.25s0 .061.062.061h.623v2.18c0 .312 0 .498.062.623.125.436.436.747.997.747.685 0 .934-.498.934-1.12v-.25h.062zm4.111-.249c0 .25-.062.374-.062.436-.125.311-.499.747-.935.747-.373 0-.622-.249-.622-.622 0-.748.685-.935 1.494-.997.125 0 .125 0 .125.125v.311zm1.432.623c0-.062 0-.062-.062-.062h-.124c-.063 0-.063 0-.063.062v.187c0 .249-.062.436-.249.436s-.249-.187-.249-.623V3.425c0-1.12-.498-1.557-1.432-1.557-.686 0-1.308.374-1.308.872 0 .25.187.499.436.499a.426.426 0 00.436-.436c0-.187-.125-.312-.125-.436 0 0 0-.063.062-.063a1.16 1.16 0 01.436-.124c.561 0 .81.311.81.934v.187c0 .124 0 .124-.125.187-1.245.062-2.242.373-2.242 1.308 0 .685.561 1.058 1.184 1.058.56 0 .934-.249 1.245-.747.063.498.374.747.748.747.436 0 .622-.373.622-.81v-.186zm3.426.872v-.187s0-.062-.062-.062h-.125c-.436-.063-.498-.063-.498-.748v-1.12c0-.935.56-1.433.996-1.433.063 0 .187 0 .187.062s-.062.125-.062.25c0 .186.187.373.436.373s.436-.187.436-.498c0-.436-.436-.623-.748-.623-.436 0-.872.249-1.183.747v-.685h-1.183v.187s0 .062.062.062h.125c.373 0 .498.063.498.623v2.367c0 .187-.062.249-.187.311l-.374.062v.25h1.682v.062z" fill="#fff"/></svg>