<svg width="70" height="70" fill="none" xmlns="http://www.w3.org/2000/svg"><path d="M39.345 25.799a1 1 0 00.185-.017 16.866 16.866 0 002.124-.531 1.026 1.026 0 00.665-1.293 1.029 1.029 0 00-1.293-.666c-.61.196-1.233.351-1.864.466a1.028 1.028 0 00.183 2.04zm4.878-1.766c.18 0 .357-.048.512-.138 1.194-.687 1.847-1.289 1.874-1.314a1.027 1.027 0 00.055-1.45 1.03 1.03 0 00-1.452-.06c-.005.005-.529.48-1.503 1.042a1.03 1.03 0 00.514 1.92zM34.172 26.06c.19-.003.38-.01.57-.02h.706c.25.014.503.02.751.023h.01a1.029 1.029 0 00.009-2.057 16.792 16.792 0 01-.745-.022h-.757a16.32 16.32 0 01-.583.02 1.029 1.029 0 00.039 2.056zm-10.421-3.33c.29.242.918.727 1.864 1.256a1.025 1.025 0 001.497-.637 1.028 1.028 0 00-.493-1.158c-.83-.464-1.36-.882-1.55-1.04a1.028 1.028 0 00-1.318 1.579zm4.959 2.576c.698.215 1.41.384 2.13.508a1.028 1.028 0 00.346-2.027 14.916 14.916 0 01-1.87-.447 1.029 1.029 0 10-.606 1.966zm4.808 6.501a1.029 1.029 0 001.029-1.029.549.549 0 011.097 0 1.028 1.028 0 102.056 0 2.608 2.608 0 00-2.605-2.605 2.608 2.608 0 00-2.605 2.605 1.028 1.028 0 001.028 1.029zm.366-11.714v.728a1.027 1.027 0 102.057 0v-.728a1.025 1.025 0 001.396.016c.42-.38.453-1.031.072-1.452l-1.732-1.915a1.027 1.027 0 00-.762-.339 1.03 1.03 0 00-.762.338l-1.736 1.915a1.028 1.028 0 001.467 1.437z" fill="#333"/><path d="M58.997 38.413a1.098 1.098 0 00-.022-.118 35.564 35.564 0 00-1.138-3.645c-.85-2.282-1.901-4.475-2.868-6.705-1.68-3.88-3.334-8.044-3.475-12.52a31.699 31.699 0 01.103-3.63 1.029 1.029 0 00-2.05-.172 33.712 33.712 0 00-.109 3.867c.153 4.839 1.885 9.212 3.646 13.276l.302.692c-3.03 1.236-7.15 2.357-12.003 3.261a33.7 33.7 0 01-12.569 0c-4.856-.905-8.977-2.027-12.01-3.264.102-.23.203-.46.302-.69 1.76-4.063 3.493-8.436 3.645-13.275.135-4.257-.601-8.945-2.315-14.752a1.028 1.028 0 00-1.973.582c1.65 5.591 2.36 10.074 2.233 14.105-.142 4.477-1.796 8.642-3.478 12.524-.963 2.225-2.008 4.418-2.858 6.7a34.83 34.83 0 00-1.108 3.538l-.03.108a.058.058 0 00-.001.01c-2.363 9.29-.937 19.505 4.323 31.091a1.03 1.03 0 101.873-.85c-4.884-10.758-6.342-20.238-4.418-28.827 1.42.242 2.906.532 4.514.88a21.196 21.196 0 015.184 1.849 1.03 1.03 0 00.94-1.83 23.28 23.28 0 00-5.687-2.028c-1.575-.342-3.037-.63-4.437-.871a37.956 37.956 0 011.276-3.637c.332-.82.687-1.63 1.044-2.44l.136-.306c3.188 1.312 7.375 2.456 12.468 3.405 4.483.836 8.84.836 13.324 0 5.09-.949 9.274-2.091 12.461-3.402.587 1.32 1.176 2.674 1.68 4.027.287.775.545 1.56.775 2.354-1.397.242-2.856.529-4.43.87-3.77.818-7.185 2.498-9.875 4.857-2.195 1.925-4.128 4.13-5.996 6.262a342.8 342.8 0 01-1.277 1.451c-.427-.482-.853-.966-1.277-1.45-1.868-2.133-3.8-4.338-5.996-6.263a1.029 1.029 0 00-1.356 1.546c2.094 1.836 3.98 3.99 5.805 6.072.584.666 1.186 1.352 1.791 2.026v15.88a1.028 1.028 0 102.057 0v-15.87c.609-.677 1.214-1.366 1.8-2.036 1.825-2.082 3.711-4.236 5.805-6.071 2.428-2.13 5.526-3.65 8.956-4.394 1.606-.349 3.09-.638 4.507-.88 1.924 8.59.465 18.069-4.418 28.826a1.029 1.029 0 001.873.85c5.24-11.542 6.675-21.722 4.351-30.983zM51.058 7.96a1.029 1.029 0 001.208-.81c.356-1.799.833-3.706 1.46-5.83a1.029 1.029 0 00-1.972-.582c-.645 2.185-1.137 4.152-1.506 6.014a1.03 1.03 0 00.81 1.209z" fill="#333"/></svg>