<svg width="21" height="24" fill="none" xmlns="http://www.w3.org/2000/svg"><g clip-path="url(#clip0)"><path d="M18.75 1.5H2.25A2.25 2.25 0 000 3.75v16.5a2.25 2.25 0 002.25 2.25h6.434v-7.14H5.73V12h2.954V9.439c0-2.914 1.734-4.523 4.39-4.523 1.273 0 2.603.227 2.603.227v2.86H14.21c-1.444 0-1.895.896-1.895 1.815V12h3.224l-.515 3.36h-2.709v7.14h6.434A2.25 2.25 0 0021 20.25V3.75a2.25 2.25 0 00-2.25-2.25z" fill="#00C5FF"/></g><defs><clipPath id="clip0"><path fill="#fff" d="M0 0h21v24H0z"/></clipPath></defs></svg>