<svg width="70" height="70" fill="none" xmlns="http://www.w3.org/2000/svg"><g clip-path="url(#clip0)" fill="#333"><path d="M12.063 48.373l-2.886-6.735a4.026 4.026 0 00-7.366 3.253c5.316 11.696 5.575 12.963 7.933 15.318l9.45 9.45c.219.22.515.342.825.342h12.648a1.167 1.167 0 001.166-1.166 29.41 29.41 0 00-.386-7.076 16.44 16.44 0 003.106 0c-.503 2.135-.386 3.446-.386 7.074A1.167 1.167 0 0037.333 70h12.653c.31 0 .606-.123.825-.342l9.45-9.45c2.354-2.355 2.542-3.466 7.933-15.318a4.026 4.026 0 00-7.366-3.253l-2.891 6.736a5.925 5.925 0 00-4.646-.913c.54-1.324.998-2.68 1.372-4.06 2.316-.467 7.926-2.5 7.926-11.317 0-2.987-.52-6.67-3.492-7.075a31.718 31.718 0 004.72-21.965L63.35.913A1.167 1.167 0 0062.205 0H7.796a1.167 1.167 0 00-1.14.913l-.49 2.217a31.67 31.67 0 004.741 21.89c-2.942.438-3.452 4.11-3.452 7.068 0 8.82 5.615 10.85 7.933 11.317a35.283 35.283 0 001.378 4.071 5.914 5.914 0 00-4.702.898zM31.5 67.668H20.497l-9.1-9.107c-1.905-1.9-1.903-2.405-7.462-14.635a1.693 1.693 0 013.098-1.367c4.726 11.03 2.888 8.343 12.156 17.616a1.167 1.167 0 101.65-1.65c-6.391-6.39-6.693-6.566-7.667-8.059a3.536 3.536 0 014.509-.007 27.774 27.774 0 008.29 5.25c2.729.907 5.529 4.443 5.529 9.392v2.567zm1.117-8.371a10.428 10.428 0 00-5.907-5.803 22.927 22.927 0 01-6.3-3.827c-4.009-7.102-4.525-15.662-4.53-23.818C18.352 21.49 24.835 11.443 35 5.311c10.186 6.176 16.683 16.24 19.164 20.608-.019 8.283-.514 16.45-4.471 23.668a23.187 23.187 0 01-6.401 3.905 10.44 10.44 0 00-5.91 5.811 15.63 15.63 0 01-4.765-.008zm24.211-8.837c-.97 1.487-1.25 1.643-7.667 8.06a1.167 1.167 0 001.65 1.65c9.179-9.179 7.428-6.576 12.156-17.611a1.695 1.695 0 012.233-.865 1.694 1.694 0 01.865 2.232c-5.476 12.048-5.51 12.688-7.455 14.635l-9.107 9.107H38.5V65.1a11.22 11.22 0 012.322-7.013c2.735-3.42 3.608-.988 11.497-7.629a3.536 3.536 0 014.51.002zm3.428-18.376c0 5.875-2.848 7.977-4.965 8.73a67.093 67.093 0 001.176-12.6c1.079-.767 2.035-1.087 2.566-.83.286.137 1.223.887 1.223 4.7zm1.016-29.75a28.947 28.947 0 01-4.783 22.372c-.111-8.713-2.413-14.683-7.04-18.223a1.167 1.167 0 00-1.417 1.854c3.373 2.58 5.306 6.8 5.909 12.775-4.678-7.105-11.904-14.673-19.443-18.778h26.774zm-52.542 0h15.912a30.382 30.382 0 00-6.883 6.271 1.167 1.167 0 101.822 1.459 28.217 28.217 0 019.622-7.634c1.185.467 2.345.993 3.475 1.58-9.793 6.304-16.047 15.723-18.982 20.958A28.871 28.871 0 018.73 2.333zm1.057 29.75c0-3.818.933-4.567 1.225-4.705.52-.25 1.497.074 2.567.83a67.106 67.106 0 001.177 12.607c-2.117-.75-4.969-2.85-4.969-8.732z"/><path d="M21.521 25.358a5.103 5.103 0 013.918-.278l4.526 1.508a1.168 1.168 0 10.737-2.216l-4.526-1.505a7.422 7.422 0 00-5.697.404 1.167 1.167 0 101.043 2.088v-.002zm18.146 1.29c.271 0 0 .064 4.9-1.568a5.092 5.092 0 013.917.278 1.167 1.167 0 101.043-2.088 7.425 7.425 0 00-5.699-.404l-4.524 1.508a1.167 1.167 0 00.363 2.274zm-9.397 4.477a1.167 1.167 0 00-1.478-.73c-.04.013-4.019 1.31-7.092-.995a1.167 1.167 0 00-1.517.105 2.91 2.91 0 01-1.516.828 1.167 1.167 0 100 2.334 4.349 4.349 0 002.402-.884c.176.105.35.199.53.289a2.07 2.07 0 01-.599.595 1.167 1.167 0 00-1.167 1.166c0 1.434 2.155 1.984 4.052-.955 1.88.385 3.827.29 5.66-.274a1.167 1.167 0 00.724-1.479zM48.3 29.4c-3.058 2.293-7.01 1.023-7.091.995a1.167 1.167 0 10-.754 2.209c1.834.565 3.78.659 5.66.274C46.708 33.798 47.724 35 49 35a1.186 1.186 0 001.112-1.611 1.142 1.142 0 00-1.062-.722 1.922 1.922 0 01-.644-.604c.175-.09.35-.18.525-.285.693.53 1.53.84 2.402.889a1.167 1.167 0 000-2.334 2.896 2.896 0 01-1.508-.824A1.166 1.166 0 0048.3 29.4zM30.852 40.637a7.458 7.458 0 008.296 0 1.166 1.166 0 10-1.296-1.941 5.133 5.133 0 01-5.704 0 1.167 1.167 0 10-1.296 1.941zM42 47.6a1.418 1.418 0 00-1.517-1.4c-.967 0-3.83-1.867-5.483-1.867-1.675 0-4.499 1.867-5.477 1.867A1.418 1.418 0 0028 47.6c0 1.646 3.296 3.733 7 3.733s7-2.088 7-3.733zm-7-.933c1.255.367 2.476.847 3.646 1.432a7.831 7.831 0 01-7.292 0A21.69 21.69 0 0135 46.667zm1.167 7h-2.334a1.167 1.167 0 100 2.333h2.334a1.167 1.167 0 100-2.333zM15.167 14a1.167 1.167 0 100-2.333 1.167 1.167 0 000 2.333z"/></g><defs><clipPath id="clip0"><path fill="#fff" d="M0 0h70v70H0z"/></clipPath></defs></svg>