<svg width="24" height="24" fill="none" xmlns="http://www.w3.org/2000/svg"><path d="M21.75 3H2.25A2.25 2.25 0 000 5.25v13.5A2.25 2.25 0 002.25 21h19.5A2.25 2.25 0 0024 18.75V5.25A2.25 2.25 0 0021.75 3zm0 2.25v1.913c-1.051.856-2.727 2.187-6.309 4.992-.79.62-2.353 2.112-3.441 2.095-1.088.017-2.652-1.475-3.441-2.095C4.977 9.35 3.3 8.018 2.25 7.163V5.25h19.5zm-19.5 13.5v-8.7c1.074.855 2.597 2.056 4.919 3.874C8.194 14.73 9.988 16.51 12 16.5c2.002.01 3.774-1.744 4.83-2.576a799.218 799.218 0 004.92-3.874v8.7H2.25z" fill="#00C5FF"/></svg>