<svg width="70" height="71" fill="none" xmlns="http://www.w3.org/2000/svg"><path d="M40.295 34.717a1.873 1.873 0 001.547-.821l.022.016c.409.284.904.393 1.394.305a1.86 1.86 0 001.217-.792l.022.016c.409.284.904.393 1.395.305.49-.088.917-.36 1.202-.77l.015-.023c.395.284.9.414 1.416.322a1.868 1.868 0 001.536-1.78l6.807-3.966a.528.528 0 10-.53-.912l-7.09 4.131a.528.528 0 00-.254.549.811.811 0 01-1.595.285 2.402 2.402 0 01.396-1.808.528.528 0 00-.865-.602 3.45 3.45 0 00-.569 2.596.806.806 0 01-.36.825.806.806 0 01-1.12-.245.805.805 0 01-.115-.295 3.63 3.63 0 01.356-2.337.526.526 0 10-.935-.487 4.674 4.674 0 00-.46 3.008v.002a.811.811 0 01-1.595.285 4.736 4.736 0 01.361-2.83.528.528 0 10-.957-.442 5.785 5.785 0 00-.442 3.458v.001a.804.804 0 01-.36.824.811.811 0 01-1.235-.54 5.898 5.898 0 01.362-3.32.527.527 0 00-.973-.406 6.937 6.937 0 00-.537 2.726l-.528.305c-.46.266-.996.331-1.507.184a1.927 1.927 0 01-1.172-.943c-.197-.449-.053-1.034.317-1.293l.425-.246a24.82 24.82 0 007.984-7.375.527.527 0 00-.868-.598 23.76 23.76 0 01-7.644 7.06l-.442.255a.487.487 0 00-.03.02c-.814.546-1.119 1.7-.696 2.629l.015.028a2.974 2.974 0 001.82 1.477 2.97 2.97 0 002.325-.285l.105-.06.005.028a1.87 1.87 0 001.835 1.536zm27.771-3.166a.527.527 0 00.528-.527v-1.582h.879a.527.527 0 100-1.055h-.88v-1.582a.527.527 0 10-1.054 0v1.582h-.879a.527.527 0 000 1.055h.879v1.582a.528.528 0 00.527.527zm-6.56-2.034c.872 0 1.582-.71 1.582-1.582 0-.872-.71-1.582-1.582-1.582-.873 0-1.582.71-1.582 1.582 0 .873.71 1.582 1.582 1.582zm0-2.11a.528.528 0 11-.002 1.057.528.528 0 01.002-1.056zm-3.184-.808a.524.524 0 00.265-.072l6.27-3.654a5.342 5.342 0 002.54-3.537 5.342 5.342 0 00-.942-4.252l-2.27-3.06 5.744-9.95a.528.528 0 00-.913-.528l-5.918 10.25a.528.528 0 00.033.578l2.477 3.338a4.286 4.286 0 01.04 5.048 4.286 4.286 0 01-1.322 1.202l-6.27 3.654a.528.528 0 00.266.983zm-9.863-1.571a.528.528 0 00.527-.527v-1.582h.879a.527.527 0 100-1.055h-.879v-1.582a.527.527 0 10-1.055 0v1.582h-.879a.527.527 0 100 1.055h.88V24.5a.527.527 0 00.527.528zm-4.003-3.79a.527.527 0 00.458-.264l10.912-18.9a.528.528 0 00-.913-.528L44 20.446a.528.528 0 00.456.792zm-8.522-1.153a.528.528 0 00.527-.527v-1.582h.879a.527.527 0 100-1.055h-.88V15.34a.527.527 0 10-1.054 0v1.582h-.879a.527.527 0 100 1.055h.88v1.582c0 .291.235.527.527.527zm23.76-2.929a.525.525 0 00.265-.072 3.517 3.517 0 001.66-3.795 3.516 3.516 0 00-.607-1.333.527.527 0 00-.847.628 2.461 2.461 0 01-.737 3.589.527.527 0 00.266.983zm-12.86-6.3c.872 0 1.581-.71 1.581-1.582 0-.872-.71-1.582-1.582-1.582-.872 0-1.582.71-1.582 1.582 0 .872.71 1.582 1.582 1.582zm0-2.11a.528.528 0 11-.002 1.056.528.528 0 01.001-1.055z" fill="#333"/><g clip-path="url(#clip0)" fill="#333"><path d="M19.975 51.002A6.696 6.696 0 0024.75 53h.002a6.7 6.7 0 004.774-1.998 6.826 6.826 0 001.975-4.815 5.387 5.387 0 00-.293-1.62c-.2-.6-.446-1.184-.734-1.748-.736-1.47-1.852-3.2-3.316-5.144a53.927 53.927 0 00-1.98-2.478v-.002a.561.561 0 00-.853 0l-.002.003a54.904 54.904 0 00-3.2 4.167.562.562 0 10.925.64 53.812 53.812 0 012.703-3.567c.608.737 1.79 2.218 2.918 3.88.81 1.194 1.45 2.275 1.903 3.214.523 1.076.81 2.02.804 2.655a5.686 5.686 0 01-3.47 5.255 5.582 5.582 0 01-6.13-1.23 5.685 5.685 0 01-1.65-4.025c-.004-.584.238-1.433.68-2.392a.562.562 0 00-1.022-.469c-.53 1.166-.78 2.075-.783 2.861a6.826 6.826 0 001.975 4.815z"/><path d="M20.069 42.057a.562.562 0 10-.192-.773v.001h-.001a.564.564 0 00.193.772zM27 50.031a.56.56 0 00.326-.104 4.59 4.59 0 001.924-3.74.563.563 0 10-1.125 0 3.463 3.463 0 01-1.45 2.823.562.562 0 00.325 1.02zm-2.25.719a.563.563 0 100-1.125.563.563 0 000 1.125zm-2.51 10.169l-4.924 1.094a.562.562 0 10.244 1.099l5.062-1.125a.563.563 0 00.244-.122l3.938-3.375.031-.03 2.25-2.25a.563.563 0 000-.795 2.953 2.953 0 00-4.135-.035l-3.796 2.712-3.061.51c-1.062-.549-6.61-3.352-9.093-3.352a.563.563 0 000 1.125c2.006 0 6.988 2.39 8.738 3.31a.562.562 0 00.355.057l3.375-.562a.562.562 0 00.234-.097l3.938-2.813a.577.577 0 00.07-.06 1.827 1.827 0 012.12-.335l-1.775 1.774-3.814 3.27zm13.138 2.517a3.808 3.808 0 00-4.206-2.021.563.563 0 10.236 1.1 2.686 2.686 0 012.543.812l-8.768 2.063a.56.56 0 00-.33.878.564.564 0 00.588.217l9.563-2.25a.561.561 0 00.374-.8z"/><path d="M10.575 53.646c1.628.376 3.06 1.063 4.257 2.04.412.336 1.154.903 2.27 1.733a.562.562 0 10.671-.903c-.747-.556-1.742-1.303-2.23-1.702-1.33-1.088-2.918-1.85-4.715-2.264a.563.563 0 10-.253 1.096zM.563 54.688c.059 0 .118-.01.175-.029l1.681-.55a17.91 17.91 0 013.854-.745.563.563 0 10-.089-1.123 19.218 19.218 0 00-4.1.794l-1.697.556a.563.563 0 00.176 1.096zm7.879-1.347a.569.569 0 00.454-.955.568.568 0 10-.454.955zm21.974 13.518l-1.55-.517a.563.563 0 00-.356 1.067l1.55.517a1.62 1.62 0 011.085 1.808l-11.157-3.57 5.557-2.527a.525.525 0 00.032-.016l8.438-4.5a.563.563 0 00.185-.834 3.93 3.93 0 00-4.905-1.157.562.562 0 00.503 1.006 2.807 2.807 0 013.037.34l-7.771 4.144-6.06 2.755h-3.127L4.18 59.805a.563.563 0 00-.242-.055H.563a.563.563 0 000 1.125H3.81l11.698 5.57a.563.563 0 00.242.055h1.6l13.979 4.473a.563.563 0 00.674-.284 2.744 2.744 0 00-1.587-3.83z"/></g><defs><clipPath id="clip0"><path fill="#fff" transform="translate(0 35)" d="M0 0h36v36H0z"/></clipPath></defs></svg>