<svg width="24" height="24" fill="none" xmlns="http://www.w3.org/2000/svg"><g clip-path="url(#clip0)"><path d="M23.315 16.96l-5.25-2.25a1.125 1.125 0 00-1.312.323l-2.325 2.84a17.375 17.375 0 01-8.306-8.305l2.84-2.325a1.122 1.122 0 00.324-1.313L7.036.68a1.133 1.133 0 00-1.29-.65L.873 1.154A1.125 1.125 0 000 2.25C0 14.273 9.745 24 21.75 24a1.125 1.125 0 001.097-.872l1.125-4.875a1.14 1.14 0 00-.657-1.294z" fill="#00C5FF"/></g><defs><clipPath id="clip0"><path fill="#fff" d="M0 0h24v24H0z"/></clipPath></defs></svg>