<svg width="140" height="140" fill="none" xmlns="http://www.w3.org/2000/svg"><path d="M140 70c0 38.66-31.341 70-70 70-38.66 0-70-31.34-70-70S31.34 0 70 0c38.659 0 70 31.34 70 70z" fill="#00C5FF"/><path d="M112.324 125.76C100.573 134.694 85.906 140 70.001 140c-15.905 0-30.571-5.306-42.323-14.24 8.778-4.289 24.45-7.143 42.323-7.143 17.874 0 33.549 2.854 42.323 7.143z" fill="#00C5FF"/><path d="M119.265 41.075c-9.794-54.766-88.736-54.766-98.53 0a85.307 85.307 0 00-1.326 15.022c0 34.658 20.797 64.453 50.591 77.6 29.794-13.147 50.591-42.942 50.591-77.6 0-5.127-.455-10.146-1.326-15.022z" fill="#FC5F61"/><path d="M109.61 50.257c0 20.342-15.334 37.107-35.075 39.354-1.487.172-2.999.26-4.533.26-21.876 0-39.613-17.738-39.613-39.614 0-21.875 17.737-39.609 39.613-39.609 1.534 0 3.046.089 4.533.26 19.741 2.247 35.075 19.008 35.075 39.349z" fill="#FCF8F2"/><path d="M74.864 8.072a42.73 42.73 0 00-10.055.035c-4.512.552-5.79-6.023-1.405-7.218A25.036 25.036 0 0170.001 0C47.817 0 25.632 13.694 20.735 41.078a85.274 85.274 0 00-1.325 15.02c0 34.656 20.796 64.451 50.59 77.599-9.346-6.087-17.387-15.741-23.328-27.792-3.954-8.022 3.456-17.06 12.079-14.689A42.374 42.374 0 0070 92.728c1.626 0 3.26-.095 4.857-.28 21.44-2.437 37.608-20.577 37.608-42.191 0-21.611-16.168-39.749-37.602-42.185zm-.658 78.7c-1.385.16-2.8.242-4.205.242-15.357 0-28.543-9.469-34.035-22.874 0 0 .004 0 0-.003a36.6 36.6 0 01-2.72-13.88 36.534 36.534 0 015.103-18.669c6.406-10.814 18.197-18.083 31.652-18.083 1.406 0 2.82.08 4.212.244 18.55 2.108 32.539 17.805 32.539 36.508.001 18.706-13.989 34.403-32.546 36.515z" fill="#E53841"/><path fill-rule="evenodd" clip-rule="evenodd" d="M75.638 49.052c0-.411.073-.774.196-1.064.122-.29.294-.508.49-.677.196-.17.442-.29.687-.363.245-.072.515-.097.76-.097s.515.025.76.097c.27.073.49.194.687.363.196.169.368.387.49.677.123.29.197.653.197 1.064v.024c0 .12-.025.242-.025.362v6.142h1.447v-6.142c0-.12 0-.241-.025-.362v-.024c0-.411.074-.774.197-1.064.122-.29.294-.508.49-.677.196-.17.441-.29.687-.363a2.85 2.85 0 01.76-.097c.245 0 .515.025.76.097.245.073.49.194.687.363.196.169.368.387.49.677.123.29.197.628.197 1.064v6.528h1.422v-6.142c0-1.04-.319-1.837-.932-2.442-.613-.604-1.52-.894-2.673-.894-.54 0-1.03.072-1.472.242-.44.145-.809.386-1.103.652-.074.073-.147.145-.196.218-.074-.072-.123-.145-.196-.218a2.779 2.779 0 00-1.104-.652 4.682 4.682 0 00-1.471-.242c-1.177 0-2.06.29-2.673.894-.613.605-.932 1.403-.932 2.442v6.142h1.422v-6.528h-.024zM102 54.976h-2.648c-.27 0-.516-.025-.785-.097a1.98 1.98 0 01-.711-.363 2.356 2.356 0 01-.515-.653c-.123-.266-.197-.628-.197-1.04v-6.552h-1.447v6.093c0 .992.32 1.79.932 2.37.614.58 1.52.87 2.698.87h2.648v-.628H102zm-7.185-.073h-2.649a2.91 2.91 0 01-.784-.097 1.978 1.978 0 01-.712-.362 2.356 2.356 0 01-.515-.653c-.122-.266-.196-.629-.196-1.04v-1.886h3.433v-.58H89.96v-1.378c0-.339 0-.63.025-.87 0-.243.049-.436.098-.581a.957.957 0 01.245-.363c.123-.072.27-.145.466-.17h4.022v-.676h-6.303v6.117c0 .992.32 1.79.932 2.37.613.58 1.52.87 2.698.87h2.648v-.701h.025zm-23.395-2.2c0 .41-.074.75-.197 1.04-.122.265-.294.507-.515.652-.22.17-.441.29-.71.363-.27.072-.516.097-.785.097-.27 0-.515-.024-.785-.097a2.402 2.402 0 01-.711-.339c-.221-.169-.368-.386-.515-.677a2.626 2.626 0 01-.197-1.04v-6.407H65.56v6.045c0 .508.073.967.245 1.354.171.411.392.75.711 1.016.319.29.687.507 1.128.652a4.88 4.88 0 001.52.242c1.202 0 2.11-.29 2.747-.87.638-.58.957-1.378.957-2.394v-6.045H71.42v6.408zm-21.802 0v-3.555c0-.41.074-.75.197-1.04.122-.265.294-.507.515-.652.22-.17.441-.29.71-.363.27-.072.516-.097.786-.097s.515.025.784.097c.27.073.49.194.712.339.22.169.367.386.514.677.123.29.197.628.197 1.04v3.554c0 .41-.074.773-.197 1.04a1.62 1.62 0 01-.514.676c-.221.17-.442.29-.712.339a2.93 2.93 0 01-.784.097c-.27 0-.515-.024-.785-.097a1.98 1.98 0 01-.711-.363c-.221-.169-.368-.387-.515-.653-.123-.265-.197-.628-.197-1.04zm5.837-3.168c0-.507-.073-.967-.245-1.354-.172-.41-.393-.75-.711-1.015a3.06 3.06 0 00-1.128-.653 4.88 4.88 0 00-1.52-.242c-1.203 0-2.11.29-2.748.87-.637.58-.956 1.379-.956 2.394v2.805c0 1.016.319 1.813.956 2.394.638.58 1.545.87 2.747.87.564 0 1.055-.072 1.52-.242.442-.145.834-.362 1.129-.652.318-.29.54-.63.71-1.016.172-.411.246-.846.246-1.354v-2.805zm-8.264 4.353c-.393.266-.81.459-1.25.604a4.223 4.223 0 01-1.325.218 4.56 4.56 0 01-1.668-.29 3.551 3.551 0 01-1.275-.847 4.086 4.086 0 01-.81-1.281 4.461 4.461 0 01-.294-1.645c0-.531.074-1.015.246-1.45a3 3 0 01.662-1.16 3.03 3.03 0 011.054-.775c.417-.193.883-.29 1.423-.29.466.024.858.073 1.177.145.319.073.613.145.858.242s.442.17.638.29c.196.097.368.194.564.266.024-.169.049-.338.073-.556.025-.218.05-.363.074-.508a15.41 15.41 0 00-1.741-.459 10.373 10.373 0 00-1.668-.145c-.662 0-1.3.097-1.913.314a4.105 4.105 0 00-1.545.895c-.441.41-.809.894-1.079 1.475-.27.58-.392 1.233-.392 1.983 0 .749.147 1.426.417 2.006.27.58.637 1.064 1.103 1.475a4.91 4.91 0 001.643.895c.638.193 1.3.314 2.011.314.197 0 .442-.024.687-.048.245-.048.515-.097.785-.145.27-.073.515-.145.785-.242.245-.097.49-.193.686-.314l.074-.967z" fill="#264597"/><path fill-rule="evenodd" clip-rule="evenodd" d="M75.638 49.052c0-.411.073-.774.196-1.064a1.81 1.81 0 01.49-.677c.197-.17.442-.29.687-.363.245-.072.515-.097.76-.097.246 0 .515.025.76.097.27.073.491.194.687.363.196.169.368.387.49.677.123.29.197.653.197 1.064v.024c0 .12-.025.242-.025.362v1.814c.466.072.957.145 1.423.218v-2.032c0-.12 0-.241-.025-.362v-.024c0-.411.074-.774.196-1.064a1.82 1.82 0 01.49-.677c.197-.17.442-.29.687-.363a2.85 2.85 0 01.76-.097c.246 0 .516.025.76.097.246.073.491.194.688.363.196.169.367.387.49.677.123.29.196.628.196 1.064v3.167c.466.097.932.17 1.422.266v-3.047c0-1.04-.318-1.837-.931-2.442-.613-.604-1.52-.894-2.673-.894-.54 0-1.03.072-1.472.242a3.087 3.087 0 00-1.103.652c-.074.073-.147.145-.197.218-.073-.072-.122-.145-.196-.218a2.779 2.779 0 00-1.103-.652 4.682 4.682 0 00-1.472-.242c-1.177 0-2.06.29-2.673.894-.613.605-.931 1.403-.931 2.442v1.064c.465.049.931.121 1.422.17v-1.62zm-36.466.483c.515-.024 1.03-.072 1.545-.096.024-.097.049-.194.073-.266.148-.46.368-.847.663-1.161a3.04 3.04 0 011.054-.774c.417-.193.883-.29 1.422-.29.466.024.859.073 1.177.145.32.073.614.145.859.242s.441.17.637.29c.197.097.368.194.564.266.025-.17.05-.338.074-.556.024-.218.049-.363.074-.508a15.432 15.432 0 00-1.742-.46 10.385 10.385 0 00-1.667-.144c-.662 0-1.3.096-1.913.314-.564.218-1.079.508-1.52.919a4.69 4.69 0 00-1.08 1.475c-.073.193-.147.387-.22.604zm9-.338c.466 0 .956 0 1.447-.024v-.049c0-.41.073-.75.196-1.04.123-.266.294-.507.515-.652.22-.17.441-.29.711-.363.27-.073.515-.097.785-.097s.515.024.785.097c.27.072.49.193.71.338.221.17.369.387.516.678.122.29.196.628.196 1.04v.072c.466 0 .956.024 1.447.024a3.57 3.57 0 00-.22-1.064c-.173-.411-.393-.75-.712-1.015a3.064 3.064 0 00-1.128-.653 4.88 4.88 0 00-1.52-.242c-1.202 0-2.11.29-2.747.87-.589.532-.908 1.233-.981 2.08zm17.411.508c.49.024.957.072 1.447.096v-3.506h-1.447v3.41zm5.837.507c.49.049.956.097 1.447.145v-4.062H71.42v3.917zM88.537 52.8c.49.097.956.218 1.447.315-.025-.121-.025-.242-.025-.363v-1.886h3.434v-.58h-3.434v-1.378c0-.339 0-.63.025-.87 0-.243.049-.436.098-.581a.955.955 0 01.245-.363c.123-.072.27-.145.466-.17h4.022v-.676h-6.302v6.117c0 .145.024.29.024.435zm8.313 2.104c.736.218 1.472.46 2.207.701H102v-.653h-2.648a2.91 2.91 0 01-.785-.096 1.98 1.98 0 01-.711-.363 2.358 2.358 0 01-.515-.653c-.123-.266-.196-.628-.196-1.04v-6.528h-1.447v6.093c0 .992.319 1.79.932 2.37.073.048.147.12.22.169z" fill="#009FE3"/><path fill-rule="evenodd" clip-rule="evenodd" d="M55.406 58.554c1.054.266 2.33.29 3.261.242a18.16 18.16 0 002.281-.218c.613-.097 1.25-.217 1.864-.387.368-.096.736-.217 1.104-.338.416-.121.858-.266 1.275-.387.588-.17 1.3-.387 1.937-.387.638 0 1.275.121 1.888.315l.442.145c.686.265 1.324.604 1.937.99 1.177.702 2.501 1.62 3.875 1.911 1.03.218 1.937.024 2.844-.435 2.06-1.064 3.507-2.37 4.66-3.53-1.177 1.716-2.428 3.191-4.316 4.158-1.055.557-2.158.75-3.335.508-2.82-.58-4.979-3.337-7.97-3.337-.54 0-1.202.194-1.717.339-.81.242-1.594.508-2.403.725-2.723.75-6.94 1.064-9.417-.338l.122-.194 1.325-1.74c.049-.073.122-.145.196-.242.319-.387 3.139-3.941 3.507-4.4.367-.436.71-.92 1.103-1.379.368-.484.736-.919 1.08-1.378.343-.436.686-.87 1.005-1.258.318-.386.588-.725.809-1.015l-6.253.024v-.725h8.24v.58c-.099.097-.27.29-.491.58-.246.29-.54.653-.883 1.088-.343.436-.736.92-1.153 1.451-.416.532-.858 1.088-1.275 1.644-.441.556-3.384 4.256-3.8 4.812l-.173.242-1.57 1.934z" fill="url(#paint0_linear)"/><path fill-rule="evenodd" clip-rule="evenodd" d="M53.003 59.763c.196.097.417.17.613.266 3.114 1.402 6.327.387 9.343-.508.441-.12.883-.266 1.324-.387.613-.169 1.35-.386 1.987-.386.662 0 1.3.12 1.937.314l.442.145c.686.266 1.348.604 2.01.991 1.226.701 2.6 1.572 4.022 1.91 3.433.823 6.303-2.03 7.774-3.965-1.202 1.717-2.967 4.28-4.93 5.247-1.103.556-2.23.75-3.457.508-2.918-.58-5.15-3.337-8.24-3.337-.564 0-1.25.193-1.79.338-.834.242-1.643.508-2.501.726-.662.169-1.349.29-2.011.387-2.992.41-4.905.241-7.676-1.282l.858-1.136.295.169z" fill="url(#paint1_linear)"/><path fill-rule="evenodd" clip-rule="evenodd" d="M49.006 43.224c.024 0 .024-.024.024-.024v-.628c0-.025 0-.025-.024-.025h-.098s-.025 0-.025.025l-.025.314c-.024.17-.073.218-.294.218h-.54c-.146 0-.17-.025-.17-.218v-.725s0-.025.024-.025h.392c.123 0 .147.025.147.097l.025.194c0 .024 0 .024.024.024h.098v-.726h-.098s-.024 0-.024.025l-.025.169c0 .072-.049.097-.147.097h-.392s-.025 0-.025-.025v-.652c0-.17.025-.218.172-.218h.49c.22 0 .27.048.294.218l.025.314c0 .024 0 .024.024.024h.099s.024 0 .024-.024v-.629c0-.024-.024-.024-.024-.024h-1.668v.072s0 .025.025.025h.049c.171 0 .22 0 .22.314v1.596c0 .072-.024.097-.073.12l-.196.025v.097h1.692v-.025zm.932.025l.024-.073c0-.024.025-.024.05-.024.073.048.22.12.465.12.294-.023.54-.193.54-.483 0-.266-.27-.387-.515-.46-.246-.072-.393-.144-.393-.265 0-.121.098-.218.27-.218.147 0 .294.049.368.194.024.024.049.12.073.169 0 .024 0 .024.025.024h.049s.025 0 .025-.024v-.484h-.074l-.025.049c0 .024-.024.024-.049.024a.846.846 0 00-.392-.097c-.245 0-.49.121-.49.411 0 .266.22.363.465.435.221.073.442.121.442.29 0 .146-.123.267-.343.267-.197 0-.344-.049-.442-.218a1.652 1.652 0 01-.073-.194c0-.024 0-.024-.025-.024h-.049s-.024 0-.024.025v.532h.098v.024zm2.722-.508c0-.048 0-.048-.05-.048h-.048c-.025 0-.025 0-.025.024v.096c0 .218-.074.29-.196.29-.147 0-.196-.145-.196-.338v-.895h.416s.025 0 .025-.024v-.096s0-.025-.024-.025h-.417v-.435c0-.024 0-.024-.025-.024h-.098c-.024 0-.024 0-.049.024l-.024.194c-.025.217-.074.266-.27.266h-.074s-.024 0-.024.024v.096s0 .025.024.025h.245v.846c0 .12 0 .193.025.242.049.169.172.29.392.29.27 0 .368-.194.368-.435v-.097h.025zm1.912.12h-.024c-.123.146-.245.218-.442.218-.27 0-.465-.169-.465-.556 0-.024 0-.048.024-.048h.932c.024 0 .049-.024.049-.048 0-.411-.22-.726-.613-.726-.392 0-.687.315-.687.774 0 .46.295.774.712.774.245 0 .416-.097.563-.315v-.024l-.049-.048zm-.882-.507c-.05 0-.05 0-.05-.072.025-.266.172-.436.368-.436.221 0 .344.17.368.484 0 .024 0 .024-.024.024h-.662zm.613-1.064c.098-.048.122-.097.073-.17-.049-.072-.122-.096-.196-.023l-.515.362c-.024 0-.024.025 0 .049.05.024.05.024.074.024l.564-.242zm2.01 1.45c0-.047 0-.047-.049-.047h-.049c-.024 0-.024 0-.024.024v.096c0 .218-.074.29-.196.29-.147 0-.196-.145-.196-.338v-.895h.416s.025 0 .025-.024v-.096s0-.025-.025-.025H55.8v-.435c0-.024 0-.024-.025-.024h-.098c-.025 0-.025 0-.05.024l-.024.194c-.024.217-.073.266-.27.266h-.073s-.024 0-.024.024v.096s0 .025.024.025h.245v.846c0 .12 0 .193.025.242.049.169.171.29.392.29.27 0 .368-.194.368-.435v-.097h.025zm1.374.484c.024 0 .024 0 0 0v-.072s0-.024-.025-.024h-.073c-.123 0-.172-.049-.172-.242v-1.161h-.515v.073s0 .024.025.024h.049c.147 0 .196.024.196.242v.919c0 .072-.025.096-.074.12l-.171.025v.096h.76zm-.22-1.958a.192.192 0 00-.197-.194c-.098 0-.172.073-.172.194 0 .097.074.17.172.17.123 0 .196-.073.196-.17zm2.108 1.572h-.024c-.098.169-.246.241-.442.241-.27 0-.466-.217-.466-.652 0-.363.172-.605.417-.605.05 0 .123 0 .172.048.024 0 .024.025.024.025 0 .024-.049.072-.049.145 0 .096.074.169.172.169.098 0 .172-.073.172-.194 0-.193-.246-.338-.49-.338-.418 0-.712.314-.712.774s.294.773.711.773c.245 0 .442-.12.564-.362v-.024h-.049zm1.692-.194c0 .097-.024.145-.024.17-.05.12-.196.29-.368.29-.147 0-.245-.097-.245-.242 0-.29.27-.363.588-.387.05 0 .05 0 .05.048v.121zm.564.242c0-.024 0-.024-.024-.024h-.05c-.024 0-.024 0-.024.024v.072c0 .097-.024.17-.098.17-.073 0-.098-.073-.098-.242v-.556c0-.435-.196-.605-.564-.605-.27 0-.515.145-.515.339 0 .097.074.193.172.193a.166.166 0 00.171-.169c0-.072-.049-.12-.049-.17 0 0 0-.023.025-.023a.459.459 0 01.172-.049c.22 0 .318.121.318.363v.072c0 .049 0 .049-.049.073-.49.024-.883.145-.883.508 0 .266.221.41.466.41.221 0 .368-.096.49-.29.025.194.148.29.295.29.172 0 .245-.144.245-.313v-.073zm3.973-.024h-.025c-.122.145-.245.217-.44.217-.27 0-.467-.169-.467-.556 0-.024 0-.048.025-.048h.932c.024 0 .049-.024.049-.048 0-.411-.221-.726-.614-.726-.392 0-.686.315-.686.774 0 .46.294.774.711.774.245 0 .417-.097.564-.315v-.024l-.049-.048zm-.883-.508c-.049 0-.049 0-.049-.072.025-.266.172-.436.368-.436.22 0 .343.17.368.484 0 .024 0 .024-.025.024h-.662zm4.684.87c.49 0 .785-.217.785-.628 0-.29-.196-.508-.54-.58.27-.097.393-.29.393-.508 0-.339-.32-.508-.736-.508h-.858v.072s0 .025.024.025h.05c.171.024.22.024.22.314v1.596c0 .072-.025.097-.074.12l-.196.025v.097h.932v-.025zm-.22-.145c-.148 0-.172-.048-.172-.217v-.75s0-.024.024-.024h.27c.392 0 .589.145.589.508 0 .338-.197.46-.49.46h-.222v.023zm-.148-1.136c-.024 0-.024 0 0 0l-.024-.604c0-.17.024-.218.171-.218h.099c.27 0 .465.048.465.363 0 .314-.147.459-.465.459h-.246zm3.164.919h-.025c-.122.145-.245.217-.441.217-.27 0-.466-.169-.466-.556 0-.024 0-.048.024-.048h.932c.025 0 .05-.024.05-.048 0-.411-.221-.726-.614-.726-.392 0-.686.315-.686.774 0 .46.294.774.71.774.246 0 .418-.097.565-.315v-.024l-.05-.048zm-.883-.508c-.05 0-.05 0-.05-.072.025-.266.173-.436.369-.436.22 0 .343.17.368.484 0 .024 0 .024-.025.024h-.662zm4.267.87s.025 0 0 0v-.072s0-.024-.025-.024h-.049c-.147 0-.196-.049-.196-.242v-.556a.937.937 0 00-.049-.314c-.073-.218-.22-.315-.441-.315-.196 0-.368.097-.515.315-.074-.218-.22-.315-.442-.315-.196 0-.367.097-.49.29v-.241h-.466v.072s0 .024.025.024h.049c.147 0 .196.024.196.242v.919c0 .072-.025.097-.074.12l-.147.025v.097h.736v-.097s0-.024-.025-.024h-.049c-.147 0-.171-.049-.171-.242v-.556c0-.097.024-.17.049-.242.073-.145.22-.242.343-.242.196 0 .27.145.27.436v.7c0 .073-.025.097-.074.122l-.123.024v.096h.712v-.072s0-.024-.025-.024h-.049c-.147 0-.196-.049-.196-.242v-.58c0-.073.024-.145.049-.218.073-.145.22-.242.343-.242.196 0 .27.145.27.436v.7c0 .073-.025.097-.074.122l-.122.024v.096h.76zm1.471-.918l.025-.145s0-.025-.025-.025h-.784s-.025 0-.025.025v.12s0 .025.025.025h.784zm2.011.556h-.024c-.123.145-.245.217-.442.217-.27 0-.466-.169-.466-.556 0-.024 0-.048.025-.048h.932c.024 0 .049-.024.049-.048 0-.411-.22-.726-.613-.726s-.687.315-.687.774c0 .46.294.774.711.774.246 0 .417-.097.564-.315v-.024l-.049-.048zm-.883-.508c-.049 0-.049 0-.049-.072.025-.266.172-.436.368-.436.22 0 .344.17.368.484 0 .024 0 .024-.024.024h-.663zm1.815.895l.025-.073c0-.024.024-.024.049-.024a.83.83 0 00.466.12c.294 0 .54-.168.54-.459 0-.266-.27-.386-.516-.459-.245-.072-.392-.145-.392-.266 0-.12.098-.218.27-.218.147 0 .294.049.367.194a.43.43 0 01.05.17c0 .023 0 .023.024.023h.049s.025 0 .025-.024v-.508h-.074l-.024.049c0 .024-.025.024-.05.024a.846.846 0 00-.392-.097c-.245 0-.49.121-.49.411 0 .266.22.363.465.435.221.073.442.121.442.29 0 .146-.123.267-.343.267-.197 0-.344-.049-.442-.218a1.651 1.651 0 01-.073-.194c0-.024 0-.024-.025-.024h-.049s-.025 0-.025.025v.532h.123v.024zm2.722-.508c0-.048 0-.048-.049-.048h-.049c-.024 0-.024 0-.024.024v.096c0 .218-.074.29-.197.29-.147 0-.196-.145-.196-.338v-.895h.417s.025 0 .025-.024v-.096s0-.025-.025-.025h-.417v-.435c0-.024 0-.024-.024-.024h-.098c-.025 0-.025 0-.05.024l-.024.194c-.024.217-.073.266-.27.266h-.073s-.025 0-.025.024v.096s0 .025.025.025h.245v.846c0 .12 0 .193.025.242.049.169.171.29.392.29.27 0 .368-.194.368-.435v-.097h.024zm1.619-.097c0 .097-.025.145-.025.17-.049.12-.196.29-.368.29-.147 0-.245-.097-.245-.242 0-.29.27-.363.589-.387.049 0 .049 0 .049.048v.121zm.564.242c0-.024 0-.024-.025-.024h-.049c-.024 0-.024 0-.024.024v.072c0 .097-.025.17-.098.17-.074 0-.099-.073-.099-.242v-.556c0-.435-.196-.605-.563-.605-.27 0-.515.145-.515.339 0 .097.073.193.171.193a.166.166 0 00.172-.169c0-.072-.05-.12-.05-.17 0 0 0-.023.025-.023a.459.459 0 01.172-.049c.22 0 .319.121.319.363v.072c0 .049 0 .049-.05.073-.49.024-.882.145-.882.508 0 .266.22.41.466.41.22 0 .368-.096.49-.29.025.194.147.29.295.29.171 0 .245-.144.245-.313v-.073zm1.349.338v-.072s0-.024-.025-.024h-.049c-.172-.024-.196-.024-.196-.29v-.436c0-.362.22-.556.392-.556.025 0 .074 0 .074.024 0 .025-.025.049-.025.097 0 .073.074.145.172.145.098 0 .171-.072.171-.193 0-.17-.171-.242-.294-.242-.171 0-.343.097-.466.29v-.266h-.466v.073s0 .024.025.024h.049c.147 0 .196.024.196.242v.919c0 .072-.024.096-.073.12l-.148.025v.096h.662v.024z" fill="#264597"/><defs><linearGradient id="paint0_linear" x1="65.107" y1="54.513" x2="72.022" y2="61.526" gradientUnits="userSpaceOnUse"><stop stop-color="#264597"/><stop offset="1" stop-color="#009FE3"/></linearGradient><linearGradient id="paint1_linear" x1="64.61" y1="56.821" x2="77.673" y2="70.54" gradientUnits="userSpaceOnUse"><stop stop-color="#009FE3"/><stop offset="1" stop-color="#fff"/></linearGradient></defs></svg>