<svg width="21" height="24" fill="none" xmlns="http://www.w3.org/2000/svg"><path d="M17.855 4.552a10.328 10.328 0 00-7.36-3.052C4.758 1.5.09 6.169.09 11.906c0 1.833.478 3.624 1.388 5.203L0 22.5l5.517-1.448c1.519.83 3.23 1.265 4.974 1.265h.004C16.228 22.317 21 17.648 21 11.911c0-2.78-1.181-5.39-3.145-7.36zm-7.36 16.012A8.634 8.634 0 016.09 19.36l-.314-.187-3.272.858.872-3.193-.206-.328a8.62 8.62 0 01-1.322-4.603c0-4.767 3.881-8.648 8.653-8.648 2.31 0 4.481.9 6.113 2.536 1.63 1.636 2.634 3.806 2.63 6.117 0 4.772-3.98 8.653-8.748 8.653zm4.744-6.478c-.258-.131-1.537-.76-1.777-.844-.239-.089-.412-.131-.585.131-.174.263-.67.844-.825 1.022-.15.174-.305.197-.563.066-1.528-.764-2.531-1.364-3.539-3.094-.267-.46.267-.426.764-1.42.084-.174.042-.324-.023-.455-.066-.131-.586-1.41-.802-1.931-.21-.506-.426-.436-.586-.445-.15-.01-.323-.01-.497-.01a.963.963 0 00-.694.324c-.239.262-.909.89-.909 2.17 0 1.28.933 2.517 1.06 2.69.13.174 1.832 2.8 4.443 3.929 1.65.712 2.297.773 3.122.651.502-.075 1.538-.628 1.753-1.237.216-.61.216-1.13.15-1.238-.06-.117-.234-.182-.492-.31z" fill="#00C5FF"/></svg>