<svg width="254" height="94" viewBox="0 0 254 94" fill="none" xmlns="http://www.w3.org/2000/svg">
<path fill-rule="evenodd" clip-rule="evenodd" d="M147.714 32.9068C147.714 31.2268 148.01 29.7445 148.504 28.5587C148.999 27.3729 149.691 26.4835 150.482 25.7918C151.273 25.1001 152.262 24.606 153.25 24.3095C154.239 24.013 155.327 23.9142 156.315 23.9142C157.304 23.9142 158.392 24.013 159.38 24.3095C160.468 24.606 161.358 25.1001 162.149 25.7918C162.94 26.4835 163.632 27.3729 164.126 28.5587C164.62 29.7445 164.917 31.2268 164.917 32.9068V33.0056C164.917 33.4997 164.818 33.9938 164.818 34.4879V59.5879H164.917H170.553H170.652V34.4879C170.652 33.9938 170.652 33.4997 170.553 33.0056V32.9068C170.553 31.2268 170.849 29.7445 171.344 28.5587C171.838 27.3729 172.53 26.4835 173.321 25.7918C174.112 25.1001 175.101 24.606 176.09 24.3095C177.177 24.013 178.166 23.9142 179.155 23.9142C180.143 23.9142 181.231 24.013 182.22 24.3095C183.208 24.606 184.197 25.1001 184.988 25.7918C185.779 26.4835 186.471 27.3729 186.965 28.5587C187.46 29.7445 187.756 31.128 187.756 32.9068V59.5879H193.491V34.4879C193.491 30.2386 192.206 26.9776 189.734 24.5071C187.262 22.0367 183.604 20.8508 178.957 20.8508C176.782 20.8508 174.804 21.1473 173.025 21.839C171.245 22.4319 169.762 23.4201 168.575 24.5071C168.279 24.8036 167.982 25.1001 167.784 25.3965C167.488 25.1001 167.29 24.8036 166.993 24.5071C165.807 23.3213 164.324 22.4319 162.544 21.839C160.764 21.2461 158.787 20.8508 156.612 20.8508C151.866 20.8508 148.307 22.0367 145.835 24.5071C143.363 26.9776 142.078 30.2386 142.078 34.4879V59.5879H147.812V32.9068H147.714ZM254 57.1174H243.322C242.234 57.1174 241.246 57.0186 240.158 56.7222C239.07 56.4257 238.181 55.9316 237.291 55.2399C236.5 54.5481 235.808 53.6588 235.214 52.5718C234.72 51.4847 234.424 50.0025 234.424 48.3225V21.5426H228.59V46.445C228.59 50.4966 229.875 53.7576 232.347 56.1292C234.819 58.5009 238.477 59.6867 243.223 59.6867H253.901V57.1174H254ZM225.031 56.821H214.353C213.265 56.821 212.276 56.7222 211.189 56.4257C210.101 56.1292 209.211 55.6351 208.322 54.9434C207.531 54.2517 206.838 53.3623 206.245 52.2753C205.751 51.1883 205.454 49.706 205.454 48.0261V40.3182H219.296V37.9465H205.454V32.3138C205.454 30.9304 205.454 29.7445 205.553 28.7564C205.553 27.7682 205.751 26.9776 205.949 26.3847C206.146 25.7918 206.542 25.2977 206.937 24.9024C207.432 24.606 208.025 24.3095 208.816 24.2107H225.031V21.4437H199.621V46.445C199.621 50.4966 200.906 53.7576 203.378 56.1292C205.85 58.5009 209.508 59.6867 214.254 59.6867H224.932V56.821H225.031ZM130.708 47.8284C130.708 49.5084 130.411 50.8918 129.917 52.0777C129.422 53.1647 128.73 54.1529 127.84 54.7458C126.951 55.4375 126.061 55.9316 124.973 56.2281C123.886 56.5245 122.897 56.6233 121.809 56.6233C120.722 56.6233 119.733 56.5245 118.645 56.2281C117.558 55.9316 116.668 55.4375 115.778 54.8446C114.888 54.1529 114.295 53.2635 113.702 52.0777C113.207 50.8918 112.911 49.5084 112.911 47.8284V21.6414H107.077V46.3462C107.077 48.4214 107.374 50.2989 108.066 51.88C108.758 53.5599 109.648 54.9434 110.933 56.0304C112.219 57.2163 113.702 58.1056 115.482 58.6985C117.261 59.2915 119.337 59.6867 121.612 59.6867C126.456 59.6867 130.114 58.5009 132.685 56.1292C135.256 53.7576 136.541 50.4966 136.541 46.3462V21.6414H130.708V47.8284V47.8284ZM42.8112 47.8284V33.302C42.8112 31.6221 43.1078 30.2386 43.6022 29.0528C44.0965 27.9658 44.7886 26.9776 45.6785 26.3847C46.5683 25.693 47.4582 25.1989 48.5457 24.9024C49.6333 24.606 50.622 24.5071 51.7096 24.5071C52.7972 24.5071 53.7859 24.606 54.8735 24.9024C55.9611 25.1989 56.8509 25.693 57.7408 26.2859C58.6306 26.9776 59.2238 27.867 59.8171 29.0528C60.3114 30.2386 60.608 31.6221 60.608 33.302V47.8284C60.608 49.5084 60.3114 50.9907 59.8171 52.0777C59.3227 53.2635 58.6306 54.1529 57.7408 54.8446C56.8509 55.5363 55.9611 56.0304 54.8735 56.2281C53.7859 56.5245 52.7972 56.6233 51.7096 56.6233C50.622 56.6233 49.6333 56.5245 48.5457 56.2281C47.4582 55.9316 46.5683 55.4375 45.6785 54.7458C44.7886 54.054 44.1954 53.1647 43.6022 52.0777C43.1078 50.9907 42.8112 49.5084 42.8112 47.8284ZM66.3425 34.8831C66.3425 32.8079 66.0459 30.9304 65.3538 29.3493C64.6617 27.6693 63.7719 26.2859 62.4866 25.1989C61.2012 24.013 59.7182 23.1237 57.9385 22.5308C56.1588 21.9378 54.0825 21.5426 51.8085 21.5426C46.9638 21.5426 43.3056 22.7284 40.7349 25.1C38.1643 27.4717 36.8789 30.7327 36.8789 34.8831V46.3462C36.8789 50.4966 38.1643 53.7576 40.7349 56.1292C43.3056 58.5009 46.9638 59.6867 51.8085 59.6867C54.0825 59.6867 56.0599 59.3903 57.9385 58.6985C59.7182 58.1056 61.3001 57.2163 62.4866 56.0304C63.7719 54.8446 64.6617 53.4611 65.3538 51.88C66.0459 50.2001 66.3425 48.4214 66.3425 46.3462V34.8831ZM33.023 52.6706C31.441 53.7576 29.7602 54.5481 27.9805 55.141C26.2009 55.734 24.4212 56.0304 22.6415 56.0304C20.1697 56.0304 17.8957 55.6351 15.9183 54.8446C13.9408 54.054 12.1612 52.8682 10.777 51.3859C9.39276 49.9036 8.30518 48.1249 7.51421 46.1485C6.72324 44.0733 6.32775 41.8993 6.32775 39.4288C6.32775 37.2548 6.62437 35.2784 7.31647 33.4997C7.90969 31.6221 8.79953 30.041 9.98599 28.7564C11.1724 27.3729 12.5566 26.3847 14.2374 25.5941C15.9183 24.8036 17.7968 24.4083 19.972 24.4083C21.8505 24.5071 23.4325 24.7048 24.7178 25.0012C26.0031 25.2977 27.1896 25.5941 28.1783 25.9894C29.167 26.3847 29.958 26.6812 30.7489 27.1753C31.5399 27.5705 32.232 27.9658 33.023 28.2623C33.1218 27.5705 33.2207 26.8788 33.3196 25.9894C33.4185 25.1 33.5173 24.5071 33.6162 23.9142C31.2433 23.1237 28.9692 22.5308 26.5963 22.0367C24.2234 21.6414 21.9494 21.4437 19.8731 21.4437C17.2036 21.4437 14.6329 21.839 12.1612 22.7284C9.78824 23.5189 7.71195 24.7048 5.93227 26.3847C4.15259 28.0646 2.66952 30.041 1.58194 32.4127C0.494356 34.7843 0 37.4524 0 40.5158C0 43.5792 0.593227 46.3462 1.68081 48.7178C2.76839 51.0895 4.25146 53.0659 6.13001 54.7458C8.00856 56.3269 10.2826 57.6115 12.7544 58.4021C15.325 59.1926 17.9946 59.6867 20.8618 59.6867C21.6528 59.6867 22.6415 59.5879 23.6302 59.4891C24.6189 59.2915 25.7065 59.0938 26.7941 58.8962C27.8817 58.5997 28.8704 58.3033 29.958 57.908C30.9467 57.5127 31.9354 57.1174 32.7264 56.6233L33.023 52.6706Z" fill="#264597"/>
<path fill-rule="evenodd" clip-rule="evenodd" d="M147.714 32.9068C147.714 31.2268 148.01 29.7445 148.504 28.5587C148.999 27.3729 149.691 26.4835 150.482 25.7918C151.273 25.1001 152.262 24.606 153.25 24.3095C154.239 24.013 155.327 23.9142 156.315 23.9142C157.304 23.9142 158.392 24.013 159.38 24.3095C160.468 24.606 161.358 25.1001 162.149 25.7918C162.94 26.4835 163.632 27.3729 164.126 28.5587C164.62 29.7445 164.917 31.2268 164.917 32.9068V33.0056C164.917 33.4997 164.818 33.9938 164.818 34.4879V41.8993C166.697 42.1958 168.674 42.4922 170.553 42.7887V34.4879C170.553 33.9938 170.553 33.4997 170.454 33.0056V32.9068C170.454 31.2268 170.75 29.7445 171.245 28.5587C171.739 27.3729 172.431 26.4835 173.222 25.7918C174.013 25.1001 175.002 24.606 175.991 24.3095C177.078 24.013 178.067 23.9142 179.056 23.9142C180.044 23.9142 181.132 24.013 182.121 24.3095C183.109 24.606 184.098 25.1001 184.889 25.7918C185.68 26.4835 186.372 27.3729 186.866 28.5587C187.361 29.7445 187.657 31.128 187.657 32.9068V45.8521C189.536 46.2473 191.415 46.5438 193.392 46.9391V34.4879C193.392 30.2386 192.107 26.9776 189.635 24.5071C187.163 22.0367 183.505 20.8508 178.858 20.8508C176.683 20.8508 174.705 21.1473 172.926 21.839C171.146 22.4319 169.663 23.4201 168.476 24.5071C168.18 24.8036 167.883 25.1001 167.685 25.3965C167.389 25.1001 167.191 24.8036 166.895 24.5071C165.708 23.3213 164.225 22.4319 162.445 21.839C160.666 21.2461 158.688 20.8508 156.513 20.8508C151.767 20.8508 148.208 22.0367 145.736 24.5071C143.264 26.9776 141.979 30.2386 141.979 34.4879V38.8359C143.858 39.0335 145.736 39.33 147.714 39.5276V32.9068V32.9068ZM0.692093 34.8831C2.76839 34.7843 4.84468 34.5867 6.92098 34.4879C7.01985 34.0926 7.11872 33.6973 7.21759 33.4009C7.81082 31.5233 8.70066 29.9422 9.88711 28.6575C11.0736 27.2741 12.4578 26.2859 14.1386 25.4953C15.8194 24.7048 17.6979 24.3095 19.8731 24.3095C21.7516 24.4083 23.3336 24.606 24.6189 24.9024C25.9042 25.1989 27.0907 25.4953 28.0794 25.8906C29.0681 26.2859 29.8591 26.5823 30.6501 27.0764C31.441 27.4717 32.1331 27.867 32.9241 28.1634C33.023 27.4717 33.1218 26.78 33.2207 25.8906C33.3196 25.0012 33.4184 24.4083 33.5173 23.8154C31.1444 23.0248 28.8704 22.4319 26.4975 21.9378C24.1246 21.5426 21.8505 21.3449 19.7742 21.3449C17.1047 21.3449 14.5341 21.7402 12.0623 22.6296C9.78824 23.5189 7.71195 24.7048 5.93226 26.3847C4.15258 28.0646 2.66952 30.041 1.58193 32.4127C1.28532 33.2032 0.988706 33.9938 0.692093 34.8831ZM36.9778 33.4997C38.8564 33.4997 40.8338 33.4997 42.8112 33.4009V33.2032C42.8112 31.5233 43.1078 30.1398 43.6022 28.954C44.0965 27.867 44.7886 26.8788 45.6785 26.2859C46.5683 25.5941 47.4581 25.1001 48.5457 24.8036C49.6333 24.5071 50.622 24.4083 51.7096 24.4083C52.7972 24.4083 53.7859 24.5071 54.8735 24.8036C55.9611 25.1001 56.8509 25.5941 57.7408 26.1871C58.6306 26.8788 59.2238 27.7682 59.817 28.954C60.3114 30.1398 60.608 31.5233 60.608 33.2032V33.4997C62.4866 33.4997 64.464 33.5985 66.4414 33.5985C66.3425 32.0174 66.0459 30.5351 65.5516 29.2505C64.8595 27.5705 63.9696 26.1871 62.6843 25.1C61.399 23.9142 59.9159 23.0249 58.1362 22.4319C56.3566 21.839 54.2803 21.4437 52.0062 21.4437C47.1615 21.4437 43.5033 22.6296 40.9327 25.0012C38.5597 27.1753 37.2744 30.041 36.9778 33.4997ZM107.176 35.5749C109.154 35.6737 111.032 35.8713 113.01 35.9702V21.6414H107.176V35.5749ZM130.708 37.6501C132.685 37.8477 134.564 38.0454 136.541 38.243V21.6414H130.708V37.6501ZM199.72 48.2237C201.697 48.619 203.576 49.1131 205.553 49.5084C205.454 49.0143 205.454 48.5202 205.454 48.0261V40.3182H219.296V37.9465H205.454V32.3138C205.454 30.9304 205.454 29.7445 205.553 28.7564C205.553 27.7682 205.751 26.9776 205.949 26.3847C206.146 25.7918 206.542 25.2977 206.937 24.9024C207.432 24.606 208.025 24.3095 208.816 24.2107H225.031V21.4437H199.621V46.445C199.621 47.0379 199.72 47.6308 199.72 48.2237ZM233.237 56.821C236.203 57.7103 239.169 58.6985 242.135 59.6867C242.531 59.6867 242.926 59.6867 243.322 59.6867H254V57.0186H243.322C242.234 57.0186 241.246 56.9198 240.158 56.6233C239.07 56.3269 238.181 55.8328 237.291 55.141C236.5 54.4493 235.808 53.5599 235.214 52.4729C234.72 51.3859 234.424 49.9036 234.424 48.2237V21.5426H228.59V46.445C228.59 50.4966 229.875 53.7576 232.347 56.1292C232.644 56.3269 232.94 56.6233 233.237 56.821Z" fill="#009FE3"/>
<path fill-rule="evenodd" clip-rule="evenodd" d="M66.1448 71.7427C70.3963 72.8297 75.5376 72.9285 79.2947 72.7309C82.3597 72.6321 85.4247 72.3356 88.4897 71.8415C90.9615 71.4462 93.5321 70.9522 96.0039 70.2604C97.487 69.8651 98.97 69.371 100.453 68.877C102.134 68.3829 103.914 67.7899 105.594 67.2958C107.967 66.6041 110.835 65.7147 113.405 65.7147C115.976 65.7147 118.547 66.2088 121.018 66.9994C121.612 67.197 122.205 67.3947 122.798 67.5923C125.566 68.6793 128.137 70.0628 130.609 71.6439C135.355 74.5096 140.694 78.2648 146.23 79.4506C150.383 80.34 154.041 79.5494 157.699 77.6719C166.005 73.3238 171.838 67.9876 176.485 63.2443C171.739 70.2604 166.697 76.2884 159.084 80.2411C154.832 82.514 150.383 83.3045 145.637 82.3164C134.267 79.9447 125.566 68.6793 113.504 68.6793C111.329 68.6793 108.659 69.4699 106.583 70.0628C103.32 71.051 100.156 72.138 96.8937 73.0274C85.919 76.0907 68.9132 77.3754 58.9272 71.6439L59.4216 70.8533L64.7606 63.7384C64.9584 63.4419 65.255 63.1454 65.5516 62.7502C66.8369 61.1691 78.2071 46.6427 79.6902 44.7651C81.1732 42.9864 82.5574 41.01 84.1394 39.1324C85.6224 37.156 87.1055 35.3773 88.4897 33.4997C89.8739 31.721 91.2581 29.9422 92.5434 28.3611C93.8287 26.78 94.9163 25.3966 95.8062 24.2107L70.594 24.3095V21.345H103.815V23.7166C103.419 24.1119 102.727 24.9025 101.837 26.0883C100.849 27.2741 99.6621 28.7564 98.2779 30.5351C96.8937 32.3139 95.3118 34.2903 93.631 36.4643C91.9502 38.6383 90.1705 40.9112 88.4897 43.184C86.71 45.4568 74.8455 60.5761 73.1647 62.849L72.4726 63.8372L66.1448 71.7427Z" fill="url(#paint0_linear)"/>
<path fill-rule="evenodd" clip-rule="evenodd" d="M56.4554 76.6836C57.2464 77.0789 58.1362 77.3754 58.9272 77.7706C71.4838 83.5021 84.436 79.3517 96.5971 75.6954C98.3768 75.2013 100.156 74.6084 101.936 74.1143C104.408 73.4226 107.374 72.5332 109.945 72.5332C112.614 72.5332 115.185 73.0273 117.756 73.8179C118.349 74.0155 118.942 74.2131 119.535 74.4108C122.304 75.4978 124.973 76.8813 127.643 78.4624C132.586 81.3281 138.123 84.8856 143.858 86.2691C157.699 89.6289 169.267 77.9683 175.2 70.0627C170.355 77.0789 163.236 87.5537 155.327 91.5065C150.877 93.7793 146.329 94.5699 141.386 93.5817C129.62 91.21 120.623 79.9447 108.165 79.9447C105.891 79.9447 103.123 80.7352 100.947 81.3281C97.5858 82.3163 94.3231 83.4033 90.8626 84.2927C88.1931 84.9844 85.4247 85.4785 82.7552 85.8738C70.6929 87.5537 62.9809 86.862 51.8085 80.6364L55.269 75.9919L56.4554 76.6836Z" fill="url(#paint1_linear)"/>
<path fill-rule="evenodd" clip-rule="evenodd" d="M40.3394 9.09135C40.4383 9.09135 40.4383 8.99254 40.4383 8.99254V6.42324C40.4383 6.32442 40.4383 6.32442 40.3394 6.32442H39.944C39.944 6.32442 39.8451 6.32442 39.8451 6.42324L39.7462 7.70789C39.6473 8.39962 39.4496 8.59726 38.5598 8.59726H36.3846C35.7914 8.59726 35.6925 8.49844 35.6925 7.70789V4.74332C35.6925 4.74332 35.6925 4.6445 35.7914 4.6445H37.3733C37.8677 4.6445 37.9665 4.74332 37.9665 5.03977L38.0654 5.83033C38.0654 5.92914 38.0654 5.92914 38.1643 5.92914H38.4609H38.5598V2.96457C38.5598 2.96457 38.5598 2.96457 38.4609 2.96457H38.1643C38.1643 2.96457 38.0654 2.96457 38.0654 3.06339L37.9665 3.75512C37.9665 4.05158 37.7688 4.1504 37.3733 4.1504H35.7914C35.7914 4.1504 35.6925 4.1504 35.6925 4.05158V1.38347C35.6925 0.691734 35.7914 0.494095 36.3846 0.494095H38.362C39.2519 0.494095 39.4496 0.691734 39.5485 1.38347L39.6473 2.66812C39.6473 2.76693 39.6473 2.76693 39.7462 2.76693H40.1417C40.1417 2.76693 40.2406 2.76693 40.2406 2.66812V0.0988191C40.2406 0 40.1417 0 40.1417 0H33.4185C33.4185 0 33.4185 0 33.4185 0.0988191V0.296457C33.4185 0.296457 33.4185 0.395276 33.5173 0.395276H33.7151C34.4072 0.395276 34.6049 0.395276 34.6049 1.67992V8.20198C34.6049 8.49844 34.506 8.59726 34.3083 8.69608L33.5173 8.7949C33.5173 8.7949 33.5173 8.7949 33.5173 8.89372V9.09135V9.19017H40.3394V9.09135ZM44.0965 9.19017L44.1954 8.89372C44.1954 8.7949 44.2943 8.7949 44.3932 8.7949C44.6898 8.99254 45.283 9.28899 46.2717 9.28899C47.4582 9.19017 48.4469 8.49844 48.4469 7.31261C48.4469 6.2256 47.3593 5.73151 46.3706 5.43505C45.3819 5.13859 44.7886 4.84213 44.7886 4.34804C44.7886 3.85394 45.1841 3.45867 45.8762 3.45867C46.4695 3.45867 47.0627 3.65631 47.3593 4.24922C47.4582 4.34804 47.557 4.74332 47.6559 4.94095C47.6559 5.03977 47.6559 5.03977 47.7548 5.03977H47.9525C47.9525 5.03977 48.0514 5.03977 48.0514 4.94095V2.96457H47.8536C47.8536 2.96457 47.8536 2.96457 47.7548 2.96457L47.6559 3.16221C47.6559 3.26103 47.557 3.26103 47.4582 3.26103C47.0627 3.06339 46.5683 2.86575 45.8762 2.86575C44.8875 2.86575 43.8988 3.35985 43.8988 4.54568C43.8988 5.63269 44.7886 6.02796 45.7774 6.32442C46.6672 6.62088 47.557 6.81852 47.557 7.51025C47.557 8.10316 47.0627 8.59726 46.1728 8.59726C45.3819 8.59726 44.7886 8.39962 44.3932 7.70789C44.2943 7.51025 44.1954 7.21379 44.0965 6.91734C44.0965 6.81852 44.0965 6.81852 43.9977 6.81852H43.7999C43.7999 6.81852 43.7011 6.81852 43.7011 6.91734V9.09135H44.0965V9.19017ZM55.0712 7.11497C55.0712 6.91734 55.0712 6.91734 54.8735 6.91734H54.6758C54.5769 6.91734 54.5769 6.91734 54.5769 7.01615V7.41143C54.5769 8.3008 54.2803 8.59726 53.7859 8.59726C53.1927 8.59726 52.9949 8.00435 52.9949 7.21379V3.55749H54.6758C54.6758 3.55749 54.7746 3.55749 54.7746 3.45867V3.06339C54.7746 3.06339 54.7746 2.96457 54.6758 2.96457H52.9949V1.18583C52.9949 1.08701 52.9949 1.08701 52.8961 1.08701H52.5006C52.4017 1.08701 52.4017 1.08701 52.3029 1.18583L52.204 1.97638C52.1051 2.86575 51.9074 3.06339 51.1164 3.06339H50.8198C50.8198 3.06339 50.7209 3.06339 50.7209 3.16221V3.55749C50.7209 3.55749 50.7209 3.65631 50.8198 3.65631H51.8085V7.11497C51.8085 7.60907 51.8085 7.90553 51.9074 8.10316C52.1051 8.7949 52.5995 9.28899 53.4893 9.28899C54.5769 9.28899 54.9724 8.49844 54.9724 7.51025V7.11497H55.0712ZM62.7832 7.60907H62.6843C62.19 8.20198 61.6956 8.49844 60.9046 8.49844C59.8171 8.49844 59.0261 7.80671 59.0261 6.2256C59.0261 6.12678 59.0261 6.02796 59.125 6.02796H62.8821C62.9809 6.02796 63.0798 5.92914 63.0798 5.83033C63.0798 4.1504 62.19 2.86575 60.608 2.86575C59.0261 2.86575 57.8396 4.1504 57.8396 6.02796C57.8396 7.90553 59.0261 9.19017 60.7069 9.19017C61.6956 9.19017 62.3877 8.7949 62.9809 7.90553V7.80671L62.7832 7.60907ZM59.2238 5.53387C59.0261 5.53387 59.0261 5.53387 59.0261 5.23741C59.125 4.1504 59.7182 3.45867 60.5092 3.45867C61.399 3.45867 61.8934 4.1504 61.9922 5.43505C61.9922 5.53387 61.9922 5.53387 61.8934 5.53387H59.2238ZM61.6956 1.18583C62.0911 0.988191 62.19 0.790553 61.9922 0.494095C61.7945 0.197638 61.4979 0.0988191 61.2013 0.395276L59.125 1.87756C59.0261 1.87756 59.0261 1.97638 59.125 2.0752C59.3227 2.17402 59.3227 2.17402 59.4216 2.17402L61.6956 1.18583ZM69.803 7.11497C69.803 6.91734 69.803 6.91734 69.6053 6.91734H69.4076C69.3087 6.91734 69.3087 6.91734 69.3087 7.01615V7.41143C69.3087 8.3008 69.0121 8.59726 68.5177 8.59726C67.9245 8.59726 67.7268 8.00435 67.7268 7.21379V3.55749H69.4076C69.4076 3.55749 69.5064 3.55749 69.5064 3.45867V3.06339C69.5064 3.06339 69.5064 2.96457 69.4076 2.96457H67.7268V1.18583C67.7268 1.08701 67.7268 1.08701 67.6279 1.08701H67.2324C67.1335 1.08701 67.1335 1.08701 67.0347 1.18583L66.9358 1.97638C66.8369 2.86575 66.6392 3.06339 65.8482 3.06339H65.5516C65.5516 3.06339 65.4527 3.06339 65.4527 3.16221V3.55749C65.4527 3.55749 65.4527 3.65631 65.5516 3.65631H66.5403V7.11497C66.5403 7.60907 66.5403 7.90553 66.6392 8.10316C66.8369 8.7949 67.3313 9.28899 68.2211 9.28899C69.3087 9.28899 69.7042 8.49844 69.7042 7.51025V7.11497H69.803ZM75.3398 9.09135C75.4387 9.09135 75.4387 9.09135 75.3398 9.09135V8.7949C75.3398 8.7949 75.3398 8.69608 75.241 8.69608H74.9443C74.45 8.69608 74.2522 8.49844 74.2522 7.70789V3.06339V2.96457H72.176C72.176 2.96457 72.176 2.96457 72.176 3.06339V3.26103C72.176 3.26103 72.176 3.35985 72.2748 3.35985H72.4726C73.0658 3.35985 73.2635 3.45867 73.2635 4.34804V8.10316C73.2635 8.39962 73.1647 8.49844 72.9669 8.59726L72.2748 8.69608C72.2748 8.69608 72.2748 8.69608 72.2748 8.7949V8.99254V9.09135H75.3398V9.09135ZM74.45 1.08701C74.45 0.691734 74.1534 0.296457 73.659 0.296457C73.2635 0.296457 72.9669 0.592914 72.9669 1.08701C72.9669 1.48229 73.2635 1.77874 73.659 1.77874C74.1534 1.77874 74.45 1.48229 74.45 1.08701ZM82.9529 7.51025H82.854C82.4586 8.20198 81.8653 8.49844 81.0744 8.49844C79.9868 8.49844 79.1958 7.60907 79.1958 5.83033C79.1958 4.34804 79.8879 3.35985 80.8766 3.35985C81.0744 3.35985 81.371 3.35985 81.5687 3.55749C81.6676 3.55749 81.6676 3.65631 81.6676 3.65631C81.6676 3.75512 81.4698 3.95276 81.4698 4.24922C81.4698 4.6445 81.7665 4.94095 82.1619 4.94095C82.5574 4.94095 82.854 4.6445 82.854 4.1504C82.854 3.35985 81.8653 2.76693 80.8766 2.76693C79.1958 2.76693 78.0094 4.05158 78.0094 5.92914C78.0094 7.80671 79.1958 9.09135 80.8766 9.09135C81.8653 9.09135 82.6563 8.59726 83.1506 7.60907V7.51025H82.9529ZM89.775 6.7197C89.775 7.11497 89.6761 7.31261 89.6761 7.41143C89.4784 7.90553 88.8852 8.59726 88.1931 8.59726C87.5999 8.59726 87.2044 8.20198 87.2044 7.60907C87.2044 6.42324 88.2919 6.12678 89.5773 6.02796C89.775 6.02796 89.775 6.02796 89.775 6.2256V6.7197V6.7197ZM92.0491 7.70789C92.0491 7.60907 92.0491 7.60907 91.9502 7.60907H91.7524C91.6536 7.60907 91.6536 7.60907 91.6536 7.70789V8.00435C91.6536 8.39962 91.5547 8.69608 91.2581 8.69608C90.9615 8.69608 90.8626 8.39962 90.8626 7.70789V5.43505C90.8626 3.65631 90.0716 2.96457 88.5886 2.96457C87.501 2.96457 86.5123 3.55749 86.5123 4.34804C86.5123 4.74332 86.8089 5.13859 87.2044 5.13859C87.5999 5.13859 87.8965 4.84213 87.8965 4.44686C87.8965 4.1504 87.6987 3.95276 87.6987 3.75512C87.6987 3.75512 87.6987 3.65631 87.7976 3.65631C87.9953 3.55749 88.292 3.45867 88.4897 3.45867C89.3795 3.45867 89.775 3.95276 89.775 4.94095V5.23741C89.775 5.43505 89.775 5.43505 89.5773 5.53387C87.5999 5.63269 86.0179 6.12678 86.0179 7.60907C86.0179 8.69608 86.9078 9.28899 87.8965 9.28899C88.7863 9.28899 89.3795 8.89372 89.8739 8.10316C89.9728 8.89372 90.4671 9.28899 91.0603 9.28899C91.7524 9.28899 92.0491 8.69608 92.0491 8.00435V7.70789V7.70789ZM108.066 7.60907H107.967C107.473 8.20198 106.979 8.49844 106.188 8.49844C105.1 8.49844 104.309 7.80671 104.309 6.2256C104.309 6.12678 104.309 6.02796 104.408 6.02796H108.165C108.264 6.02796 108.363 5.92914 108.363 5.83033C108.363 4.1504 107.473 2.86575 105.891 2.86575C104.309 2.86575 103.123 4.1504 103.123 6.02796C103.123 7.90553 104.309 9.19017 105.99 9.19017C106.979 9.19017 107.671 8.7949 108.264 7.90553V7.80671L108.066 7.60907ZM104.507 5.53387C104.309 5.53387 104.309 5.53387 104.309 5.23741C104.408 4.1504 105.001 3.45867 105.792 3.45867C106.682 3.45867 107.176 4.1504 107.275 5.43505C107.275 5.53387 107.275 5.53387 107.176 5.53387H104.507ZM123.391 9.09135C125.369 9.09135 126.555 8.20198 126.555 6.52206C126.555 5.33623 125.764 4.44686 124.38 4.1504C125.468 3.75512 125.962 2.96457 125.962 2.0752C125.962 0.691733 124.677 0 122.996 0H119.535C119.535 0 119.535 0 119.535 0.0988191V0.296457C119.535 0.296457 119.535 0.395276 119.634 0.395276H119.832C120.524 0.494095 120.722 0.494095 120.722 1.67992V8.20198C120.722 8.49844 120.623 8.59726 120.425 8.69608L119.634 8.7949C119.634 8.7949 119.634 8.7949 119.634 8.89372V9.09135V9.19017H123.391V9.09135ZM122.501 8.49844C121.908 8.49844 121.809 8.3008 121.809 7.60907V4.54568C121.809 4.54568 121.809 4.44686 121.908 4.44686H122.996C124.578 4.44686 125.369 5.03977 125.369 6.52206C125.369 7.90553 124.578 8.39962 123.391 8.39962H122.501V8.49844ZM121.908 3.85394C121.809 3.85394 121.809 3.85394 121.908 3.85394L121.809 1.38347C121.809 0.691734 121.908 0.494095 122.501 0.494095H122.897C123.984 0.494095 124.775 0.691734 124.775 1.97638C124.775 3.26103 124.182 3.85394 122.897 3.85394H121.908ZM134.663 7.60907H134.564C134.069 8.20198 133.575 8.49844 132.784 8.49844C131.696 8.49844 130.905 7.80671 130.905 6.2256C130.905 6.12678 130.905 6.02796 131.004 6.02796H134.761C134.86 6.02796 134.959 5.92914 134.959 5.83033C134.959 4.1504 134.069 2.86575 132.487 2.86575C130.905 2.86575 129.719 4.1504 129.719 6.02796C129.719 7.90553 130.905 9.19017 132.586 9.19017C133.575 9.19017 134.267 8.7949 134.86 7.90553V7.80671L134.663 7.60907ZM131.103 5.53387C130.905 5.53387 130.905 5.53387 130.905 5.23741C131.004 4.1504 131.598 3.45867 132.388 3.45867C133.278 3.45867 133.773 4.1504 133.872 5.43505C133.872 5.53387 133.872 5.53387 133.773 5.53387H131.103ZM148.307 9.09135C148.307 9.09135 148.406 9.09135 148.307 9.09135V8.7949C148.307 8.7949 148.307 8.69608 148.208 8.69608H148.01C147.417 8.69608 147.219 8.49844 147.219 7.70789V5.43505C147.219 4.84213 147.12 4.44686 147.021 4.1504C146.725 3.26103 146.132 2.86575 145.242 2.86575C144.451 2.86575 143.759 3.26103 143.165 4.1504C142.869 3.26103 142.276 2.86575 141.386 2.86575C140.595 2.86575 139.903 3.26103 139.408 4.05158V3.16221V3.06339H137.53C137.53 3.06339 137.53 3.06339 137.53 3.16221V3.35985C137.53 3.35985 137.53 3.45867 137.629 3.45867H137.826C138.42 3.45867 138.617 3.55749 138.617 4.44686V8.20198C138.617 8.49844 138.518 8.59726 138.321 8.69608L137.728 8.7949C137.728 8.7949 137.728 8.7949 137.728 8.89372V9.09135V9.19017H140.694C140.694 9.19017 140.694 9.19017 140.694 9.09135V8.7949C140.694 8.7949 140.694 8.69608 140.595 8.69608H140.397C139.804 8.69608 139.705 8.49844 139.705 7.70789V5.43505C139.705 5.03977 139.804 4.74332 139.903 4.44686C140.199 3.85394 140.793 3.45867 141.287 3.45867C142.078 3.45867 142.374 4.05158 142.374 5.23741V8.10316C142.374 8.39962 142.276 8.49844 142.078 8.59726L141.583 8.69608C141.583 8.69608 141.583 8.69608 141.583 8.7949V8.99254V9.09135H144.451C144.451 9.09135 144.451 9.09136 144.451 8.99254V8.7949C144.451 8.7949 144.451 8.69608 144.352 8.69608H144.154C143.561 8.69608 143.363 8.49844 143.363 7.70789V5.33623C143.363 5.03977 143.462 4.74332 143.561 4.44686C143.858 3.85394 144.451 3.45867 144.945 3.45867C145.736 3.45867 146.033 4.05158 146.033 5.23741V8.10316C146.033 8.39962 145.934 8.49844 145.736 8.59726L145.242 8.69608C145.242 8.69608 145.242 8.69608 145.242 8.7949V8.99254V9.09135H148.307V9.09135ZM154.239 5.33623L154.338 4.74332C154.338 4.74332 154.338 4.6445 154.239 4.6445H151.075C151.075 4.6445 150.976 4.6445 150.976 4.74332V5.23741C150.976 5.23741 150.976 5.33623 151.075 5.33623H154.239ZM162.346 7.60907H162.248C161.753 8.20198 161.259 8.49844 160.468 8.49844C159.38 8.49844 158.589 7.80671 158.589 6.2256C158.589 6.12678 158.589 6.02796 158.688 6.02796H162.445C162.544 6.02796 162.643 5.92914 162.643 5.83033C162.643 4.1504 161.753 2.86575 160.171 2.86575C158.589 2.86575 157.403 4.1504 157.403 6.02796C157.403 7.90553 158.589 9.19017 160.27 9.19017C161.259 9.19017 161.951 8.7949 162.544 7.90553V7.80671L162.346 7.60907ZM158.787 5.53387C158.589 5.53387 158.589 5.53387 158.589 5.23741C158.688 4.1504 159.281 3.45867 160.072 3.45867C160.962 3.45867 161.457 4.1504 161.555 5.43505C161.555 5.53387 161.555 5.53387 161.457 5.53387H158.787ZM166.104 9.19017L166.202 8.89372C166.202 8.7949 166.301 8.7949 166.4 8.7949C166.697 8.99254 167.29 9.28899 168.279 9.28899C169.465 9.28899 170.454 8.59726 170.454 7.41143C170.454 6.32442 169.366 5.83033 168.378 5.53387C167.389 5.23741 166.796 4.94095 166.796 4.44686C166.796 3.95276 167.191 3.55749 167.883 3.55749C168.476 3.55749 169.07 3.75512 169.366 4.34804C169.465 4.54568 169.564 4.84213 169.564 5.03977C169.564 5.13859 169.564 5.13859 169.663 5.13859H169.861C169.861 5.13859 169.96 5.13859 169.96 5.03977V2.96457H169.762C169.762 2.96457 169.762 2.96457 169.663 2.96457L169.564 3.16221C169.564 3.26103 169.465 3.26103 169.366 3.26103C168.971 3.06339 168.476 2.86575 167.784 2.86575C166.796 2.86575 165.807 3.35985 165.807 4.54568C165.807 5.63269 166.697 6.02796 167.685 6.32442C168.575 6.62088 169.465 6.81852 169.465 7.51025C169.465 8.10316 168.971 8.59726 168.081 8.59726C167.29 8.59726 166.697 8.39962 166.301 7.70789C166.202 7.51025 166.104 7.21379 166.005 6.91734C166.005 6.81852 166.005 6.81852 165.906 6.81852H165.708C165.708 6.81852 165.609 6.81852 165.609 6.91734V9.09135H166.104V9.19017ZM177.078 7.11497C177.078 6.91734 177.078 6.91734 176.881 6.91734H176.683C176.584 6.91734 176.584 6.91734 176.584 7.01615V7.41143C176.584 8.3008 176.287 8.59726 175.793 8.59726C175.2 8.59726 175.002 8.00435 175.002 7.21379V3.55749H176.683C176.683 3.55749 176.782 3.55749 176.782 3.45867V3.06339C176.782 3.06339 176.782 2.96457 176.683 2.96457H175.002V1.18583C175.002 1.08701 175.002 1.08701 174.903 1.08701H174.508C174.409 1.08701 174.409 1.08701 174.31 1.18583L174.211 1.97638C174.112 2.86575 173.914 3.06339 173.123 3.06339H172.827C172.827 3.06339 172.728 3.06339 172.728 3.16221V3.55749C172.728 3.55749 172.728 3.65631 172.827 3.65631H173.816V7.11497C173.816 7.60907 173.815 7.90553 173.914 8.10316C174.112 8.7949 174.606 9.28899 175.496 9.28899C176.584 9.28899 176.979 8.49844 176.979 7.51025V7.11497H177.078ZM183.604 6.7197C183.604 7.11497 183.505 7.31261 183.505 7.41143C183.307 7.90553 182.714 8.59726 182.022 8.59726C181.429 8.59726 181.033 8.20198 181.033 7.60907C181.033 6.42324 182.121 6.12678 183.406 6.02796C183.604 6.02796 183.604 6.02796 183.604 6.2256V6.7197ZM185.878 7.70789C185.878 7.60907 185.878 7.60907 185.779 7.60907H185.581C185.482 7.60907 185.482 7.60907 185.482 7.70789V8.00435C185.482 8.39962 185.383 8.69608 185.087 8.69608C184.79 8.69608 184.691 8.39962 184.691 7.70789V5.43505C184.691 3.65631 183.9 2.96457 182.417 2.96457C181.33 2.96457 180.341 3.55749 180.341 4.34804C180.341 4.74332 180.638 5.13859 181.033 5.13859C181.429 5.13859 181.725 4.84213 181.725 4.44686C181.725 4.1504 181.527 3.95276 181.527 3.75512C181.527 3.75512 181.527 3.65631 181.626 3.65631C181.824 3.55749 182.121 3.45867 182.318 3.45867C183.208 3.45867 183.604 3.95276 183.604 4.94095V5.23741C183.604 5.43505 183.604 5.43505 183.406 5.53387C181.429 5.63269 179.847 6.12678 179.847 7.60907C179.847 8.69608 180.736 9.28899 181.725 9.28899C182.615 9.28899 183.208 8.89372 183.703 8.10316C183.801 8.89372 184.296 9.28899 184.889 9.28899C185.581 9.28899 185.878 8.69608 185.878 8.00435V7.70789ZM191.316 9.09135V8.7949C191.316 8.7949 191.316 8.69608 191.217 8.69608H191.019C190.327 8.59726 190.228 8.59726 190.228 7.51025V5.73151C190.228 4.24922 191.118 3.45867 191.81 3.45867C191.909 3.45867 192.107 3.45867 192.107 3.55749C192.107 3.65631 192.008 3.75512 192.008 3.95276C192.008 4.24922 192.304 4.54568 192.7 4.54568C193.095 4.54568 193.392 4.24922 193.392 3.75512C193.392 3.06339 192.7 2.76693 192.206 2.76693C191.513 2.76693 190.821 3.16221 190.327 3.95276V2.96457V2.86575H188.448C188.448 2.86575 188.448 2.86575 188.448 2.96457V3.16221C188.448 3.16221 188.448 3.26103 188.547 3.26103H188.745C189.338 3.26103 189.536 3.35985 189.536 4.24922V8.00435C189.536 8.3008 189.437 8.39962 189.239 8.49844L188.646 8.59726C188.646 8.59726 188.646 8.59726 188.646 8.69608V8.89372V8.99254H191.316V9.09135Z" fill="#264597"/>
<defs>
<linearGradient id="paint0_linear" x1="105.259" y1="55.2263" x2="133.52" y2="83.5024" gradientUnits="userSpaceOnUse">
<stop stop-color="#264597"/>
<stop offset="1" stop-color="#009FE3"/>
</linearGradient>
<linearGradient id="paint1_linear" x1="103.255" y1="64.6601" x2="156.673" y2="120.005" gradientUnits="userSpaceOnUse">
<stop stop-color="#009FE3"/>
<stop offset="1" stop-color="white"/>
</linearGradient>
</defs>
</svg>
