<svg width="160" height="60" viewBox="0 0 160 60" fill="none" xmlns="http://www.w3.org/2000/svg">
<path fill-rule="evenodd" clip-rule="evenodd" d="M93.0479 20.7396C93.0479 19.6808 93.2347 18.7466 93.5461 17.9992C93.8575 17.2518 94.2935 16.6913 94.7917 16.2553C95.29 15.8194 95.9128 15.508 96.5356 15.3211C97.1584 15.1343 97.8435 15.072 98.4663 15.072C99.0891 15.072 99.7742 15.1343 100.397 15.3211C101.082 15.508 101.643 15.8194 102.141 16.2553C102.639 16.6913 103.075 17.2518 103.387 17.9992C103.698 18.7466 103.885 19.6808 103.885 20.7396V20.8019C103.885 21.1133 103.822 21.4247 103.822 21.7361V37.5555H103.885H107.435H107.497V21.7361C107.497 21.4247 107.497 21.1133 107.435 20.8019V20.7396C107.435 19.6808 107.622 18.7466 107.933 17.9992C108.244 17.2518 108.68 16.6913 109.179 16.2553C109.677 15.8194 110.3 15.508 110.923 15.3211C111.608 15.1343 112.23 15.072 112.853 15.072C113.476 15.072 114.161 15.1343 114.784 15.3211C115.407 15.508 116.03 15.8194 116.528 16.2553C117.026 16.6913 117.462 17.2518 117.773 17.9992C118.085 18.7466 118.272 19.6185 118.272 20.7396V37.5555H121.884V21.7361C121.884 19.058 121.074 17.0027 119.517 15.4457C117.96 13.8887 115.656 13.1413 112.729 13.1413C111.359 13.1413 110.113 13.3281 108.992 13.7641C107.871 14.1378 106.937 14.7606 106.189 15.4457C106.002 15.6325 105.815 15.8194 105.691 16.0062C105.504 15.8194 105.38 15.6325 105.193 15.4457C104.445 14.6983 103.511 14.1378 102.39 13.7641C101.269 13.3904 100.023 13.1413 98.6532 13.1413C95.6637 13.1413 93.4216 13.8887 91.8645 15.4457C90.3075 17.0027 89.4979 19.058 89.4979 21.7361V37.5555H93.1102V20.7396H93.0479ZM160 35.9984H153.274C152.589 35.9984 151.966 35.9362 151.281 35.7493C150.596 35.5625 150.035 35.2511 149.475 34.8151C148.976 34.3791 148.54 33.8186 148.167 33.1335C147.855 32.4484 147.668 31.5142 147.668 30.4554V13.5773H143.994V29.2721C143.994 31.8256 144.803 33.8809 146.36 35.3756C147.917 36.8704 150.222 37.6178 153.211 37.6178H159.938V35.9984H160ZM141.752 35.8116H135.025C134.34 35.8116 133.717 35.7493 133.032 35.5625C132.347 35.3756 131.787 35.0642 131.226 34.6283C130.728 34.1923 130.292 33.6318 129.918 32.9467C129.607 32.2616 129.42 31.3274 129.42 30.2686V25.4107H138.139V23.9159H129.42V20.3659C129.42 19.494 129.42 18.7466 129.482 18.1238C129.482 17.501 129.607 17.0027 129.731 16.629C129.856 16.2553 130.105 15.9439 130.354 15.6948C130.666 15.508 131.039 15.3211 131.538 15.2589H141.752V13.515H125.745V29.2721C125.745 31.8256 126.555 33.8809 128.112 35.3756C129.669 36.8704 131.974 37.6178 134.963 37.6178H141.689V35.8116H141.752ZM82.3355 30.144C82.3355 31.2028 82.1487 32.0747 81.8373 32.8221C81.5259 33.5072 81.0899 34.13 80.5294 34.5037C79.9689 34.9397 79.4083 35.2511 78.7232 35.4379C78.0381 35.6248 77.4153 35.687 76.7302 35.687C76.0452 35.687 75.4223 35.6248 74.7373 35.4379C74.0522 35.2511 73.4916 34.9397 72.9311 34.566C72.3706 34.13 71.9969 33.5695 71.6232 32.8221C71.3118 32.0747 71.1249 31.2028 71.1249 30.144V13.6395H67.4504V29.2098C67.4504 30.5177 67.6372 31.701 68.0732 32.6975C68.5091 33.7563 69.0697 34.6283 69.8793 35.3134C70.689 36.0607 71.6232 36.6213 72.7443 36.9949C73.8653 37.3686 75.1732 37.6178 76.6057 37.6178C79.6575 37.6178 81.9619 36.8704 83.5812 35.3756C85.2005 33.8809 86.0101 31.8256 86.0101 29.2098V13.6395H82.3355V30.144ZM26.9677 30.144V20.9887C26.9677 19.9299 27.1545 19.058 27.4659 18.3106C27.7773 17.6255 28.2133 17.0027 28.7738 16.629C29.3344 16.1931 29.8949 15.8817 30.58 15.6948C31.2651 15.508 31.8879 15.4457 32.573 15.4457C33.2581 15.4457 33.8809 15.508 34.566 15.6948C35.2511 15.8817 35.8116 16.1931 36.3721 16.5668C36.9327 17.0027 37.3063 17.5633 37.68 18.3106C37.9914 19.058 38.1783 19.9299 38.1783 20.9887V30.144C38.1783 31.2028 37.9914 32.137 37.68 32.8221C37.3686 33.5695 36.9327 34.13 36.3721 34.566C35.8116 35.0019 35.2511 35.3134 34.566 35.4379C33.8809 35.6248 33.2581 35.687 32.573 35.687C31.8879 35.687 31.2651 35.6248 30.58 35.4379C29.8949 35.2511 29.3344 34.9397 28.7738 34.5037C28.2133 34.0677 27.8396 33.5072 27.4659 32.8221C27.1545 32.137 26.9677 31.2028 26.9677 30.144ZM41.7906 21.9852C41.7906 20.6773 41.6037 19.494 41.1678 18.4975C40.7318 17.4387 40.1713 16.5668 39.3616 15.8817C38.552 15.1343 37.6177 14.5738 36.4967 14.2001C35.3756 13.8264 34.0677 13.5773 32.6353 13.5773C29.5835 13.5773 27.2791 14.3246 25.6598 15.8194C24.0405 17.3141 23.2308 19.3694 23.2308 21.9852V29.2098C23.2308 31.8256 24.0405 33.8809 25.6598 35.3756C27.2791 36.8704 29.5835 37.6178 32.6353 37.6178C34.0677 37.6178 35.3134 37.4309 36.4967 36.9949C37.6177 36.6213 38.6142 36.0607 39.3616 35.3134C40.1713 34.566 40.7318 33.694 41.1678 32.6975C41.6037 31.6388 41.7906 30.5177 41.7906 29.2098V21.9852ZM20.8019 33.1958C19.8054 33.8809 18.7466 34.3791 17.6255 34.7528C16.5045 35.1265 15.3834 35.3134 14.2624 35.3134C12.7053 35.3134 11.2729 35.0642 10.0272 34.566C8.78163 34.0677 7.66057 33.3204 6.78863 32.3861C5.9167 31.4519 5.23161 30.3309 4.73336 29.0852C4.23511 27.7773 3.98599 26.4072 3.98599 24.8501C3.98599 23.48 4.17283 22.2343 4.6088 21.1133C4.98248 19.9299 5.54301 18.9334 6.29039 18.1238C7.03776 17.2518 7.90969 16.629 8.96847 16.1308C10.0272 15.6325 11.2106 15.3834 12.5808 15.3834C13.7641 15.4457 14.7606 15.5703 15.5703 15.7571C16.3799 15.9439 17.1273 16.1308 17.7501 16.3799C18.3729 16.629 18.8712 16.8159 19.3694 17.1273C19.8677 17.3764 20.3036 17.6255 20.8019 17.8124C20.8642 17.3764 20.9264 16.9404 20.9887 16.3799C21.051 15.8194 21.1133 15.4457 21.1756 15.072C19.6808 14.5738 18.2483 14.2001 16.7536 13.8887C15.2589 13.6395 13.8264 13.515 12.5185 13.515C10.8369 13.515 9.21759 13.7641 7.66057 14.3246C6.16582 14.8229 4.85792 15.5703 3.73686 16.629C2.6158 17.6878 1.68159 18.9334 0.996497 20.4282C0.311405 21.9229 0 23.6045 0 25.5352C0 27.4659 0.373686 29.2098 1.05878 30.7046C1.74387 32.1993 2.67808 33.4449 3.86142 34.5037C5.04476 35.5002 6.47723 36.3098 8.03425 36.8081C9.65356 37.3063 11.3351 37.6178 13.1413 37.6178C13.6395 37.6178 14.2624 37.5555 14.8852 37.4932C15.508 37.3686 16.1931 37.2441 16.8782 37.1195C17.5633 36.9327 18.1861 36.7458 18.8712 36.4967C19.494 36.2476 20.1168 35.9984 20.615 35.687L20.8019 33.1958Z" fill="white"/>
<path fill-rule="evenodd" clip-rule="evenodd" d="M93.0479 20.7396C93.0479 19.6808 93.2347 18.7466 93.5461 17.9992C93.8575 17.2518 94.2935 16.6913 94.7918 16.2553C95.29 15.8194 95.9128 15.508 96.5356 15.3211C97.1584 15.1343 97.8435 15.072 98.4663 15.072C99.0891 15.072 99.7742 15.1343 100.397 15.3211C101.082 15.508 101.643 15.8194 102.141 16.2553C102.639 16.6913 103.075 17.2518 103.387 17.9992C103.698 18.7466 103.885 19.6808 103.885 20.7396V20.8019C103.885 21.1133 103.823 21.4247 103.823 21.7361V26.4072C105.006 26.594 106.251 26.7808 107.435 26.9677V21.7361C107.435 21.4247 107.435 21.1133 107.373 20.8019V20.7396C107.373 19.6808 107.559 18.7466 107.871 17.9992C108.182 17.2518 108.618 16.6913 109.116 16.2553C109.615 15.8194 110.237 15.508 110.86 15.3211C111.545 15.1343 112.168 15.072 112.791 15.072C113.414 15.072 114.099 15.1343 114.722 15.3211C115.344 15.508 115.967 15.8194 116.466 16.2553C116.964 16.6913 117.4 17.2518 117.711 17.9992C118.023 18.7466 118.209 19.6185 118.209 20.7396V28.8984C119.393 29.1475 120.576 29.3344 121.822 29.5835V21.7361C121.822 19.058 121.012 17.0027 119.455 15.4457C117.898 13.8887 115.594 13.1413 112.666 13.1413C111.296 13.1413 110.051 13.3281 108.93 13.7641C107.808 14.1378 106.874 14.7606 106.127 15.4457C105.94 15.6325 105.753 15.8194 105.629 16.0062C105.442 15.8194 105.317 15.6325 105.13 15.4457C104.383 14.6983 103.449 14.1378 102.328 13.7641C101.207 13.3904 99.9611 13.1413 98.5909 13.1413C95.6014 13.1413 93.3593 13.8887 91.8023 15.4457C90.2452 17.0027 89.4356 19.058 89.4356 21.7361V24.4764C90.6189 24.601 91.8023 24.7879 93.0479 24.9124V20.7396ZM0.435974 21.9852C1.74388 21.9229 3.05178 21.7984 4.35968 21.7361C4.42196 21.487 4.48424 21.2378 4.54652 21.051C4.92021 19.8676 5.48074 18.8712 6.22811 18.0615C6.97548 17.1896 7.84742 16.5668 8.9062 16.0685C9.96497 15.5703 11.1483 15.3211 12.5185 15.3211C13.7018 15.3834 14.6983 15.508 15.508 15.6948C16.3176 15.8817 17.065 16.0685 17.6878 16.3176C18.3106 16.5668 18.8089 16.7536 19.3071 17.065C19.8054 17.3141 20.2413 17.5633 20.7396 17.7501C20.8019 17.3141 20.8642 16.8782 20.9264 16.3176C20.9887 15.7571 21.051 15.3834 21.1133 15.0097C19.6185 14.5115 18.1861 14.1378 16.6913 13.8264C15.1966 13.5773 13.7641 13.4527 12.4562 13.4527C10.7746 13.4527 9.15532 13.7018 7.59829 14.2624C6.16583 14.8229 4.85793 15.5703 3.73687 16.629C2.61581 17.6878 1.68159 18.9334 0.996504 20.4282C0.80966 20.9264 0.622817 21.4247 0.435974 21.9852ZM23.2931 21.1133C24.4765 21.1133 25.7221 21.1133 26.9677 21.051V20.9264C26.9677 19.8676 27.1545 18.9957 27.4659 18.2483C27.7773 17.5633 28.2133 16.9404 28.7738 16.5668C29.3344 16.1308 29.8949 15.8194 30.58 15.6325C31.2651 15.4457 31.8879 15.3834 32.573 15.3834C33.2581 15.3834 33.8809 15.4457 34.566 15.6325C35.2511 15.8194 35.8116 16.1308 36.3721 16.5045C36.9327 16.9404 37.3064 17.501 37.68 18.2483C37.9914 18.9957 38.1783 19.8676 38.1783 20.9264V21.1133C39.3616 21.1133 40.6072 21.1756 41.8529 21.1756C41.7906 20.1791 41.6037 19.2448 41.2923 18.4352C40.8564 17.3764 40.2958 16.5045 39.4862 15.8194C38.6765 15.072 37.7423 14.5115 36.6213 14.1378C35.5002 13.7641 34.1923 13.515 32.7598 13.515C29.7081 13.515 27.4037 14.2624 25.7844 15.7571C24.2896 17.1273 23.48 18.9334 23.2931 21.1133ZM67.5127 22.4212C68.7583 22.4835 69.9416 22.608 71.1872 22.6703V13.6395H67.5127V22.4212ZM82.3355 23.7291C83.5812 23.8536 84.7645 23.9782 86.0101 24.1028V13.6395H82.3355V23.7291ZM125.808 30.3931C127.053 30.6423 128.237 30.9537 129.482 31.2028C129.42 30.8914 129.42 30.58 129.42 30.2686V25.4107H138.139V23.9159H129.42V20.3659C129.42 19.494 129.42 18.7466 129.482 18.1238C129.482 17.501 129.607 17.0027 129.731 16.629C129.856 16.2553 130.105 15.9439 130.354 15.6948C130.666 15.508 131.039 15.3211 131.538 15.2589H141.752V13.515H125.745V29.2721C125.745 29.6458 125.808 30.0195 125.808 30.3931ZM146.921 35.8116C148.789 36.3721 150.658 36.9949 152.526 37.6178C152.775 37.6178 153.025 37.6178 153.274 37.6178H160V35.9362H153.274C152.589 35.9362 151.966 35.8739 151.281 35.687C150.596 35.5002 150.035 35.1888 149.475 34.7528C148.976 34.3169 148.54 33.7563 148.167 33.0712C147.855 32.3861 147.668 31.4519 147.668 30.3931V13.5773H143.994V29.2721C143.994 31.8256 144.803 33.8809 146.36 35.3756C146.547 35.5002 146.734 35.687 146.921 35.8116Z" fill="white"/>
<path fill-rule="evenodd" clip-rule="evenodd" d="M41.666 45.2161C44.3441 45.9012 47.5827 45.9634 49.9494 45.8389C51.8801 45.7766 53.8108 45.5897 55.7415 45.2783C57.2986 45.0292 58.9179 44.7178 60.4749 44.2818C61.4091 44.0327 62.3433 43.7213 63.2775 43.4099C64.3363 43.0985 65.4574 42.7248 66.5162 42.4134C68.0109 41.9774 69.8171 41.4169 71.4364 41.4169C73.0557 41.4169 74.675 41.7283 76.232 42.2266C76.6057 42.3511 76.9794 42.4757 77.3531 42.6003C79.0969 43.2854 80.7162 44.1573 82.2733 45.1538C85.2628 46.9599 88.6259 49.3266 92.1137 50.074C94.7295 50.6345 97.0339 50.1363 99.3383 48.9529C104.57 46.2126 108.244 42.8494 111.172 39.8599C108.182 44.2818 105.006 48.081 100.21 50.5722C97.5321 52.0047 94.7295 52.5029 91.74 51.8801C84.5777 50.3854 79.0969 43.2854 71.4986 43.2854C70.1285 43.2854 68.4469 43.7836 67.139 44.1573C65.0837 44.7801 63.0907 45.4652 61.0354 46.0257C54.1222 47.9564 43.4099 48.7661 37.1195 45.1538L37.4309 44.6555L40.7941 40.1713C40.9187 39.9845 41.1055 39.7976 41.2923 39.5485C42.102 38.552 49.2643 29.3967 50.1985 28.2133C51.1327 27.0923 52.0047 25.8467 53.0012 24.6633C53.9354 23.4177 54.8696 22.2966 55.7415 21.1133C56.6135 19.9922 57.4854 18.8712 58.2951 17.8747C59.1047 16.8782 59.7898 16.0063 60.3503 15.2589L44.4687 15.3212V13.4527H65.3951V14.9475C65.146 15.1966 64.71 15.6948 64.1495 16.4422C63.5267 17.1896 62.7793 18.1238 61.9074 19.2449C61.0354 20.3659 60.0389 21.6115 58.9802 22.9817C57.9214 24.3519 56.8003 25.7844 55.7415 27.2168C54.6205 28.6493 47.1468 38.1783 46.088 39.6108L45.652 40.2336L41.666 45.2161Z" fill="white"/>
<path fill-rule="evenodd" clip-rule="evenodd" d="M35.5625 48.3301C36.0607 48.5792 36.6212 48.7661 37.1195 49.0152C45.0292 52.6275 53.188 50.0117 60.8486 47.7073C61.9696 47.3959 63.0907 47.0222 64.2117 46.7108C65.7688 46.2748 67.6372 45.7143 69.2565 45.7143C70.9381 45.7143 72.5574 46.0257 74.1767 46.5239C74.5504 46.6485 74.9241 46.7731 75.2978 46.8976C77.0416 47.5827 78.7232 48.4546 80.4048 49.4511C83.5189 51.2573 87.0066 53.4994 90.6189 54.3713C99.3382 56.4889 106.625 49.1397 110.362 44.1573C107.31 48.5792 102.826 55.181 97.8435 57.6722C95.0409 59.1047 92.1759 59.603 89.0619 58.9801C81.6504 57.4854 75.9829 50.3854 68.1354 50.3854C66.703 50.3854 64.9591 50.8836 63.5889 51.2573C61.4714 51.8801 59.4161 52.5652 57.2363 53.1257C55.5547 53.5617 53.8108 53.8731 52.1292 54.1222C44.5309 55.181 39.673 54.745 32.6353 50.8213L34.8151 47.8941L35.5625 48.3301Z" fill="white"/>
<path fill-rule="evenodd" clip-rule="evenodd" d="M25.4107 5.72986C25.473 5.72986 25.473 5.66758 25.473 5.66758V4.04827C25.473 3.98599 25.473 3.98599 25.4107 3.98599H25.1616C25.1616 3.98599 25.0993 3.98599 25.0993 4.04827L25.037 4.85792C24.9747 5.29389 24.8502 5.41845 24.2896 5.41845H22.9195C22.5458 5.41845 22.4835 5.35617 22.4835 4.85792V2.98949C22.4835 2.98949 22.4835 2.92721 22.5458 2.92721H23.5423C23.8537 2.92721 23.916 2.98949 23.916 3.17633L23.9782 3.67458C23.9782 3.73686 23.9782 3.73686 24.0405 3.73686H24.2274H24.2896V1.86843C24.2896 1.86843 24.2896 1.86843 24.2274 1.86843H24.0405C24.0405 1.86843 23.9782 1.86843 23.9782 1.93071L23.916 2.36668C23.916 2.55352 23.7914 2.6158 23.5423 2.6158H22.5458C22.5458 2.6158 22.4835 2.6158 22.4835 2.55352V0.871935C22.4835 0.435967 22.5458 0.311405 22.9195 0.311405H24.1651C24.7256 0.311405 24.8502 0.435967 24.9125 0.871935L24.9747 1.68159C24.9747 1.74387 24.9747 1.74387 25.037 1.74387H25.2861C25.2861 1.74387 25.3484 1.74387 25.3484 1.68159V0.062281C25.3484 0 25.2861 0 25.2861 0H21.051C21.051 0 21.051 0 21.051 0.062281V0.186843C21.051 0.186843 21.051 0.249124 21.1133 0.249124H21.2379C21.6738 0.249124 21.7984 0.249124 21.7984 1.05878V5.16933C21.7984 5.35617 21.7361 5.41845 21.6116 5.48073L21.1133 5.54301C21.1133 5.54301 21.1133 5.54301 21.1133 5.60529V5.72986V5.79214H25.4107V5.72986ZM27.7774 5.79214L27.8397 5.60529C27.8397 5.54301 27.9019 5.54301 27.9642 5.54301C28.1511 5.66758 28.5248 5.85442 29.1476 5.85442C29.8949 5.79214 30.5177 5.35617 30.5177 4.6088C30.5177 3.92371 29.8327 3.6123 29.2098 3.42546C28.587 3.23861 28.2133 3.05177 28.2133 2.74037C28.2133 2.42896 28.4625 2.17984 28.8984 2.17984C29.2721 2.17984 29.6458 2.3044 29.8327 2.67809C29.8949 2.74037 29.9572 2.98949 30.0195 3.11405C30.0195 3.17633 30.0195 3.17633 30.0818 3.17633H30.2063C30.2063 3.17633 30.2686 3.17633 30.2686 3.11405V1.86843H30.1441C30.1441 1.86843 30.1441 1.86843 30.0818 1.86843L30.0195 1.99299C30.0195 2.05527 29.9572 2.05527 29.8949 2.05527C29.6458 1.93071 29.3344 1.80615 28.8984 1.80615C28.2756 1.80615 27.6528 2.11756 27.6528 2.86493C27.6528 3.55002 28.2133 3.79914 28.8362 3.98599C29.3967 4.17283 29.9572 4.29739 29.9572 4.73336C29.9572 5.10705 29.6458 5.41845 29.0853 5.41845C28.587 5.41845 28.2133 5.29389 27.9642 4.85792C27.9019 4.73336 27.8397 4.54652 27.7774 4.35967C27.7774 4.29739 27.7774 4.29739 27.7151 4.29739H27.5905C27.5905 4.29739 27.5283 4.29739 27.5283 4.35967V5.72986H27.7774V5.79214ZM34.6906 4.48424C34.6906 4.35967 34.6906 4.35967 34.566 4.35967H34.4415C34.3792 4.35967 34.3792 4.35967 34.3792 4.42195V4.67108C34.3792 5.23161 34.1923 5.41845 33.8809 5.41845C33.5072 5.41845 33.3827 5.04476 33.3827 4.54652V2.24212H34.4415C34.4415 2.24212 34.5037 2.24212 34.5037 2.17984V1.93071C34.5037 1.93071 34.5037 1.86843 34.4415 1.86843H33.3827V0.747373C33.3827 0.685092 33.3827 0.685092 33.3204 0.685092H33.0713C33.009 0.685092 33.009 0.685092 32.9467 0.747373L32.8844 1.24562C32.8221 1.80615 32.6976 1.93071 32.1993 1.93071H32.0125C32.0125 1.93071 31.9502 1.93071 31.9502 1.99299V2.24212C31.9502 2.24212 31.9502 2.3044 32.0125 2.3044H32.6353V4.48424C32.6353 4.79564 32.6353 4.98248 32.6976 5.10705C32.8221 5.54301 33.1335 5.85442 33.6941 5.85442C34.3792 5.85442 34.6283 5.35617 34.6283 4.73336V4.48424H34.6906ZM39.5485 4.79564H39.4862C39.1748 5.16933 38.8634 5.35617 38.3652 5.35617C37.6801 5.35617 37.1818 4.9202 37.1818 3.92371C37.1818 3.86143 37.1818 3.79914 37.2441 3.79914H39.6108C39.6731 3.79914 39.7353 3.73686 39.7353 3.67458C39.7353 2.6158 39.1748 1.80615 38.1783 1.80615C37.1818 1.80615 36.4344 2.6158 36.4344 3.79914C36.4344 4.98248 37.1818 5.79214 38.2406 5.79214C38.8634 5.79214 39.2994 5.54301 39.6731 4.98248V4.9202L39.5485 4.79564ZM37.3064 3.48774C37.1818 3.48774 37.1818 3.48774 37.1818 3.3009C37.2441 2.6158 37.6178 2.17984 38.116 2.17984C38.6766 2.17984 38.988 2.6158 39.0502 3.42546C39.0502 3.48774 39.0502 3.48774 38.988 3.48774H37.3064ZM38.8634 0.747373C39.1125 0.62281 39.1748 0.498248 39.0502 0.311405C38.9257 0.124562 38.7388 0.062281 38.552 0.249124L37.2441 1.18334C37.1818 1.18334 37.1818 1.24562 37.2441 1.3079C37.3687 1.37018 37.3687 1.37018 37.4309 1.37018L38.8634 0.747373ZM43.9705 4.48424C43.9705 4.35967 43.9705 4.35967 43.8459 4.35967H43.7213C43.659 4.35967 43.659 4.35967 43.659 4.42195V4.67108C43.659 5.23161 43.4722 5.41845 43.1608 5.41845C42.7871 5.41845 42.6625 5.04476 42.6625 4.54652V2.24212H43.7213C43.7213 2.24212 43.7836 2.24212 43.7836 2.17984V1.93071C43.7836 1.93071 43.7836 1.86843 43.7213 1.86843H42.6625V0.747373C42.6625 0.685092 42.6625 0.685092 42.6003 0.685092H42.3511C42.2889 0.685092 42.2889 0.685092 42.2266 0.747373L42.1643 1.24562C42.102 1.80615 41.9775 1.93071 41.4792 1.93071H41.2924C41.2924 1.93071 41.2301 1.93071 41.2301 1.99299V2.24212C41.2301 2.24212 41.2301 2.3044 41.2924 2.3044H41.9152V4.48424C41.9152 4.79564 41.9152 4.98248 41.9775 5.10705C42.102 5.54301 42.4134 5.85442 42.974 5.85442C43.659 5.85442 43.9082 5.35617 43.9082 4.73336V4.48424H43.9705ZM47.4582 5.72986C47.5205 5.72986 47.5205 5.72986 47.4582 5.72986V5.54301C47.4582 5.54301 47.4582 5.48073 47.3959 5.48073H47.2091C46.8977 5.48073 46.7731 5.35617 46.7731 4.85792V1.93071V1.86843H45.4652C45.4652 1.86843 45.4652 1.86843 45.4652 1.93071V2.05527C45.4652 2.05527 45.4652 2.11756 45.5275 2.11756H45.652C46.0257 2.11756 46.1503 2.17984 46.1503 2.74037V5.10705C46.1503 5.29389 46.088 5.35617 45.9634 5.41845L45.5275 5.48073C45.5275 5.48073 45.5275 5.48073 45.5275 5.54301V5.66758V5.72986H47.4582ZM46.8977 0.685092C46.8977 0.435967 46.7108 0.186843 46.3994 0.186843C46.1503 0.186843 45.9634 0.373686 45.9634 0.685092C45.9634 0.934216 46.1503 1.12106 46.3994 1.12106C46.7108 1.12106 46.8977 0.934216 46.8977 0.685092ZM52.2538 4.73336H52.1916C51.9424 5.16933 51.5687 5.35617 51.0705 5.35617C50.3854 5.35617 49.8871 4.79564 49.8871 3.67458C49.8871 2.74037 50.3231 2.11756 50.9459 2.11756C51.0705 2.11756 51.2573 2.11756 51.3819 2.24212C51.4442 2.24212 51.4442 2.3044 51.4442 2.3044C51.4442 2.36668 51.3196 2.49124 51.3196 2.67809C51.3196 2.92721 51.5065 3.11405 51.7556 3.11405C52.0047 3.11405 52.1916 2.92721 52.1916 2.6158C52.1916 2.11756 51.5687 1.74387 50.9459 1.74387C49.8872 1.74387 49.1398 2.55352 49.1398 3.73686C49.1398 4.9202 49.8872 5.72986 50.9459 5.72986C51.5687 5.72986 52.067 5.41845 52.3784 4.79564V4.73336H52.2538ZM56.5512 4.23511C56.5512 4.48424 56.4889 4.6088 56.4889 4.67108C56.3644 4.98248 55.9907 5.41845 55.5547 5.41845C55.181 5.41845 54.9319 5.16933 54.9319 4.79564C54.9319 4.04827 55.617 3.86142 56.4267 3.79914C56.5512 3.79914 56.5512 3.79914 56.5512 3.92371V4.23511ZM57.9837 4.85792C57.9837 4.79564 57.9837 4.79564 57.9214 4.79564H57.7968C57.7346 4.79564 57.7346 4.79564 57.7346 4.85792V5.04476C57.7346 5.29389 57.6723 5.48073 57.4854 5.48073C57.2986 5.48073 57.2363 5.29389 57.2363 4.85792V3.42546C57.2363 2.3044 56.7381 1.86843 55.8038 1.86843C55.1188 1.86843 54.4959 2.24212 54.4959 2.74037C54.4959 2.98949 54.6828 3.23861 54.9319 3.23861C55.181 3.23861 55.3679 3.05177 55.3679 2.80265C55.3679 2.6158 55.2433 2.49124 55.2433 2.36668C55.2433 2.36668 55.2433 2.3044 55.3056 2.3044C55.4302 2.24212 55.617 2.17984 55.7416 2.17984C56.3021 2.17984 56.5512 2.49124 56.5512 3.11405V3.3009C56.5512 3.42546 56.5512 3.42546 56.4267 3.48774C55.181 3.55002 54.1845 3.86142 54.1845 4.79564C54.1845 5.48073 54.7451 5.85442 55.3679 5.85442C55.9284 5.85442 56.3021 5.60529 56.6135 5.10705C56.6758 5.60529 56.9872 5.85442 57.3609 5.85442C57.7968 5.85442 57.9837 5.48073 57.9837 5.04476V4.85792ZM68.0732 4.79564H68.0109C67.6995 5.16933 67.3881 5.35617 66.8899 5.35617C66.2048 5.35617 65.7065 4.9202 65.7065 3.92371C65.7065 3.86143 65.7065 3.79914 65.7688 3.79914H68.1355C68.1978 3.79914 68.2601 3.73686 68.2601 3.67458C68.2601 2.6158 67.6995 1.80615 66.703 1.80615C65.7065 1.80615 64.9592 2.6158 64.9592 3.79914C64.9592 4.98248 65.7065 5.79214 66.7653 5.79214C67.3881 5.79214 67.8241 5.54301 68.1978 4.98248V4.9202L68.0732 4.79564ZM65.8311 3.48774C65.7065 3.48774 65.7065 3.48774 65.7065 3.3009C65.7688 2.6158 66.1425 2.17984 66.6408 2.17984C67.2013 2.17984 67.5127 2.6158 67.575 3.42546C67.575 3.48774 67.575 3.48774 67.5127 3.48774H65.8311ZM77.7268 5.72986C78.9724 5.72986 79.7198 5.16933 79.7198 4.11055C79.7198 3.36318 79.2215 2.80265 78.3496 2.6158C79.0347 2.36668 79.3461 1.86843 79.3461 1.3079C79.3461 0.435967 78.5364 0 77.4777 0H75.2978C75.2978 0 75.2978 0 75.2978 0.062281V0.186843C75.2978 0.186843 75.2978 0.249124 75.3601 0.249124H75.4847C75.9206 0.311405 76.0452 0.311405 76.0452 1.05878V5.16933C76.0452 5.35617 75.9829 5.41845 75.8583 5.48073L75.3601 5.54301C75.3601 5.54301 75.3601 5.54301 75.3601 5.60529V5.72986V5.79214H77.7268V5.72986ZM77.1663 5.35617C76.7926 5.35617 76.7303 5.23161 76.7303 4.79564V2.86493C76.7303 2.86493 76.7303 2.80265 76.7926 2.80265H77.4777C78.4742 2.80265 78.9724 3.17633 78.9724 4.11055C78.9724 4.98248 78.4742 5.29389 77.7268 5.29389H77.1663V5.35617ZM76.7926 2.42896C76.7303 2.42896 76.7303 2.42896 76.7926 2.42896L76.7303 0.871935C76.7303 0.435967 76.7926 0.311405 77.1663 0.311405H77.4154C78.1005 0.311405 78.5987 0.435967 78.5987 1.24562C78.5987 2.05527 78.225 2.42896 77.4154 2.42896H76.7926ZM84.8268 4.79564H84.7645C84.4531 5.16933 84.1417 5.35617 83.6435 5.35617C82.9584 5.35617 82.4601 4.9202 82.4601 3.92371C82.4601 3.86143 82.4601 3.79914 82.5224 3.79914H84.8891C84.9514 3.79914 85.0137 3.73686 85.0137 3.67458C85.0137 2.6158 84.4531 1.80615 83.4566 1.80615C82.4601 1.80615 81.7128 2.6158 81.7128 3.79914C81.7128 4.98248 82.4601 5.79214 83.5189 5.79214C84.1417 5.79214 84.5777 5.54301 84.9514 4.98248V4.9202L84.8268 4.79564ZM82.5847 3.48774C82.4601 3.48774 82.4601 3.48774 82.4601 3.3009C82.5224 2.6158 82.8961 2.17984 83.3943 2.17984C83.9549 2.17984 84.2663 2.6158 84.3286 3.42546C84.3286 3.48774 84.3286 3.48774 84.2663 3.48774H82.5847ZM93.4216 5.72986C93.4216 5.72986 93.4839 5.72986 93.4216 5.72986V5.54301C93.4216 5.54301 93.4216 5.48073 93.3593 5.48073H93.2348C92.8611 5.48073 92.7365 5.35617 92.7365 4.85792V3.42546C92.7365 3.05177 92.6742 2.80265 92.6119 2.6158C92.4251 2.05527 92.0514 1.80615 91.4909 1.80615C90.9926 1.80615 90.5567 2.05527 90.183 2.6158C89.9961 2.05527 89.6225 1.80615 89.0619 1.80615C88.5637 1.80615 88.1277 2.05527 87.8163 2.55352V1.99299V1.93071H86.633C86.633 1.93071 86.633 1.93071 86.633 1.99299V2.11756C86.633 2.11756 86.633 2.17984 86.6952 2.17984H86.8198C87.1935 2.17984 87.3181 2.24212 87.3181 2.80265V5.16933C87.3181 5.35617 87.2558 5.41845 87.1312 5.48073L86.7575 5.54301C86.7575 5.54301 86.7575 5.54301 86.7575 5.60529V5.72986V5.79214H88.626C88.626 5.79214 88.626 5.79214 88.626 5.72986V5.54301C88.626 5.54301 88.626 5.48073 88.5637 5.48073H88.4391C88.0654 5.48073 88.0032 5.35617 88.0032 4.85792V3.42546C88.0032 3.17633 88.0654 2.98949 88.1277 2.80265C88.3146 2.42896 88.6882 2.17984 88.9996 2.17984C89.4979 2.17984 89.6847 2.55352 89.6847 3.3009V5.10705C89.6847 5.29389 89.6225 5.35617 89.4979 5.41845L89.1865 5.48073C89.1865 5.48073 89.1865 5.48073 89.1865 5.54301V5.66758V5.72986H90.9926C90.9926 5.72986 90.9926 5.72986 90.9926 5.66758V5.54301C90.9926 5.54301 90.9926 5.48073 90.9304 5.48073H90.8058C90.4321 5.48073 90.3075 5.35617 90.3075 4.85792V3.36318C90.3075 3.17633 90.3698 2.98949 90.4321 2.80265C90.6189 2.42896 90.9926 2.17984 91.304 2.17984C91.8023 2.17984 91.9891 2.55352 91.9891 3.3009V5.10705C91.9891 5.29389 91.9268 5.35617 91.8023 5.41845L91.4909 5.48073C91.4909 5.48073 91.4909 5.48073 91.4909 5.54301V5.66758V5.72986H93.4216ZM97.1585 3.36318L97.2207 2.98949C97.2207 2.98949 97.2207 2.92721 97.1585 2.92721H95.1655C95.1655 2.92721 95.1032 2.92721 95.1032 2.98949V3.3009C95.1032 3.3009 95.1032 3.36318 95.1655 3.36318H97.1585ZM102.266 4.79564H102.203C101.892 5.16933 101.58 5.35617 101.082 5.35617C100.397 5.35617 99.8988 4.9202 99.8988 3.92371C99.8988 3.86143 99.8988 3.79914 99.9611 3.79914H102.328C102.39 3.79914 102.452 3.73686 102.452 3.67458C102.452 2.6158 101.892 1.80615 100.895 1.80615C99.8988 1.80615 99.1515 2.6158 99.1515 3.79914C99.1515 4.98248 99.8988 5.79214 100.958 5.79214C101.58 5.79214 102.016 5.54301 102.39 4.98248V4.9202L102.266 4.79564ZM100.023 3.48774C99.8988 3.48774 99.8988 3.48774 99.8988 3.3009C99.9611 2.6158 100.335 2.17984 100.833 2.17984C101.394 2.17984 101.705 2.6158 101.767 3.42546C101.767 3.48774 101.767 3.48774 101.705 3.48774H100.023ZM104.632 5.79214L104.694 5.60529C104.694 5.54301 104.757 5.54301 104.819 5.54301C105.006 5.66758 105.38 5.85442 106.002 5.85442C106.75 5.85442 107.373 5.41845 107.373 4.67108C107.373 3.98599 106.687 3.67458 106.065 3.48774C105.442 3.3009 105.068 3.11405 105.068 2.80265C105.068 2.49124 105.317 2.24212 105.753 2.24212C106.127 2.24212 106.501 2.36668 106.687 2.74037C106.75 2.86493 106.812 3.05177 106.812 3.17633C106.812 3.23861 106.812 3.23861 106.874 3.23861H106.999C106.999 3.23861 107.061 3.23861 107.061 3.17633V1.86843H106.937C106.937 1.86843 106.937 1.86843 106.874 1.86843L106.812 1.99299C106.812 2.05527 106.75 2.05527 106.687 2.05527C106.438 1.93071 106.127 1.80615 105.691 1.80615C105.068 1.80615 104.445 2.11756 104.445 2.86493C104.445 3.55002 105.006 3.79914 105.629 3.98599C106.189 4.17283 106.75 4.29739 106.75 4.73336C106.75 5.10705 106.438 5.41845 105.878 5.41845C105.38 5.41845 105.006 5.29389 104.757 4.85792C104.694 4.73336 104.632 4.54652 104.57 4.35967C104.57 4.29739 104.57 4.29739 104.508 4.29739H104.383C104.383 4.29739 104.321 4.29739 104.321 4.35967V5.72986H104.632V5.79214ZM111.545 4.48424C111.545 4.35967 111.545 4.35967 111.421 4.35967H111.296C111.234 4.35967 111.234 4.35967 111.234 4.42195V4.67108C111.234 5.23161 111.047 5.41845 110.736 5.41845C110.362 5.41845 110.237 5.04476 110.237 4.54652V2.24212H111.296C111.296 2.24212 111.359 2.24212 111.359 2.17984V1.93071C111.359 1.93071 111.359 1.86843 111.296 1.86843H110.237V0.747373C110.237 0.685092 110.237 0.685092 110.175 0.685092H109.926C109.864 0.685092 109.864 0.685092 109.802 0.747373L109.739 1.24562C109.677 1.80615 109.552 1.93071 109.054 1.93071H108.867C108.867 1.93071 108.805 1.93071 108.805 1.99299V2.24212C108.805 2.24212 108.805 2.3044 108.867 2.3044H109.49V4.48424C109.49 4.79564 109.49 4.98248 109.552 5.10705C109.677 5.54301 109.988 5.85442 110.549 5.85442C111.234 5.85442 111.483 5.35617 111.483 4.73336V4.48424H111.545ZM115.656 4.23511C115.656 4.48424 115.594 4.6088 115.594 4.67108C115.469 4.98248 115.095 5.41845 114.659 5.41845C114.286 5.41845 114.037 5.16933 114.037 4.79564C114.037 4.04827 114.722 3.86142 115.531 3.79914C115.656 3.79914 115.656 3.79914 115.656 3.92371V4.23511ZM117.088 4.85792C117.088 4.79564 117.088 4.79564 117.026 4.79564H116.902C116.839 4.79564 116.839 4.79564 116.839 4.85792V5.04476C116.839 5.29389 116.777 5.48073 116.59 5.48073C116.403 5.48073 116.341 5.29389 116.341 4.85792V3.42546C116.341 2.3044 115.843 1.86843 114.909 1.86843C114.223 1.86843 113.601 2.24212 113.601 2.74037C113.601 2.98949 113.788 3.23861 114.037 3.23861C114.286 3.23861 114.473 3.05177 114.473 2.80265C114.473 2.6158 114.348 2.49124 114.348 2.36668C114.348 2.36668 114.348 2.3044 114.41 2.3044C114.535 2.24212 114.722 2.17984 114.846 2.17984C115.407 2.17984 115.656 2.49124 115.656 3.11405V3.3009C115.656 3.42546 115.656 3.42546 115.531 3.48774C114.286 3.55002 113.289 3.86142 113.289 4.79564C113.289 5.48073 113.85 5.85442 114.473 5.85442C115.033 5.85442 115.407 5.60529 115.718 5.10705C115.781 5.60529 116.092 5.85442 116.466 5.85442C116.902 5.85442 117.088 5.48073 117.088 5.04476V4.85792ZM120.514 5.72986V5.54301C120.514 5.54301 120.514 5.48073 120.452 5.48073H120.327C119.891 5.41845 119.829 5.41845 119.829 4.73336V3.6123C119.829 2.67809 120.389 2.17984 120.825 2.17984C120.888 2.17984 121.012 2.17984 121.012 2.24212C121.012 2.3044 120.95 2.36668 120.95 2.49124C120.95 2.67809 121.137 2.86493 121.386 2.86493C121.635 2.86493 121.822 2.67809 121.822 2.36668C121.822 1.93071 121.386 1.74387 121.074 1.74387C120.638 1.74387 120.202 1.99299 119.891 2.49124V1.86843V1.80615H118.708C118.708 1.80615 118.708 1.80615 118.708 1.86843V1.99299C118.708 1.99299 118.708 2.05527 118.77 2.05527H118.895C119.268 2.05527 119.393 2.11756 119.393 2.67809V5.04476C119.393 5.23161 119.331 5.29389 119.206 5.35617L118.832 5.41845C118.832 5.41845 118.832 5.41845 118.832 5.48073V5.60529V5.66758H120.514V5.72986Z" fill="white"/>
</svg>
