<svg width="24" height="24" viewBox="0 0 24 24" fill="none" xmlns="http://www.w3.org/2000/svg">
<g clip-path="url(#clip0)">
<path d="M23.3152 16.9594L18.0652 14.7094C17.8409 14.6138 17.5916 14.5937 17.3549 14.652C17.1182 14.7103 16.9068 14.844 16.7527 15.0328L14.4277 17.8734C10.7788 16.153 7.84228 13.2165 6.12188 9.56766L8.9625 7.24266C9.15172 7.08876 9.28565 6.8774 9.34401 6.64057C9.40237 6.40375 9.38199 6.15436 9.28594 5.93016L7.03594 0.680159C6.93052 0.438475 6.74408 0.241149 6.50876 0.122205C6.27344 0.00326091 6.00399 -0.0298449 5.74687 0.028596L0.871875 1.1536C0.623986 1.21084 0.402818 1.35041 0.24447 1.54954C0.0861212 1.74867 -5.71036e-05 1.99559 2.83885e-08 2.25C2.83885e-08 14.2734 9.74531 24 21.75 24C22.0045 24.0002 22.2515 23.914 22.4507 23.7557C22.65 23.5973 22.7896 23.3761 22.8469 23.1281L23.9719 18.2531C24.0299 17.9948 23.9961 17.7242 23.8763 17.4881C23.7564 17.252 23.558 17.065 23.3152 16.9594V16.9594Z" fill="#00C5FF"/>
</g>
<defs>
<clipPath id="clip0">
<rect width="24" height="24" fill="white"/>
</clipPath>
</defs>
</svg>
