<svg version="1.1" id="Capa_1" xmlns="http://www.w3.org/2000/svg" x="0" y="0" viewBox="0 0 359 359" xml:space="preserve" enable-background="new 0 0 359 359"><title>grid</title><g class="nc-icon-wrapper" fill="#00c5ff"><path d="M96 0H13C7.5 0 3 4.5 3 10v83c0 5.5 4.5 10 10 10h83c5.5 0 10-4.5 10-10V10c0-5.5-4.5-10-10-10zm-9 84H23V20h64v64z"/><path d="M221 0h-83c-5.5 0-10 4.5-10 10v83c0 5.5 4.5 10 10 10h83c5.5 0 10-4.5 10-10V10c0-5.5-4.5-10-10-10zm-9 84h-64V20h64v64z"/><path d="M96 126H13c-5.5 0-10 4.5-10 10v83c0 5.5 4.5 10 10 10h83c5.5 0 10-4.5 10-10v-83c0-5.5-4.5-10-10-10zm-9 83H23v-63h64v63z"/><path d="M221 126h-83c-5.5 0-10 4.5-10 10v83c0 5.5 4.5 10 10 10h83c5.5 0 10-4.5 10-10v-83c0-5.5-4.5-10-10-10zm-9 83h-64v-63h64v63z"/><path d="M346 0h-83c-5.5 0-10 4.5-10 10v83c0 5.5 4.5 10 10 10h83c5.5 0 10-4.5 10-10V10c0-5.5-4.5-10-10-10zm-9 84h-64V20h64v64z"/><path d="M346 126h-83c-5.5 0-10 4.5-10 10v83c0 5.5 4.5 10 10 10h83c5.5 0 10-4.5 10-10v-83c0-5.5-4.5-10-10-10zm-9 83h-64v-63h64v63z"/><path d="M96 256H13c-5.5 0-10 4.5-10 10v83c0 5.5 4.5 10 10 10h83c5.5 0 10-4.5 10-10v-83c0-5.5-4.5-10-10-10zm-9 84H23v-64h64v64z"/><path d="M221 256h-83c-5.5 0-10 4.5-10 10v83c0 5.5 4.5 10 10 10h83c5.5 0 10-4.5 10-10v-83c0-5.5-4.5-10-10-10zm-9 84h-64v-64h64v64z"/><path d="M346 256h-83c-5.5 0-10 4.5-10 10v83c0 5.5 4.5 10 10 10h83c5.5 0 10-4.5 10-10v-83c0-5.5-4.5-10-10-10zm-9 84h-64v-64h64v64z"/></g></svg>