<svg width="140" height="140" viewBox="0 0 140 140" fill="none" xmlns="http://www.w3.org/2000/svg">
<path d="M140 70C140 108.66 108.659 140 70 140C31.3396 140 0 108.66 0 70C0 31.3406 31.3396 0 70 0C108.659 0 140 31.3406 140 70Z" fill="#00C5FF"/>
<g style="mix-blend-mode:color-burn">
<path d="M112.324 125.76C100.573 134.694 85.9065 140 70.0012 140C54.0959 140 39.4296 134.694 27.6782 125.76C36.456 121.471 52.1274 118.617 70.0012 118.617C87.8751 118.617 103.55 121.471 112.324 125.76Z" fill="#00C5FF"/>
</g>
<path d="M119.265 41.0755C109.471 -13.6911 30.5288 -13.6911 20.7353 41.0755C19.8637 45.9514 19.4087 50.9705 19.4087 56.0974C19.4087 90.7546 40.206 120.55 70 133.697C99.794 120.55 120.591 90.7546 120.591 56.0974C120.591 50.9705 120.136 45.9514 119.265 41.0755Z" fill="#FC5F61"/>
<path d="M109.61 50.257C109.61 70.5993 94.2763 87.3644 74.5354 89.6107C73.0475 89.7826 71.5362 89.8702 70.0023 89.8702C48.1263 89.8702 30.3892 72.1331 30.3892 50.257C30.3892 28.382 48.1263 10.6481 70.0023 10.6481C71.5362 10.6481 73.0475 10.7368 74.5354 10.9087C94.2763 13.155 109.61 29.9158 109.61 50.257Z" fill="#FCF8F2"/>
<path d="M74.8641 8.07175C73.2608 7.88589 71.6266 7.7919 70.0009 7.7919C68.2439 7.7919 66.5103 7.89871 64.8088 8.10699C60.2971 8.65921 59.0186 2.08389 63.4043 0.888672C65.5779 0.295868 67.7899 0 70.0009 0C47.8173 0 25.6325 13.6943 20.7352 41.0776C19.8636 45.9514 19.4097 50.9715 19.4097 56.0974C19.4097 90.7545 40.2059 120.549 70.0009 133.697C60.6539 127.61 52.6131 117.956 46.6722 105.905C42.7181 97.8831 50.1276 88.8448 58.7505 91.216C62.3351 92.2018 66.1077 92.7284 70.0009 92.7284C71.6266 92.7284 73.2608 92.6334 74.8577 92.4486C96.2979 90.0111 112.466 71.8713 112.466 50.257C112.466 28.6458 96.2979 10.5081 74.8641 8.07175ZM74.2061 86.7715C72.8208 86.9318 71.4066 87.014 70.0009 87.014C54.6436 87.014 41.4577 77.5452 35.9665 64.1403C35.9665 64.1403 35.9697 64.1403 35.9665 64.1371C34.2148 59.8518 33.246 55.166 33.246 50.257C33.246 43.4456 35.1088 37.0625 38.3495 31.5884C44.755 20.7738 56.5459 13.5052 70.0009 13.5052C71.4066 13.5052 72.8208 13.5854 74.2125 13.7488C92.7635 15.8572 106.752 31.5543 106.752 50.257C106.753 68.9629 92.7635 84.6599 74.2061 86.7715Z" fill="#E53841"/>
<path fill-rule="evenodd" clip-rule="evenodd" d="M75.6376 49.0517C75.6376 48.6406 75.7112 48.2779 75.8338 47.9878C75.9564 47.6976 76.1281 47.48 76.3242 47.3108C76.5204 47.1415 76.7657 47.0206 77.0109 46.9481C77.2561 46.8755 77.5259 46.8514 77.7711 46.8514C78.0163 46.8514 78.2861 46.8755 78.5313 46.9481C78.8011 47.0206 79.0218 47.1415 79.218 47.3108C79.4142 47.48 79.5858 47.6976 79.7084 47.9878C79.8311 48.2779 79.9046 48.6406 79.9046 49.0517V49.0758C79.9046 49.1967 79.8801 49.3176 79.8801 49.4385V55.58H79.9046H81.3025H81.327V49.4385C81.327 49.3176 81.327 49.1967 81.3025 49.0758V49.0517C81.3025 48.6406 81.376 48.2779 81.4986 47.9878C81.6213 47.6976 81.7929 47.48 81.9891 47.3108C82.1853 47.1415 82.4305 47.0206 82.6758 46.9481C82.9455 46.8755 83.1907 46.8514 83.436 46.8514C83.6812 46.8514 83.951 46.8755 84.1962 46.9481C84.4414 47.0206 84.6866 47.1415 84.8828 47.3108C85.079 47.48 85.2507 47.6976 85.3733 47.9878C85.4959 48.2779 85.5695 48.6164 85.5695 49.0517V55.58H86.9918V49.4385C86.9918 48.3988 86.673 47.6009 86.0599 46.9964C85.4469 46.392 84.5395 46.1018 83.3869 46.1018C82.8474 46.1018 82.3569 46.1744 81.9155 46.3436C81.4741 46.4887 81.1063 46.7305 80.812 46.9964C80.7384 47.069 80.6649 47.1415 80.6158 47.2141C80.5422 47.1415 80.4932 47.069 80.4196 46.9964C80.1253 46.7063 79.7575 46.4887 79.3161 46.3436C78.8747 46.1985 78.3842 46.1018 77.8447 46.1018C76.6676 46.1018 75.7847 46.392 75.1717 46.9964C74.5586 47.6009 74.2398 48.3988 74.2398 49.4385V55.58H75.6621V49.0517H75.6376ZM102 54.9756H99.3515C99.0817 54.9756 98.8365 54.9514 98.5668 54.8788C98.297 54.8063 98.0763 54.6854 97.8556 54.5162C97.6594 54.3469 97.4877 54.1293 97.3406 53.8633C97.218 53.5973 97.1444 53.2347 97.1444 52.8236V46.2711H95.6975V52.3642C95.6975 53.3556 96.0163 54.1535 96.6294 54.7338C97.2425 55.3141 98.1499 55.6042 99.327 55.6042H101.975V54.9756H102ZM94.8147 54.903H92.1662C91.8965 54.903 91.6512 54.8788 91.3815 54.8063C91.1117 54.7338 90.891 54.6129 90.6703 54.4436C90.4741 54.2744 90.3025 54.0568 90.1553 53.7908C90.0327 53.5248 89.9591 53.1621 89.9591 52.7511V50.8651H93.3924V50.2848H89.9591V48.9066C89.9591 48.5681 89.9591 48.2779 89.9837 48.0361C89.9837 47.7944 90.0327 47.6009 90.0817 47.4558C90.1308 47.3108 90.2289 47.1899 90.327 47.0932C90.4496 47.0206 90.5967 46.9481 90.7929 46.9239H94.8147V46.2469H88.5123V52.3642C88.5123 53.3556 88.8311 54.1535 89.4441 54.7338C90.0572 55.3141 90.9646 55.6042 92.1417 55.6042H94.7902V54.903H94.8147ZM71.4196 52.7027C71.4196 53.1138 71.346 53.4523 71.2234 53.7424C71.1008 54.0084 70.9292 54.2502 70.7084 54.3953C70.4877 54.5645 70.267 54.6854 69.9973 54.7579C69.7275 54.8305 69.4823 54.8547 69.2125 54.8547C68.9428 54.8547 68.6975 54.8305 68.4278 54.7579C68.158 54.6854 67.9373 54.5645 67.7166 54.4194C67.4959 54.2502 67.3488 54.0326 67.2016 53.7424C67.079 53.4523 67.0054 53.1138 67.0054 52.7027V46.2952H65.5586V52.34C65.5586 52.8478 65.6322 53.3072 65.8038 53.6941C65.9755 54.1051 66.1962 54.4436 66.515 54.7096C66.8338 54.9997 67.2016 55.2174 67.6431 55.3624C68.0845 55.5075 68.5995 55.6042 69.1635 55.6042C70.3651 55.6042 71.2725 55.3141 71.9101 54.7338C72.5477 54.1535 72.8665 53.3556 72.8665 52.34V46.2952H71.4196V52.7027ZM49.6185 52.7027V49.1484C49.6185 48.7373 49.6921 48.3988 49.8147 48.1087C49.9373 47.8427 50.109 47.6009 50.3297 47.4558C50.5504 47.2866 50.7711 47.1657 51.0409 47.0932C51.3106 47.0206 51.5559 46.9964 51.8256 46.9964C52.0954 46.9964 52.3406 47.0206 52.6104 47.0932C52.8801 47.1657 53.1008 47.2866 53.3215 47.4317C53.5422 47.6009 53.6894 47.8185 53.8365 48.1087C53.9591 48.3988 54.0327 48.7373 54.0327 49.1484V52.7027C54.0327 53.1138 53.9591 53.4765 53.8365 53.7424C53.7139 54.0326 53.5422 54.2502 53.3215 54.4194C53.1008 54.5887 52.8801 54.7096 52.6104 54.7579C52.3406 54.8305 52.0954 54.8547 51.8256 54.8547C51.5559 54.8547 51.3106 54.8305 51.0409 54.7579C50.7711 54.6854 50.5504 54.5645 50.3297 54.3953C50.109 54.226 49.9619 54.0084 49.8147 53.7424C49.6921 53.4765 49.6185 53.1138 49.6185 52.7027ZM55.455 49.5353C55.455 49.0275 55.3815 48.5681 55.2098 48.1812C55.0381 47.7702 54.8174 47.4317 54.4986 47.1657C54.1798 46.8755 53.812 46.6579 53.3706 46.5129C52.9292 46.3678 52.4142 46.2711 51.8501 46.2711C50.6485 46.2711 49.7411 46.5612 49.1035 47.1415C48.4659 47.7218 48.1471 48.5197 48.1471 49.5353V52.34C48.1471 53.3556 48.4659 54.1535 49.1035 54.7338C49.7411 55.3141 50.6485 55.6042 51.8501 55.6042C52.4142 55.6042 52.9046 55.5317 53.3706 55.3624C53.812 55.2174 54.2044 54.9997 54.4986 54.7096C54.8174 54.4194 55.0381 54.0809 55.2098 53.6941C55.3815 53.283 55.455 52.8478 55.455 52.34V49.5353ZM47.1907 53.8875C46.7984 54.1535 46.3815 54.3469 45.9401 54.492C45.4986 54.637 45.0572 54.7096 44.6158 54.7096C44.0027 54.7096 43.4387 54.6129 42.9482 54.4194C42.4578 54.226 42.0163 53.9359 41.673 53.5732C41.3297 53.2105 41.0599 52.7753 40.8638 52.2917C40.6676 51.7839 40.5695 51.252 40.5695 50.6475C40.5695 50.1156 40.6431 49.632 40.8147 49.1967C40.9619 48.7373 41.1826 48.3505 41.4768 48.0361C41.7711 47.6976 42.1144 47.4558 42.5313 47.2624C42.9482 47.069 43.4142 46.9723 43.9537 46.9723C44.4196 46.9964 44.812 47.0448 45.1308 47.1173C45.4496 47.1899 45.7439 47.2624 45.9891 47.3591C46.2343 47.4558 46.4305 47.5284 46.6267 47.6493C46.8229 47.746 46.9946 47.8427 47.1907 47.9152C47.2153 47.746 47.2398 47.5767 47.2643 47.3591C47.2888 47.1415 47.3134 46.9964 47.3379 46.8514C46.7493 46.6579 46.1853 46.5129 45.5967 46.392C45.0082 46.2952 44.4441 46.2469 43.9292 46.2469C43.267 46.2469 42.6294 46.3436 42.0163 46.5612C41.4278 46.7547 40.9128 47.0448 40.4714 47.4558C40.03 47.8669 39.6621 48.3505 39.3924 48.9308C39.1226 49.5111 39 50.1639 39 50.9135C39 51.663 39.1471 52.34 39.4169 52.9203C39.6866 53.5006 40.0545 53.9842 40.5204 54.3953C40.9864 54.7821 41.5504 55.0965 42.1635 55.2899C42.8011 55.4833 43.4632 55.6042 44.1744 55.6042C44.3706 55.6042 44.6158 55.58 44.861 55.5559C45.1063 55.5075 45.376 55.4591 45.6458 55.4108C45.9155 55.3382 46.1608 55.2657 46.4305 55.169C46.6757 55.0723 46.921 54.9756 47.1172 54.8547L47.1907 53.8875Z" fill="#264597"/>
<path fill-rule="evenodd" clip-rule="evenodd" d="M75.6378 49.0517C75.6378 48.6406 75.7114 48.2779 75.834 47.9878C75.9566 47.6976 76.1283 47.48 76.3245 47.3108C76.5206 47.1415 76.7659 47.0206 77.0111 46.9481C77.2563 46.8755 77.5261 46.8514 77.7713 46.8514C78.0166 46.8514 78.2863 46.8755 78.5315 46.9481C78.8013 47.0206 79.022 47.1415 79.2182 47.3108C79.4144 47.48 79.586 47.6976 79.7087 47.9878C79.8313 48.2779 79.9048 48.6406 79.9048 49.0517V49.0758C79.9048 49.1967 79.8803 49.3176 79.8803 49.4385V51.252C80.3463 51.3245 80.8367 51.397 81.3027 51.4696V49.4385C81.3027 49.3176 81.3027 49.1967 81.2781 49.0758V49.0517C81.2781 48.6406 81.3517 48.2779 81.4743 47.9878C81.5969 47.6976 81.7686 47.48 81.9648 47.3108C82.161 47.1415 82.4062 47.0206 82.6514 46.9481C82.9212 46.8755 83.1664 46.8514 83.4117 46.8514C83.6569 46.8514 83.9266 46.8755 84.1719 46.9481C84.4171 47.0206 84.6623 47.1415 84.8585 47.3108C85.0547 47.48 85.2264 47.6976 85.349 47.9878C85.4716 48.2779 85.5452 48.6164 85.5452 49.0517V52.2191C86.0111 52.3159 86.4771 52.3884 86.9675 52.4851V49.4385C86.9675 48.3988 86.6487 47.6009 86.0356 46.9964C85.4226 46.392 84.5152 46.1018 83.3626 46.1018C82.8231 46.1018 82.3326 46.1744 81.8912 46.3436C81.4498 46.4887 81.082 46.7305 80.7877 46.9964C80.7141 47.069 80.6405 47.1415 80.5915 47.2141C80.5179 47.1415 80.4689 47.069 80.3953 46.9964C80.101 46.7063 79.7332 46.4887 79.2918 46.3436C78.8504 46.1985 78.3599 46.1018 77.8204 46.1018C76.6433 46.1018 75.7604 46.392 75.1474 46.9964C74.5343 47.6009 74.2155 48.3988 74.2155 49.4385V50.5024C74.6814 50.5508 75.1474 50.6233 75.6378 50.6717V49.0517ZM39.1719 49.5353C39.6869 49.5111 40.2018 49.4627 40.7168 49.4385C40.7414 49.3418 40.7659 49.2451 40.7904 49.1726C40.9375 48.7132 41.1583 48.3263 41.4525 48.012C41.7468 47.6735 42.0901 47.4317 42.507 47.2382C42.9239 47.0448 43.3899 46.9481 43.9294 46.9481C44.3953 46.9723 44.7877 47.0206 45.1065 47.0932C45.4253 47.1657 45.7196 47.2382 45.9648 47.335C46.21 47.4317 46.4062 47.5042 46.6024 47.6251C46.7986 47.7218 46.9702 47.8185 47.1664 47.8911C47.1909 47.7218 47.2155 47.5526 47.24 47.335C47.2645 47.1173 47.289 46.9723 47.3136 46.8272C46.725 46.6338 46.161 46.4887 45.5724 46.3678C44.9839 46.2711 44.4198 46.2227 43.9048 46.2227C43.2427 46.2227 42.6051 46.3194 41.992 46.537C41.428 46.7547 40.913 47.0448 40.4716 47.4558C40.0302 47.8669 39.6623 48.3505 39.3926 48.9308C39.319 49.1242 39.2454 49.3176 39.1719 49.5353ZM48.1719 49.1967C48.6378 49.1967 49.1283 49.1967 49.6187 49.1726V49.1242C49.6187 48.7132 49.6923 48.3747 49.8149 48.0845C49.9375 47.8185 50.1092 47.5767 50.3299 47.4317C50.5506 47.2624 50.7713 47.1415 51.0411 47.069C51.3108 46.9964 51.5561 46.9723 51.8258 46.9723C52.0956 46.9723 52.3408 46.9964 52.6106 47.069C52.8803 47.1415 53.101 47.2624 53.3217 47.4075C53.5424 47.5767 53.6896 47.7944 53.8367 48.0845C53.9593 48.3747 54.0329 48.7132 54.0329 49.1242V49.1967C54.4989 49.1967 54.9893 49.2209 55.4798 49.2209C55.4553 48.8341 55.3817 48.4714 55.2591 48.157C55.0874 47.746 54.8667 47.4075 54.5479 47.1415C54.2291 46.8514 53.8612 46.6338 53.4198 46.4887C52.9784 46.3436 52.4634 46.2469 51.8994 46.2469C50.6978 46.2469 49.7904 46.537 49.1528 47.1173C48.5642 47.6493 48.2454 48.3505 48.1719 49.1967ZM65.5833 49.7045C66.0738 49.7287 66.5397 49.777 67.0302 49.8012V46.2952H65.5833V49.7045ZM71.4198 50.2123C71.9103 50.2606 72.3762 50.309 72.8667 50.3573V46.2952H71.4198V50.2123ZM88.537 52.7994C89.0275 52.8962 89.4934 53.017 89.9839 53.1138C89.9593 52.9929 89.9593 52.872 89.9593 52.7511V50.8651H93.3926V50.2848H89.9593V48.9066C89.9593 48.5681 89.9593 48.2779 89.9839 48.0361C89.9839 47.7944 90.0329 47.6009 90.082 47.4558C90.131 47.3108 90.2291 47.1899 90.3272 47.0932C90.4498 47.0206 90.5969 46.9481 90.7931 46.9239H94.8149V46.2469H88.5125V52.3642C88.5125 52.5093 88.537 52.6544 88.537 52.7994ZM96.8503 54.903C97.586 55.1206 98.3217 55.3624 99.0574 55.6042C99.1555 55.6042 99.2536 55.6042 99.3517 55.6042H102V54.9514H99.3517C99.082 54.9514 98.8367 54.9272 98.567 54.8547C98.2972 54.7821 98.0765 54.6612 97.8558 54.492C97.6596 54.3227 97.488 54.1051 97.3408 53.8391C97.2182 53.5732 97.1446 53.2105 97.1446 52.7994V46.2711H95.6978V52.3642C95.6978 53.3556 96.0166 54.1535 96.6296 54.7338C96.7032 54.7821 96.7768 54.8547 96.8503 54.903Z" fill="#009FE3"/>
<path fill-rule="evenodd" clip-rule="evenodd" d="M55.4059 58.5541C56.4604 58.82 57.7356 58.8442 58.6675 58.7959C59.4277 58.7717 60.1879 58.6991 60.9481 58.5782C61.5612 58.4815 62.1988 58.3606 62.8119 58.1914C63.1798 58.0947 63.5476 57.9738 63.9155 57.8529C64.3323 57.732 64.7738 57.5869 65.1907 57.466C65.7792 57.2968 66.4904 57.0791 67.128 57.0791C67.7656 57.0791 68.4032 57.2 69.0163 57.3935C69.1634 57.4418 69.3105 57.4902 69.4577 57.5385C70.1443 57.8045 70.7819 58.143 71.395 58.5299C72.5721 59.2311 73.8964 60.1499 75.2697 60.44C76.2996 60.6577 77.207 60.4642 78.1144 60.0048C80.1743 58.9409 81.6212 57.6353 82.7738 56.4747C81.5967 58.1914 80.346 59.6663 78.4577 60.6335C77.4032 61.1896 76.2997 61.383 75.1225 61.1412C72.3024 60.5609 70.1443 57.8045 67.1525 57.8045C66.613 57.8045 65.9509 57.9979 65.4359 58.143C64.6266 58.3848 63.8419 58.6508 63.0326 58.8684C60.3105 59.6179 56.0926 59.9323 53.6157 58.5299L53.7383 58.3365L55.0626 56.5956C55.1116 56.523 55.1852 56.4505 55.2588 56.3538C55.5776 55.9669 58.3977 52.4126 58.7656 51.9532C59.1334 51.5179 59.4768 51.0344 59.8691 50.575C60.237 50.0914 60.6048 49.6561 60.9481 49.1967C61.2915 48.7615 61.6348 48.3263 61.9536 47.9394C62.2724 47.5526 62.5422 47.2141 62.7629 46.9239L56.5095 46.9481V46.2227H64.7492V46.803C64.6511 46.8997 64.4795 47.0932 64.2588 47.3833C64.0135 47.6735 63.7193 48.0361 63.3759 48.4714C63.0326 48.9066 62.6402 49.3902 62.2234 49.9221C61.8065 50.4541 61.365 51.0102 60.9481 51.5663C60.5067 52.1224 57.564 55.8218 57.1471 56.3779L56.9754 56.6197L55.4059 58.5541Z" fill="url(#paint0_linear)"/>
<path fill-rule="evenodd" clip-rule="evenodd" d="M53.0027 59.763C53.1989 59.8597 53.4196 59.9322 53.6158 60.029C56.7302 61.4314 59.9427 60.4158 62.9591 59.5212C63.4005 59.4003 63.8419 59.2552 64.2833 59.1343C64.8964 58.9651 65.6321 58.7475 66.2697 58.7475C66.9318 58.7475 67.5694 58.8684 68.207 59.0618C68.3542 59.1102 68.5013 59.1585 68.6485 59.2069C69.3351 59.4728 69.9972 59.8113 70.6594 60.1982C71.8855 60.8994 73.2588 61.7699 74.6812 62.1084C78.1144 62.9305 80.9836 60.0773 82.455 58.143C81.2534 59.8597 79.4877 62.4227 77.5258 63.3899C76.4223 63.946 75.2942 64.1394 74.0681 63.8976C71.1498 63.3173 68.9182 60.5609 65.8283 60.5609C65.2643 60.5609 64.5776 60.7543 64.0381 60.8994C63.2043 61.1412 62.3951 61.4072 61.5367 61.6248C60.8746 61.794 60.188 61.9149 59.5258 62.0117C56.534 62.4227 54.6212 62.2534 51.8501 60.7302L52.7084 59.5937L53.0027 59.763Z" fill="url(#paint1_linear)"/>
<path fill-rule="evenodd" clip-rule="evenodd" d="M49.0057 43.2245C49.0302 43.2245 49.0302 43.2003 49.0302 43.2003V42.5716C49.0302 42.5475 49.0302 42.5475 49.0057 42.5475H48.9076C48.9076 42.5475 48.8831 42.5475 48.8831 42.5716L48.8585 42.886C48.834 43.0552 48.785 43.1036 48.5643 43.1036H48.0248C47.8776 43.1036 47.8531 43.0794 47.8531 42.886V42.1606C47.8531 42.1606 47.8531 42.1364 47.8776 42.1364H48.27C48.3926 42.1364 48.4171 42.1606 48.4171 42.2331L48.4417 42.4266C48.4417 42.4507 48.4417 42.4507 48.4662 42.4507H48.5397H48.5643V41.7254C48.5643 41.7254 48.5643 41.7254 48.5397 41.7254H48.4662C48.4662 41.7254 48.4417 41.7254 48.4417 41.7496L48.4171 41.9188C48.4171 41.9913 48.3681 42.0155 48.27 42.0155H47.8776C47.8776 42.0155 47.8531 42.0155 47.8531 41.9913V41.3385C47.8531 41.1693 47.8776 41.1209 48.0248 41.1209H48.5152C48.7359 41.1209 48.785 41.1693 48.8095 41.3385L48.834 41.6528C48.834 41.677 48.834 41.677 48.8585 41.677H48.9566C48.9566 41.677 48.9812 41.677 48.9812 41.6528V41.0242C48.9812 41 48.9566 41 48.9566 41H47.2891C47.2891 41 47.2891 41 47.2891 41.0242V41.0725C47.2891 41.0725 47.2891 41.0967 47.3136 41.0967H47.3626C47.5343 41.0967 47.5833 41.0967 47.5833 41.411V43.0069C47.5833 43.0794 47.5588 43.1036 47.5098 43.1278L47.3136 43.1519C47.3136 43.1519 47.3136 43.1519 47.3136 43.1761V43.2245V43.2487H49.0057V43.2245ZM49.9376 43.2487L49.9621 43.1761C49.9621 43.1519 49.9866 43.1519 50.0111 43.1519C50.0847 43.2003 50.2318 43.2728 50.4771 43.2728C50.7714 43.2487 51.0166 43.0794 51.0166 42.7893C51.0166 42.5233 50.7468 42.4024 50.5016 42.3299C50.2564 42.2573 50.1092 42.1848 50.1092 42.0639C50.1092 41.943 50.2073 41.8463 50.379 41.8463C50.5261 41.8463 50.6733 41.8946 50.7468 42.0397C50.7714 42.0639 50.7959 42.1606 50.8204 42.209C50.8204 42.2331 50.8204 42.2331 50.8449 42.2331H50.894C50.894 42.2331 50.9185 42.2331 50.9185 42.209V41.7254H50.8694C50.8694 41.7254 50.8694 41.7254 50.8449 41.7254L50.8204 41.7737C50.8204 41.7979 50.7959 41.7979 50.7714 41.7979C50.6733 41.7496 50.5506 41.7012 50.379 41.7012C50.1337 41.7012 49.8885 41.8221 49.8885 42.1122C49.8885 42.3782 50.1092 42.4749 50.3545 42.5475C50.5752 42.62 50.7959 42.6684 50.7959 42.8376C50.7959 42.9827 50.6733 43.1036 50.4526 43.1036C50.2564 43.1036 50.1092 43.0552 50.0111 42.886C49.9866 42.8376 49.9621 42.7651 49.9376 42.6925C49.9376 42.6684 49.9376 42.6684 49.913 42.6684H49.864C49.864 42.6684 49.8395 42.6684 49.8395 42.6925V43.2245H49.9376V43.2487ZM52.6596 42.7409C52.6596 42.6925 52.6596 42.6925 52.6106 42.6925H52.5615C52.537 42.6925 52.537 42.6925 52.537 42.7167V42.8134C52.537 43.031 52.4634 43.1036 52.3408 43.1036C52.1937 43.1036 52.1446 42.9585 52.1446 42.7651V41.8704H52.5615C52.5615 41.8704 52.5861 41.8704 52.5861 41.8463V41.7496C52.5861 41.7496 52.5861 41.7254 52.5615 41.7254H52.1446V41.2901C52.1446 41.266 52.1446 41.266 52.1201 41.266H52.022C51.9975 41.266 51.9975 41.266 51.973 41.2901L51.9485 41.4836C51.9239 41.7012 51.8749 41.7496 51.6787 41.7496H51.6051C51.6051 41.7496 51.5806 41.7496 51.5806 41.7737V41.8704C51.5806 41.8704 51.5806 41.8946 51.6051 41.8946H51.8504V42.7409C51.8504 42.8618 51.8504 42.9343 51.8749 42.9827C51.9239 43.1519 52.0466 43.2728 52.2673 43.2728C52.537 43.2728 52.6351 43.0794 52.6351 42.8376V42.7409H52.6596ZM54.5724 42.8618H54.5479C54.4253 43.0069 54.3027 43.0794 54.1065 43.0794C53.8367 43.0794 53.6406 42.9102 53.6406 42.5233C53.6406 42.4991 53.6406 42.4749 53.6651 42.4749H54.597C54.6215 42.4749 54.646 42.4507 54.646 42.4266C54.646 42.0155 54.4253 41.7012 54.0329 41.7012C53.6406 41.7012 53.3463 42.0155 53.3463 42.4749C53.3463 42.9343 53.6406 43.2487 54.0575 43.2487C54.3027 43.2487 54.4743 43.1519 54.6215 42.9343V42.9102L54.5724 42.8618ZM53.6896 42.354C53.6406 42.354 53.6406 42.354 53.6406 42.2815C53.6651 42.0155 53.8122 41.8463 54.0084 41.8463C54.2291 41.8463 54.3517 42.0155 54.3763 42.3299C54.3763 42.354 54.3763 42.354 54.3517 42.354H53.6896ZM54.3027 41.2901C54.4008 41.2418 54.4253 41.1934 54.3763 41.1209C54.3272 41.0484 54.2536 41.0242 54.1801 41.0967L53.6651 41.4594C53.6406 41.4594 53.6406 41.4836 53.6651 41.5078C53.7141 41.5319 53.7141 41.5319 53.7387 41.5319L54.3027 41.2901ZM56.3136 42.7409C56.3136 42.6925 56.3136 42.6925 56.2645 42.6925H56.2155C56.191 42.6925 56.191 42.6925 56.191 42.7167V42.8134C56.191 43.031 56.1174 43.1036 55.9948 43.1036C55.8476 43.1036 55.7986 42.9585 55.7986 42.7651V41.8704H56.2155C56.2155 41.8704 56.24 41.8704 56.24 41.8463V41.7496C56.24 41.7496 56.24 41.7254 56.2155 41.7254H55.7986V41.2901C55.7986 41.266 55.7986 41.266 55.7741 41.266H55.676C55.6515 41.266 55.6515 41.266 55.6269 41.2901L55.6024 41.4836C55.5779 41.7012 55.5288 41.7496 55.3327 41.7496H55.2591C55.2591 41.7496 55.2346 41.7496 55.2346 41.7737V41.8704C55.2346 41.8704 55.2346 41.8946 55.2591 41.8946H55.5043V42.7409C55.5043 42.8618 55.5043 42.9343 55.5288 42.9827C55.5779 43.1519 55.7005 43.2728 55.9212 43.2728C56.191 43.2728 56.2891 43.0794 56.2891 42.8376V42.7409H56.3136ZM57.6869 43.2245C57.7114 43.2245 57.7114 43.2245 57.6869 43.2245V43.1519C57.6869 43.1519 57.6869 43.1278 57.6624 43.1278H57.5888C57.4662 43.1278 57.4171 43.0794 57.4171 42.886V41.7496V41.7254H56.9021C56.9021 41.7254 56.9021 41.7254 56.9021 41.7496V41.7979C56.9021 41.7979 56.9021 41.8221 56.9267 41.8221H56.9757C57.1229 41.8221 57.1719 41.8463 57.1719 42.0639V42.9827C57.1719 43.0552 57.1474 43.0794 57.0983 43.1036L56.9267 43.1278C56.9267 43.1278 56.9267 43.1278 56.9267 43.1519V43.2003V43.2245H57.6869ZM57.4662 41.266C57.4662 41.1693 57.3926 41.0725 57.27 41.0725C57.1719 41.0725 57.0983 41.1451 57.0983 41.266C57.0983 41.3627 57.1719 41.4352 57.27 41.4352C57.3926 41.4352 57.4662 41.3627 57.4662 41.266ZM59.5752 42.8376H59.5506C59.4526 43.0069 59.3054 43.0794 59.1092 43.0794C58.8395 43.0794 58.6433 42.8618 58.6433 42.4266C58.6433 42.0639 58.8149 41.8221 59.0602 41.8221C59.1092 41.8221 59.1828 41.8221 59.2318 41.8704C59.2564 41.8704 59.2564 41.8946 59.2564 41.8946C59.2564 41.9188 59.2073 41.9672 59.2073 42.0397C59.2073 42.1364 59.2809 42.209 59.379 42.209C59.4771 42.209 59.5506 42.1364 59.5506 42.0155C59.5506 41.8221 59.3054 41.677 59.0602 41.677C58.6433 41.677 58.349 41.9913 58.349 42.4507C58.349 42.9102 58.6433 43.2245 59.0602 43.2245C59.3054 43.2245 59.5016 43.1036 59.6242 42.8618V42.8376H59.5752ZM61.2673 42.6442C61.2673 42.7409 61.2427 42.7893 61.2427 42.8134C61.1937 42.9343 61.0466 43.1036 60.8749 43.1036C60.7278 43.1036 60.6297 43.0069 60.6297 42.8618C60.6297 42.5716 60.8994 42.4991 61.2182 42.4749C61.2673 42.4749 61.2673 42.4749 61.2673 42.5233V42.6442ZM61.8313 42.886C61.8313 42.8618 61.8313 42.8618 61.8068 42.8618H61.7577C61.7332 42.8618 61.7332 42.8618 61.7332 42.886V42.9585C61.7332 43.0552 61.7087 43.1278 61.6351 43.1278C61.5615 43.1278 61.537 43.0552 61.537 42.886V42.3299C61.537 41.8946 61.3408 41.7254 60.973 41.7254C60.7032 41.7254 60.458 41.8704 60.458 42.0639C60.458 42.1606 60.5316 42.2573 60.6297 42.2573C60.7278 42.2573 60.8013 42.1848 60.8013 42.0881C60.8013 42.0155 60.7523 41.9672 60.7523 41.9188C60.7523 41.9188 60.7523 41.8946 60.7768 41.8946C60.8258 41.8704 60.8994 41.8463 60.9485 41.8463C61.1692 41.8463 61.2673 41.9672 61.2673 42.209V42.2815C61.2673 42.3299 61.2673 42.3299 61.2182 42.354C60.7278 42.3782 60.3354 42.4991 60.3354 42.8618C60.3354 43.1278 60.5561 43.2728 60.8013 43.2728C61.022 43.2728 61.1692 43.1761 61.2918 42.9827C61.3163 43.1761 61.4389 43.2728 61.5861 43.2728C61.7577 43.2728 61.8313 43.1278 61.8313 42.9585V42.886ZM65.804 42.8618H65.7795C65.6569 43.0069 65.5343 43.0794 65.3381 43.0794C65.0684 43.0794 64.8722 42.9102 64.8722 42.5233C64.8722 42.4991 64.8722 42.4749 64.8967 42.4749H65.8286C65.8531 42.4749 65.8776 42.4507 65.8776 42.4266C65.8776 42.0155 65.6569 41.7012 65.2645 41.7012C64.8722 41.7012 64.5779 42.0155 64.5779 42.4749C64.5779 42.9343 64.8722 43.2487 65.2891 43.2487C65.5343 43.2487 65.706 43.1519 65.8531 42.9343V42.9102L65.804 42.8618ZM64.9212 42.354C64.8722 42.354 64.8722 42.354 64.8722 42.2815C64.8967 42.0155 65.0438 41.8463 65.24 41.8463C65.4607 41.8463 65.5833 42.0155 65.6079 42.3299C65.6079 42.354 65.6079 42.354 65.5833 42.354H64.9212ZM69.6051 43.2245C70.0956 43.2245 70.3899 43.0069 70.3899 42.5958C70.3899 42.3057 70.1937 42.0881 69.8504 42.0155C70.1201 41.9188 70.2427 41.7254 70.2427 41.5078C70.2427 41.1693 69.9239 41 69.507 41H68.6487C68.6487 41 68.6487 41 68.6487 41.0242V41.0725C68.6487 41.0725 68.6487 41.0967 68.6733 41.0967H68.7223C68.894 41.1209 68.943 41.1209 68.943 41.411V43.0069C68.943 43.0794 68.9185 43.1036 68.8694 43.1278L68.6733 43.1519C68.6733 43.1519 68.6733 43.1519 68.6733 43.1761V43.2245V43.2487H69.6051V43.2245ZM69.3844 43.0794C69.2373 43.0794 69.2128 43.031 69.2128 42.8618V42.1122C69.2128 42.1122 69.2128 42.0881 69.2373 42.0881H69.507C69.8994 42.0881 70.0956 42.2331 70.0956 42.5958C70.0956 42.9343 69.8994 43.0552 69.6051 43.0552H69.3844V43.0794ZM69.2373 41.943C69.2128 41.943 69.2128 41.943 69.2373 41.943L69.2128 41.3385C69.2128 41.1693 69.2373 41.1209 69.3844 41.1209H69.4825C69.7523 41.1209 69.9485 41.1693 69.9485 41.4836C69.9485 41.7979 69.8013 41.943 69.4825 41.943H69.2373ZM72.4008 42.8618H72.3763C72.2536 43.0069 72.131 43.0794 71.9348 43.0794C71.6651 43.0794 71.4689 42.9102 71.4689 42.5233C71.4689 42.4991 71.4689 42.4749 71.4934 42.4749H72.4253C72.4498 42.4749 72.4743 42.4507 72.4743 42.4266C72.4743 42.0155 72.2536 41.7012 71.8613 41.7012C71.4689 41.7012 71.1746 42.0155 71.1746 42.4749C71.1746 42.9343 71.4689 43.2487 71.8858 43.2487C72.131 43.2487 72.3027 43.1519 72.4498 42.9343V42.9102L72.4008 42.8618ZM71.5179 42.354C71.4689 42.354 71.4689 42.354 71.4689 42.2815C71.4934 42.0155 71.6406 41.8463 71.8367 41.8463C72.0575 41.8463 72.1801 42.0155 72.2046 42.3299C72.2046 42.354 72.2046 42.354 72.1801 42.354H71.5179ZM75.785 43.2245C75.785 43.2245 75.8095 43.2245 75.785 43.2245V43.1519C75.785 43.1519 75.785 43.1278 75.7604 43.1278H75.7114C75.5643 43.1278 75.5152 43.0794 75.5152 42.886V42.3299C75.5152 42.1848 75.4907 42.0881 75.4662 42.0155C75.3926 41.7979 75.2455 41.7012 75.0248 41.7012C74.8286 41.7012 74.6569 41.7979 74.5098 42.0155C74.4362 41.7979 74.2891 41.7012 74.0684 41.7012C73.8722 41.7012 73.7005 41.7979 73.5779 41.9913V41.7737V41.7496H73.1119C73.1119 41.7496 73.1119 41.7496 73.1119 41.7737V41.8221C73.1119 41.8221 73.1119 41.8463 73.1365 41.8463H73.1855C73.3327 41.8463 73.3817 41.8704 73.3817 42.0881V43.0069C73.3817 43.0794 73.3572 43.1036 73.3081 43.1278L73.161 43.1519C73.161 43.1519 73.161 43.1519 73.161 43.1761V43.2245V43.2487H73.8967C73.8967 43.2487 73.8967 43.2487 73.8967 43.2245V43.1519C73.8967 43.1519 73.8967 43.1278 73.8722 43.1278H73.8231C73.676 43.1278 73.6515 43.0794 73.6515 42.886V42.3299C73.6515 42.2331 73.676 42.1606 73.7005 42.0881C73.7741 41.943 73.9212 41.8463 74.0438 41.8463C74.24 41.8463 74.3136 41.9913 74.3136 42.2815V42.9827C74.3136 43.0552 74.2891 43.0794 74.24 43.1036L74.1174 43.1278C74.1174 43.1278 74.1174 43.1278 74.1174 43.1519V43.2003V43.2245H74.8286C74.8286 43.2245 74.8286 43.2245 74.8286 43.2003V43.1519C74.8286 43.1519 74.8286 43.1278 74.804 43.1278H74.755C74.6079 43.1278 74.5588 43.0794 74.5588 42.886V42.3057C74.5588 42.2331 74.5833 42.1606 74.6079 42.0881C74.6814 41.943 74.8286 41.8463 74.9512 41.8463C75.1474 41.8463 75.2209 41.9913 75.2209 42.2815V42.9827C75.2209 43.0552 75.1964 43.0794 75.1474 43.1036L75.0248 43.1278C75.0248 43.1278 75.0248 43.1278 75.0248 43.1519V43.2003V43.2245H75.785ZM77.2564 42.3057L77.2809 42.1606C77.2809 42.1606 77.2809 42.1364 77.2564 42.1364H76.4716C76.4716 42.1364 76.4471 42.1364 76.4471 42.1606V42.2815C76.4471 42.2815 76.4471 42.3057 76.4716 42.3057H77.2564ZM79.2673 42.8618H79.2427C79.1201 43.0069 78.9975 43.0794 78.8013 43.0794C78.5316 43.0794 78.3354 42.9102 78.3354 42.5233C78.3354 42.4991 78.3354 42.4749 78.3599 42.4749H79.2918C79.3163 42.4749 79.3408 42.4507 79.3408 42.4266C79.3408 42.0155 79.1201 41.7012 78.7278 41.7012C78.3354 41.7012 78.0411 42.0155 78.0411 42.4749C78.0411 42.9343 78.3354 43.2487 78.7523 43.2487C78.9975 43.2487 79.1692 43.1519 79.3163 42.9343V42.9102L79.2673 42.8618ZM78.3844 42.354C78.3354 42.354 78.3354 42.354 78.3354 42.2815C78.3599 42.0155 78.507 41.8463 78.7032 41.8463C78.9239 41.8463 79.0466 42.0155 79.0711 42.3299C79.0711 42.354 79.0711 42.354 79.0466 42.354H78.3844ZM80.1991 43.2487L80.2237 43.1761C80.2237 43.1519 80.2482 43.1519 80.2727 43.1519C80.3463 43.2003 80.4934 43.2728 80.7387 43.2728C81.0329 43.2728 81.2782 43.1036 81.2782 42.8134C81.2782 42.5475 81.0084 42.4266 80.7632 42.354C80.5179 42.2815 80.3708 42.209 80.3708 42.0881C80.3708 41.9672 80.4689 41.8704 80.6406 41.8704C80.7877 41.8704 80.9348 41.9188 81.0084 42.0639C81.0329 42.1122 81.0575 42.1848 81.0575 42.2331C81.0575 42.2573 81.0575 42.2573 81.082 42.2573H81.131C81.131 42.2573 81.1555 42.2573 81.1555 42.2331V41.7254H81.1065C81.1065 41.7254 81.1065 41.7254 81.082 41.7254L81.0575 41.7737C81.0575 41.7979 81.0329 41.7979 81.0084 41.7979C80.9103 41.7496 80.7877 41.7012 80.616 41.7012C80.3708 41.7012 80.1256 41.8221 80.1256 42.1122C80.1256 42.3782 80.3463 42.4749 80.5915 42.5475C80.8122 42.62 81.0329 42.6684 81.0329 42.8376C81.0329 42.9827 80.9103 43.1036 80.6896 43.1036C80.4934 43.1036 80.3463 43.0552 80.2482 42.886C80.2237 42.8376 80.1991 42.7651 80.1746 42.6925C80.1746 42.6684 80.1746 42.6684 80.1501 42.6684H80.1011C80.1011 42.6684 80.0765 42.6684 80.0765 42.6925V43.2245H80.1991V43.2487ZM82.9212 42.7409C82.9212 42.6925 82.9212 42.6925 82.8722 42.6925H82.8231C82.7986 42.6925 82.7986 42.6925 82.7986 42.7167V42.8134C82.7986 43.031 82.725 43.1036 82.6024 43.1036C82.4553 43.1036 82.4062 42.9585 82.4062 42.7651V41.8704H82.8231C82.8231 41.8704 82.8476 41.8704 82.8476 41.8463V41.7496C82.8476 41.7496 82.8476 41.7254 82.8231 41.7254H82.4062V41.2901C82.4062 41.266 82.4062 41.266 82.3817 41.266H82.2836C82.2591 41.266 82.2591 41.266 82.2346 41.2901L82.21 41.4836C82.1855 41.7012 82.1365 41.7496 81.9403 41.7496H81.8667C81.8667 41.7496 81.8422 41.7496 81.8422 41.7737V41.8704C81.8422 41.8704 81.8422 41.8946 81.8667 41.8946H82.1119V42.7409C82.1119 42.8618 82.1119 42.9343 82.1365 42.9827C82.1855 43.1519 82.3081 43.2728 82.5288 43.2728C82.7986 43.2728 82.8967 43.0794 82.8967 42.8376V42.7409H82.9212ZM84.5397 42.6442C84.5397 42.7409 84.5152 42.7893 84.5152 42.8134C84.4662 42.9343 84.319 43.1036 84.1474 43.1036C84.0002 43.1036 83.9021 43.0069 83.9021 42.8618C83.9021 42.5716 84.1719 42.4991 84.4907 42.4749C84.5397 42.4749 84.5397 42.4749 84.5397 42.5233V42.6442ZM85.1038 42.886C85.1038 42.8618 85.1038 42.8618 85.0793 42.8618H85.0302C85.0057 42.8618 85.0057 42.8618 85.0057 42.886V42.9585C85.0057 43.0552 84.9812 43.1278 84.9076 43.1278C84.834 43.1278 84.8095 43.0552 84.8095 42.886V42.3299C84.8095 41.8946 84.6133 41.7254 84.2455 41.7254C83.9757 41.7254 83.7305 41.8704 83.7305 42.0639C83.7305 42.1606 83.804 42.2573 83.9021 42.2573C84.0002 42.2573 84.0738 42.1848 84.0738 42.0881C84.0738 42.0155 84.0248 41.9672 84.0248 41.9188C84.0248 41.9188 84.0248 41.8946 84.0493 41.8946C84.0983 41.8704 84.1719 41.8463 84.2209 41.8463C84.4416 41.8463 84.5397 41.9672 84.5397 42.209V42.2815C84.5397 42.3299 84.5397 42.3299 84.4907 42.354C84.0002 42.3782 83.6079 42.4991 83.6079 42.8618C83.6079 43.1278 83.8286 43.2728 84.0738 43.2728C84.2945 43.2728 84.4417 43.1761 84.5643 42.9827C84.5888 43.1761 84.7114 43.2728 84.8585 43.2728C85.0302 43.2728 85.1038 43.1278 85.1038 42.9585V42.886ZM86.4525 43.2245V43.1519C86.4525 43.1519 86.4525 43.1278 86.428 43.1278H86.379C86.2073 43.1036 86.1828 43.1036 86.1828 42.8376V42.4024C86.1828 42.0397 86.4035 41.8463 86.5752 41.8463C86.5997 41.8463 86.6487 41.8463 86.6487 41.8704C86.6487 41.8946 86.6242 41.9188 86.6242 41.9672C86.6242 42.0397 86.6978 42.1122 86.7959 42.1122C86.894 42.1122 86.9675 42.0397 86.9675 41.9188C86.9675 41.7496 86.7959 41.677 86.6733 41.677C86.5016 41.677 86.3299 41.7737 86.2073 41.9672V41.7254V41.7012H85.7414C85.7414 41.7012 85.7414 41.7012 85.7414 41.7254V41.7737C85.7414 41.7737 85.7414 41.7979 85.7659 41.7979H85.8149C85.9621 41.7979 86.0111 41.8221 86.0111 42.0397V42.9585C86.0111 43.031 85.9866 43.0552 85.9376 43.0794L85.7904 43.1036C85.7904 43.1036 85.7904 43.1036 85.7904 43.1278V43.1761V43.2003H86.4525V43.2245Z" fill="#264597"/>
<defs>
<linearGradient id="paint0_linear" x1="65.1074" y1="54.5128" x2="72.0217" y2="61.5255" gradientUnits="userSpaceOnUse">
<stop stop-color="#264597"/>
<stop offset="1" stop-color="#009FE3"/>
</linearGradient>
<linearGradient id="paint1_linear" x1="64.6104" y1="56.8211" x2="77.6733" y2="70.5405" gradientUnits="userSpaceOnUse">
<stop stop-color="#009FE3"/>
<stop offset="1" stop-color="white"/>
</linearGradient>
</defs>
</svg>
